G04 start of page 5 for group -4062 idx -4062 *
G04 Title: (unknown), soldermask *
G04 Creator: pcb 20091103 *
G04 CreationDate: Чтв 05 Янв 2012 09:41:11 UTC *
G04 For: aml *
G04 Format: Gerber/RS-274X *
G04 PCB-Dimensions: 948000 534000 *
G04 PCB-Coordinate-Origin: lower left *
%MOIN*%
%FSLAX25Y25*%
%LNBACKMASK*%
%ADD11C,0.0200*%
%ADD23C,0.0760*%
%ADD39C,0.0660*%
%ADD40C,0.0710*%
%ADD41C,0.0620*%
%ADD42C,0.1120*%
%ADD43C,0.1020*%
%ADD44C,0.0810*%
%ADD45C,0.0920*%
%ADD46C,0.0820*%
%ADD47C,0.0520*%
%ADD48C,0.2560*%
%ADD49C,0.0610*%
%ADD50R,0.0572X0.0572*%
%ADD52R,0.0660X0.0660*%
%ADD53C,0.0230*%
%ADD54R,0.0900X0.0900*%
G54D39*X151500Y429800D03*
G54D11*G36*
X109950Y447350D02*Y440250D01*
X117050D01*
Y447350D01*
X109950D01*
G37*
G54D40*X143500Y443800D03*
G54D39*X141500Y429800D03*
X131500D03*
X121500D03*
G54D11*G36*
X129200Y489100D02*Y481500D01*
X136800D01*
Y489100D01*
X129200D01*
G37*
G36*
X153200Y507100D02*Y500500D01*
X159800D01*
Y507100D01*
X153200D01*
G37*
G54D39*X156500Y493800D03*
Y483800D03*
G54D11*G36*
X81200Y509100D02*Y502500D01*
X87800D01*
Y509100D01*
X81200D01*
G37*
G54D39*X114500Y505800D03*
X84500Y495800D03*
X114500D03*
X84500Y485800D03*
Y475800D03*
X114500D03*
Y485800D03*
G54D11*G36*
X215200Y476600D02*Y470000D01*
X221800D01*
Y476600D01*
X215200D01*
G37*
G54D39*X186500Y473800D03*
Y483800D03*
Y493800D03*
X228500Y473300D03*
X238500D03*
X248500D03*
X258500D03*
G54D11*X247500Y450300D03*
G54D39*X258500Y503300D03*
X248500D03*
X238500D03*
X228500D03*
X218500D03*
X186500Y503800D03*
X111500Y429800D03*
X101500D03*
X91500D03*
G54D11*G36*
X87200Y456100D02*Y448500D01*
X94800D01*
Y456100D01*
X87200D01*
G37*
G54D23*X101000Y452300D03*
X133000Y475300D03*
G54D39*X156500Y473800D03*
G54D41*X31000Y469300D03*
Y459300D03*
Y436800D03*
Y426800D03*
Y416800D03*
Y406800D03*
Y396800D03*
Y386800D03*
Y376800D03*
G54D42*X42000Y515300D03*
G54D43*X52000Y505300D03*
G54D42*X62000Y515300D03*
Y495300D03*
X42000D03*
G54D39*X268500Y473300D03*
X278500D03*
X288500D03*
Y503300D03*
X278500D03*
G54D40*X268500D03*
G54D42*X348000Y515300D03*
X368000D03*
G54D43*X358000Y505300D03*
G54D42*X368000Y495300D03*
X348000D03*
G54D41*X337000Y469300D03*
Y459300D03*
Y436800D03*
Y426800D03*
Y416800D03*
Y406800D03*
Y396800D03*
Y386800D03*
Y376800D03*
G54D11*G36*
X108200Y372100D02*Y364500D01*
X115800D01*
Y372100D01*
X108200D01*
G37*
G54D23*X102000Y368300D03*
X92000D03*
G54D39*X114500Y337800D03*
G54D23*X155000Y370300D03*
G54D39*X91500Y389800D03*
X101500D03*
X111500D03*
X121500D03*
X131500D03*
X141500D03*
X151500D03*
G54D11*G36*
X225200Y378100D02*Y370500D01*
X232800D01*
Y378100D01*
X225200D01*
G37*
G54D23*X229000Y364300D03*
X239000Y374300D03*
Y364300D03*
X249000Y374300D03*
Y364300D03*
G54D39*X258500Y335300D03*
X248500D03*
X238500D03*
X228500D03*
X218500D03*
G54D11*G36*
X201200Y374100D02*Y366500D01*
X208800D01*
Y374100D01*
X201200D01*
G37*
G54D23*X195000Y370300D03*
X185000D03*
G54D44*X175000D03*
G54D23*X165000D03*
G54D39*X161500Y389800D03*
X171500D03*
X181500D03*
G54D11*G36*
X153200Y339100D02*Y332500D01*
X159800D01*
Y339100D01*
X153200D01*
G37*
G54D39*X186500Y335800D03*
G54D11*G36*
X218200Y433100D02*Y426500D01*
X224800D01*
Y433100D01*
X218200D01*
G37*
G54D39*X211500Y429800D03*
X201500D03*
X191500D03*
X181500D03*
X171500D03*
X161500D03*
X191500Y389800D03*
X201500D03*
X211500D03*
X221500D03*
G54D23*X259000Y374300D03*
X269000D03*
X279000D03*
X289000D03*
X299000D03*
X259000Y364300D03*
X269000D03*
X279000D03*
X289000D03*
X299000D03*
G54D39*X288500Y335300D03*
X278500D03*
G54D40*X268500D03*
G54D11*G36*
X414200Y372100D02*Y364500D01*
X421800D01*
Y372100D01*
X414200D01*
G37*
G54D23*X408000Y368300D03*
X398000D03*
G54D39*X397500Y389800D03*
X407500D03*
X417500D03*
X427500D03*
G54D11*G36*
X531200Y378100D02*Y370500D01*
X538800D01*
Y378100D01*
X531200D01*
G37*
G54D23*X535000Y364300D03*
X545000Y374300D03*
Y364300D03*
X555000Y374300D03*
Y364300D03*
X565000Y374300D03*
X575000D03*
X585000D03*
X595000D03*
X605000D03*
G54D41*X643000Y376800D03*
G54D23*X565000Y364300D03*
X575000D03*
X585000D03*
X595000D03*
X605000D03*
G54D11*G36*
X507200Y374100D02*Y366500D01*
X514800D01*
Y374100D01*
X507200D01*
G37*
G54D23*X501000Y370300D03*
X491000D03*
G54D44*X481000D03*
G54D23*X471000D03*
X461000D03*
G54D39*X437500Y389800D03*
X447500D03*
X457500D03*
X467500D03*
X477500D03*
X487500D03*
X497500D03*
X507500D03*
X517500D03*
X527500D03*
G54D41*X643000Y396800D03*
Y386800D03*
G54D11*G36*
X415950Y447350D02*Y440250D01*
X423050D01*
Y447350D01*
X415950D01*
G37*
G54D39*X457500Y429800D03*
X447500D03*
X437500D03*
X427500D03*
X417500D03*
X407500D03*
X397500D03*
G54D11*G36*
X393200Y456100D02*Y448500D01*
X400800D01*
Y456100D01*
X393200D01*
G37*
G54D23*X407000Y452300D03*
G54D11*G36*
X524200Y433100D02*Y426500D01*
X530800D01*
Y433100D01*
X524200D01*
G37*
G54D39*X517500Y429800D03*
X507500D03*
G54D11*G36*
X521200Y476600D02*Y470000D01*
X527800D01*
Y476600D01*
X521200D01*
G37*
G54D39*X534500Y473300D03*
X544500D03*
X554500D03*
X564500D03*
Y503300D03*
X554500D03*
X544500D03*
X534500D03*
X524500D03*
X574500Y473300D03*
G54D40*Y503300D03*
G54D39*X584500Y473300D03*
X594500D03*
Y503300D03*
X584500D03*
G54D11*X553500Y450300D03*
G54D39*X497500Y429800D03*
X487500D03*
X477500D03*
X467500D03*
X492500Y473800D03*
Y483800D03*
Y493800D03*
Y503800D03*
G54D11*G36*
X435200Y489100D02*Y481500D01*
X442800D01*
Y489100D01*
X435200D01*
G37*
G54D23*X439000Y475300D03*
G54D11*G36*
X459200Y507100D02*Y500500D01*
X465800D01*
Y507100D01*
X459200D01*
G37*
G54D39*X462500Y493800D03*
Y483800D03*
Y473800D03*
G54D11*G36*
X387200Y509100D02*Y502500D01*
X393800D01*
Y509100D01*
X387200D01*
G37*
G54D39*X390500Y495800D03*
Y485800D03*
Y475800D03*
X420500D03*
Y485800D03*
Y495800D03*
Y505800D03*
G54D11*G36*
X720200Y372100D02*Y364500D01*
X727800D01*
Y372100D01*
X720200D01*
G37*
G54D23*X714000Y368300D03*
X704000D03*
G54D39*X703500Y389800D03*
X713500D03*
X723500D03*
G54D23*X841000Y364300D03*
X851000Y374300D03*
X861000D03*
X871000D03*
X851000Y364300D03*
X861000D03*
X871000D03*
X881000D03*
X891000D03*
X901000D03*
X881000Y374300D03*
X891000D03*
X901000D03*
X911000D03*
Y364300D03*
G54D11*G36*
X837200Y378100D02*Y370500D01*
X844800D01*
Y378100D01*
X837200D01*
G37*
G36*
X813200Y374100D02*Y366500D01*
X820800D01*
Y374100D01*
X813200D01*
G37*
G54D23*X807000Y370300D03*
X797000D03*
G54D44*X787000D03*
G54D23*X777000D03*
X767000D03*
G54D39*X733500Y389800D03*
X743500D03*
X753500D03*
X763500D03*
X773500D03*
X783500D03*
X793500D03*
X803500D03*
X813500D03*
X823500D03*
X833500D03*
G54D40*X449500Y443800D03*
G54D11*G36*
X721950Y447350D02*Y440250D01*
X729050D01*
Y447350D01*
X721950D01*
G37*
G54D40*X755500Y443800D03*
G54D11*G36*
X830200Y433100D02*Y426500D01*
X836800D01*
Y433100D01*
X830200D01*
G37*
G54D39*X823500Y429800D03*
X813500D03*
G54D11*G36*
X827200Y476600D02*Y470000D01*
X833800D01*
Y476600D01*
X827200D01*
G37*
G54D39*X840500Y473300D03*
X850500D03*
X860500D03*
X870500D03*
Y503300D03*
X860500D03*
X850500D03*
X840500D03*
X830500D03*
X880500Y473300D03*
G54D40*Y503300D03*
G54D39*X890500Y473300D03*
X900500D03*
Y503300D03*
X890500D03*
G54D11*X859500Y450300D03*
G54D39*X773500Y429800D03*
X763500D03*
X753500D03*
X743500D03*
X733500D03*
X803500D03*
X793500D03*
X783500D03*
G54D11*G36*
X741200Y489100D02*Y481500D01*
X748800D01*
Y489100D01*
X741200D01*
G37*
G54D23*X745000Y475300D03*
G54D11*G36*
X765200Y507100D02*Y500500D01*
X771800D01*
Y507100D01*
X765200D01*
G37*
G54D39*X768500Y493800D03*
Y483800D03*
Y473800D03*
X798500D03*
Y483800D03*
Y493800D03*
Y503800D03*
G54D41*X643000Y469300D03*
Y459300D03*
Y436800D03*
Y426800D03*
Y416800D03*
Y406800D03*
G54D42*X654000Y515300D03*
Y495300D03*
X674000D03*
Y515300D03*
G54D39*X723500Y429800D03*
X713500D03*
X703500D03*
G54D43*X664000Y505300D03*
G54D11*G36*
X693200Y509100D02*Y502500D01*
X699800D01*
Y509100D01*
X693200D01*
G37*
G54D39*X696500Y495800D03*
Y485800D03*
Y475800D03*
G54D11*G36*
X699200Y456100D02*Y448500D01*
X706800D01*
Y456100D01*
X699200D01*
G37*
G54D23*X713000Y452300D03*
G54D39*X726500Y475800D03*
Y485800D03*
Y495800D03*
Y505800D03*
G54D23*X279000Y206300D03*
X289000D03*
X299000D03*
G54D11*G36*
X531200Y210100D02*Y202500D01*
X538800D01*
Y210100D01*
X531200D01*
G37*
G54D41*X337000Y208800D03*
G54D11*G36*
X414200Y204100D02*Y196500D01*
X421800D01*
Y204100D01*
X414200D01*
G37*
G54D23*X408000Y200300D03*
X398000D03*
G54D39*X397500Y221800D03*
X407500D03*
X417500D03*
G54D41*X337000Y228800D03*
Y218800D03*
G54D39*X467500Y221800D03*
X477500D03*
X487500D03*
X497500D03*
X507500D03*
X517500D03*
X527500D03*
G54D23*X545000Y206300D03*
Y196300D03*
X555000Y206300D03*
X565000D03*
X575000D03*
X585000D03*
X595000D03*
X605000D03*
X555000Y196300D03*
X565000D03*
X575000D03*
X585000D03*
X595000D03*
X605000D03*
X535000D03*
G54D11*G36*
X507200Y206100D02*Y198500D01*
X514800D01*
Y206100D01*
X507200D01*
G37*
G54D23*X501000Y202300D03*
X491000D03*
G54D41*X643000Y208800D03*
G54D44*X481000Y202300D03*
G54D23*X471000D03*
X461000D03*
G54D39*X427500Y221800D03*
X437500D03*
X447500D03*
X457500D03*
G54D11*G36*
X720200Y204100D02*Y196500D01*
X727800D01*
Y204100D01*
X720200D01*
G37*
G54D23*X714000Y200300D03*
X704000D03*
G54D39*X703500Y221800D03*
X713500D03*
X723500D03*
X733500D03*
G54D11*G36*
X837200Y210100D02*Y202500D01*
X844800D01*
Y210100D01*
X837200D01*
G37*
G54D23*X841000Y196300D03*
X851000Y206300D03*
Y196300D03*
X861000Y206300D03*
Y196300D03*
X871000Y206300D03*
X881000D03*
X891000D03*
X901000D03*
X911000D03*
X871000Y196300D03*
X881000D03*
X891000D03*
X901000D03*
X911000D03*
G54D11*G36*
X813200Y206100D02*Y198500D01*
X820800D01*
Y206100D01*
X813200D01*
G37*
G54D23*X807000Y202300D03*
X797000D03*
G54D44*X787000D03*
G54D23*X777000D03*
X767000D03*
G54D39*X743500Y221800D03*
X753500D03*
X763500D03*
X773500D03*
X783500D03*
X793500D03*
X803500D03*
X813500D03*
X823500D03*
X833500D03*
G54D41*X643000Y228800D03*
Y218800D03*
G54D11*G36*
X415950Y279350D02*Y272250D01*
X423050D01*
Y279350D01*
X415950D01*
G37*
G54D40*X449500Y275800D03*
G54D39*X467500Y261800D03*
X457500D03*
G54D11*G36*
X435200Y321100D02*Y313500D01*
X442800D01*
Y321100D01*
X435200D01*
G37*
G36*
X459200Y339100D02*Y332500D01*
X465800D01*
Y339100D01*
X459200D01*
G37*
G54D39*X462500Y325800D03*
Y315800D03*
X420500Y307800D03*
Y317800D03*
Y327800D03*
Y337800D03*
G54D11*G36*
X524200Y265100D02*Y258500D01*
X530800D01*
Y265100D01*
X524200D01*
G37*
G54D39*X517500Y261800D03*
X507500D03*
X497500D03*
X487500D03*
X477500D03*
G54D11*X553500Y282300D03*
G36*
X521200Y308600D02*Y302000D01*
X527800D01*
Y308600D01*
X521200D01*
G37*
G54D39*X534500Y305300D03*
X492500Y305800D03*
Y315800D03*
Y325800D03*
X544500Y305300D03*
X554500D03*
X564500D03*
X574500D03*
X584500D03*
X594500D03*
Y335300D03*
X584500D03*
G54D40*X574500D03*
G54D39*X564500D03*
X554500D03*
X544500D03*
X534500D03*
X524500D03*
X492500Y335800D03*
X447500Y261800D03*
X437500D03*
X427500D03*
X417500D03*
X407500D03*
G54D23*X439000Y307300D03*
G54D39*X462500Y305800D03*
G54D41*X337000Y301300D03*
Y291300D03*
G54D11*G36*
X393200Y288100D02*Y280500D01*
X400800D01*
Y288100D01*
X393200D01*
G37*
G54D23*X407000Y284300D03*
G54D39*X390500Y307800D03*
X397500Y261800D03*
G54D41*X337000Y268800D03*
Y258800D03*
Y248800D03*
Y238800D03*
G54D42*X348000Y347300D03*
G54D43*X358000Y337300D03*
G54D42*X348000Y327300D03*
X368000Y347300D03*
Y327300D03*
G54D11*G36*
X387200Y341100D02*Y334500D01*
X393800D01*
Y341100D01*
X387200D01*
G37*
G54D39*X390500Y327800D03*
Y317800D03*
G54D11*G36*
X721950Y279350D02*Y272250D01*
X729050D01*
Y279350D01*
X721950D01*
G37*
G36*
X699200Y288100D02*Y280500D01*
X706800D01*
Y288100D01*
X699200D01*
G37*
G54D23*X713000Y284300D03*
G54D40*X755500Y275800D03*
G54D39*X763500Y261800D03*
X753500D03*
X743500D03*
X733500D03*
X723500D03*
X713500D03*
X703500D03*
G54D11*G36*
X830200Y265100D02*Y258500D01*
X836800D01*
Y265100D01*
X830200D01*
G37*
G54D39*X823500Y261800D03*
X813500D03*
G54D11*G36*
X827200Y308600D02*Y302000D01*
X833800D01*
Y308600D01*
X827200D01*
G37*
G54D39*X840500Y305300D03*
X850500D03*
X860500D03*
X870500D03*
Y335300D03*
X860500D03*
X850500D03*
X840500D03*
X830500D03*
X880500Y305300D03*
G54D40*Y335300D03*
G54D39*X890500Y305300D03*
X900500D03*
Y335300D03*
X890500D03*
G54D11*X859500Y282300D03*
G54D39*X803500Y261800D03*
X793500D03*
X783500D03*
X773500D03*
G54D11*G36*
X741200Y321100D02*Y313500D01*
X748800D01*
Y321100D01*
X741200D01*
G37*
G54D23*X745000Y307300D03*
G54D11*G36*
X765200Y339100D02*Y332500D01*
X771800D01*
Y339100D01*
X765200D01*
G37*
G54D39*X768500Y325800D03*
Y315800D03*
Y305800D03*
X726500Y307800D03*
Y317800D03*
Y327800D03*
Y337800D03*
X798500Y305800D03*
Y315800D03*
Y325800D03*
Y335800D03*
G54D41*X643000Y301300D03*
G54D42*X654000Y327300D03*
G54D41*X643000Y291300D03*
Y268800D03*
Y258800D03*
Y248800D03*
Y238800D03*
G54D42*X654000Y347300D03*
G54D43*X664000Y337300D03*
G54D42*X674000Y327300D03*
Y347300D03*
G54D11*G36*
X693200Y341100D02*Y334500D01*
X699800D01*
Y341100D01*
X693200D01*
G37*
G54D39*X696500Y327800D03*
Y317800D03*
Y307800D03*
G54D11*G36*
X201200Y206100D02*Y198500D01*
X208800D01*
Y206100D01*
X201200D01*
G37*
G54D23*X195000Y202300D03*
X185000D03*
G54D44*X175000D03*
G54D23*X165000D03*
X155000D03*
G54D11*G36*
X153200Y171100D02*Y164500D01*
X159800D01*
Y171100D01*
X153200D01*
G37*
G54D39*X186500Y167800D03*
X156500Y157800D03*
Y147800D03*
Y137800D03*
X186500D03*
Y147800D03*
Y157800D03*
G54D11*G36*
X218200Y265100D02*Y258500D01*
X224800D01*
Y265100D01*
X218200D01*
G37*
G54D39*X211500Y261800D03*
X201500D03*
X191500D03*
X181500D03*
X171500D03*
X161500D03*
X151500D03*
G54D11*G36*
X215200Y308600D02*Y302000D01*
X221800D01*
Y308600D01*
X215200D01*
G37*
G54D39*X186500Y305800D03*
Y315800D03*
Y325800D03*
X228500Y305300D03*
G54D11*X247500Y282300D03*
G54D39*X238500Y305300D03*
X248500D03*
X258500D03*
X268500D03*
X278500D03*
X288500D03*
X151500Y221800D03*
X161500D03*
X171500D03*
X181500D03*
X191500D03*
X201500D03*
X211500D03*
X221500D03*
G54D40*X143500Y275800D03*
G54D39*X141500Y261800D03*
X131500D03*
X121500D03*
G54D11*G36*
X109950Y279350D02*Y272250D01*
X117050D01*
Y279350D01*
X109950D01*
G37*
G54D39*X111500Y261800D03*
X101500D03*
X91500D03*
G54D11*G36*
X87200Y288100D02*Y280500D01*
X94800D01*
Y288100D01*
X87200D01*
G37*
G54D23*X101000Y284300D03*
G54D39*X114500Y159800D03*
Y169800D03*
G54D41*X31000Y301300D03*
Y291300D03*
G54D42*X42000Y327300D03*
G54D41*X31000Y268800D03*
Y258800D03*
Y248800D03*
Y238800D03*
G54D42*X42000Y179300D03*
G54D41*X31000Y228800D03*
Y218800D03*
Y208800D03*
G54D42*X42000Y347300D03*
G54D43*X52000Y337300D03*
G54D42*X62000Y327300D03*
Y347300D03*
G54D43*X52000Y169300D03*
G54D42*X62000Y159300D03*
X42000D03*
X62000Y179300D03*
G54D11*G36*
X129200Y321100D02*Y313500D01*
X136800D01*
Y321100D01*
X129200D01*
G37*
G54D23*X133000Y307300D03*
G54D39*X156500Y325800D03*
Y315800D03*
Y305800D03*
G54D11*G36*
X81200Y341100D02*Y334500D01*
X87800D01*
Y341100D01*
X81200D01*
G37*
G54D39*X84500Y327800D03*
Y317800D03*
Y307800D03*
X114500D03*
Y317800D03*
Y327800D03*
G54D11*G36*
X108200Y36100D02*Y28500D01*
X115800D01*
Y36100D01*
X108200D01*
G37*
G54D23*X102000Y32300D03*
X92000D03*
G54D11*G36*
X225200Y42100D02*Y34500D01*
X232800D01*
Y42100D01*
X225200D01*
G37*
G54D23*X229000Y28300D03*
X239000Y38300D03*
Y28300D03*
X249000Y38300D03*
Y28300D03*
X259000Y38300D03*
Y28300D03*
X269000D03*
X279000D03*
X289000D03*
X299000D03*
X269000Y38300D03*
X279000D03*
X289000D03*
X299000D03*
G54D11*G36*
X201200Y38100D02*Y30500D01*
X208800D01*
Y38100D01*
X201200D01*
G37*
G54D23*X195000Y34300D03*
X185000D03*
G54D44*X175000D03*
G54D23*X165000D03*
X155000D03*
G54D11*G36*
X218200Y97100D02*Y90500D01*
X224800D01*
Y97100D01*
X218200D01*
G37*
G54D39*X211500Y93800D03*
X201500D03*
X191500D03*
X181500D03*
X171500D03*
X161500Y53800D03*
X171500D03*
X181500D03*
X191500D03*
X201500D03*
X211500D03*
X221500D03*
X161500Y93800D03*
X151500D03*
X141500D03*
X131500D03*
X121500D03*
X111500D03*
X101500D03*
X91500D03*
Y53800D03*
X101500D03*
X111500D03*
X121500D03*
X131500D03*
X141500D03*
X151500D03*
G54D11*G36*
X108200Y204100D02*Y196500D01*
X115800D01*
Y204100D01*
X108200D01*
G37*
G54D23*X102000Y200300D03*
X92000D03*
G54D39*X91500Y221800D03*
X101500D03*
X111500D03*
X121500D03*
X131500D03*
G54D11*G36*
X129200Y153100D02*Y145500D01*
X136800D01*
Y153100D01*
X129200D01*
G37*
G54D23*X133000Y139300D03*
G54D39*X141500Y221800D03*
X114500Y139800D03*
Y149800D03*
G54D41*X31000Y133300D03*
Y123300D03*
Y100800D03*
Y90800D03*
Y80800D03*
Y70800D03*
Y60800D03*
Y50800D03*
Y40800D03*
G54D11*G36*
X109950Y111350D02*Y104250D01*
X117050D01*
Y111350D01*
X109950D01*
G37*
G36*
X87200Y120100D02*Y112500D01*
X94800D01*
Y120100D01*
X87200D01*
G37*
G54D23*X101000Y116300D03*
G54D40*X143500Y107800D03*
G54D11*G36*
X81200Y173100D02*Y166500D01*
X87800D01*
Y173100D01*
X81200D01*
G37*
G54D39*X84500Y159800D03*
Y149800D03*
Y139800D03*
G54D11*G36*
X225200Y210100D02*Y202500D01*
X232800D01*
Y210100D01*
X225200D01*
G37*
G54D23*X229000Y196300D03*
X239000Y206300D03*
Y196300D03*
X249000Y206300D03*
Y196300D03*
X259000Y206300D03*
Y196300D03*
G54D11*G36*
X215200Y140600D02*Y134000D01*
X221800D01*
Y140600D01*
X215200D01*
G37*
G54D39*X228500Y137300D03*
X238500D03*
X248500D03*
X258500D03*
X268500D03*
X278500D03*
X288500D03*
G54D11*X247500Y114300D03*
G54D23*X269000Y206300D03*
Y196300D03*
X279000D03*
X289000D03*
X299000D03*
G54D39*X288500Y167300D03*
X278500D03*
G54D40*X268500D03*
G54D39*X258500D03*
X248500D03*
X238500D03*
X228500D03*
X218500D03*
G54D45*X332000Y177000D03*
G54D46*X342000Y167000D03*
G54D45*X352000Y157000D03*
X332000D03*
X352000Y177000D03*
G54D39*X393500Y169500D03*
G54D11*G36*
X370890Y176490D02*Y169890D01*
X377490D01*
Y176490D01*
X370890D01*
G37*
G54D39*X374190Y163190D03*
Y153190D03*
X393500Y159500D03*
Y149500D03*
Y139500D03*
Y129500D03*
Y119500D03*
Y109500D03*
Y99500D03*
Y89500D03*
Y79500D03*
Y69500D03*
Y59500D03*
Y49500D03*
Y39500D03*
X393000Y27000D03*
G54D47*X329500Y123310D03*
Y113310D03*
Y90810D03*
Y80810D03*
Y70810D03*
Y60810D03*
Y50810D03*
Y40810D03*
Y30810D03*
G54D11*G36*
X466450Y79550D02*Y73450D01*
X472550D01*
Y79550D01*
X466450D01*
G37*
G36*
X499019Y82033D02*Y75433D01*
X505619D01*
Y82033D01*
X499019D01*
G37*
G54D39*X512319Y78733D03*
X493000Y105500D03*
Y95500D03*
G54D11*G36*
X479562Y56800D02*Y50200D01*
X486162D01*
Y56800D01*
X479562D01*
G37*
G54D39*X472862Y53500D03*
G54D11*G36*
X531000Y62400D02*Y55800D01*
X537600D01*
Y62400D01*
X531000D01*
G37*
G54D39*X539700Y47900D03*
G54D48*X507300Y53500D03*
G54D39*X545100Y59100D03*
X550500Y47900D03*
X561300D03*
X572100D03*
G54D48*X604500Y53500D03*
G54D11*G36*
X517200Y140800D02*Y134200D01*
X523800D01*
Y140800D01*
X517200D01*
G37*
G54D39*X510500Y137500D03*
G54D11*G36*
X519450Y99050D02*Y91950D01*
X526550D01*
Y99050D01*
X519450D01*
G37*
G54D39*X523000Y105500D03*
Y115500D03*
Y125500D03*
X493000D03*
Y115500D03*
G54D11*G36*
X537200Y118300D02*Y111700D01*
X543800D01*
Y118300D01*
X537200D01*
G37*
G36*
X430200Y42800D02*Y36200D01*
X436800D01*
Y42800D01*
X430200D01*
G37*
G36*
X439700Y30300D02*Y23700D01*
X446300D01*
Y30300D01*
X439700D01*
G37*
G54D39*X433000Y27000D03*
X423000D03*
X413000D03*
X403000D03*
X433500Y49500D03*
Y59500D03*
Y69500D03*
Y79500D03*
Y89500D03*
Y99500D03*
Y109500D03*
Y119500D03*
Y129500D03*
Y139500D03*
Y149500D03*
Y159500D03*
Y169500D03*
X580500Y145000D03*
G54D11*G36*
X823200Y140800D02*Y134200D01*
X829800D01*
Y140800D01*
X823200D01*
G37*
G54D39*X816500Y137500D03*
X739500Y139500D03*
X699500D03*
X739500Y119500D03*
G54D47*X635500Y123310D03*
G54D39*X739500Y129500D03*
Y149500D03*
X699500D03*
Y129500D03*
Y119500D03*
G54D45*X638000Y177000D03*
G54D46*X648000Y167000D03*
G54D45*X658000Y157000D03*
X638000D03*
X658000Y177000D03*
G54D39*X739500Y159500D03*
Y169500D03*
X699500D03*
Y159500D03*
G54D11*G36*
X676890Y176490D02*Y169890D01*
X683490D01*
Y176490D01*
X676890D01*
G37*
G54D39*X680190Y163190D03*
Y153190D03*
G54D11*G36*
X838700Y168300D02*Y161700D01*
X845300D01*
Y168300D01*
X838700D01*
G37*
G54D39*X842000Y175000D03*
X832000Y165000D03*
Y175000D03*
X829000Y115500D03*
Y125500D03*
X799000D03*
Y115500D03*
G54D11*G36*
X843200Y118300D02*Y111700D01*
X849800D01*
Y118300D01*
X843200D01*
G37*
G54D39*X856500Y115000D03*
X866500D03*
X876500D03*
Y145000D03*
X866500D03*
X856500D03*
X846500D03*
X886500Y115000D03*
Y145000D03*
X896500Y115000D03*
Y145000D03*
X906500Y115000D03*
X916500D03*
Y145000D03*
X906500D03*
X822000Y175000D03*
X812000D03*
X802000D03*
X792000D03*
X822000Y165000D03*
X812000D03*
X802000D03*
X792000D03*
X782000D03*
X772000D03*
G54D11*G36*
X532700Y168300D02*Y161700D01*
X539300D01*
Y168300D01*
X532700D01*
G37*
G54D39*X536000Y175000D03*
X526000D03*
X516000D03*
X782000D03*
X772000D03*
X526000Y165000D03*
X516000D03*
X506000D03*
X496000D03*
X486000D03*
X476000D03*
X506000Y175000D03*
X496000D03*
X486000D03*
X476000D03*
X466000Y165000D03*
Y175000D03*
X550500Y115000D03*
X560500D03*
X570500D03*
X580500D03*
X590500D03*
X600500D03*
X610500D03*
Y145000D03*
X600500D03*
X590500D03*
X570500D03*
X560500D03*
X550500D03*
X540500D03*
G54D49*X469500Y106500D03*
G54D39*X555900Y59100D03*
X566700D03*
X577500D03*
G54D47*X635500Y113310D03*
Y90810D03*
Y80810D03*
Y70810D03*
Y60810D03*
Y50810D03*
Y40810D03*
Y30810D03*
G54D39*X845700Y47900D03*
G54D48*X813300Y53500D03*
G54D39*X856500Y47900D03*
X867300D03*
X878100D03*
G54D48*X910500Y53500D03*
G54D11*G36*
X772450Y79550D02*Y73450D01*
X778550D01*
Y79550D01*
X772450D01*
G37*
G36*
X805019Y82033D02*Y75433D01*
X811619D01*
Y82033D01*
X805019D01*
G37*
G54D39*X818319Y78733D03*
X739500Y79500D03*
X699500D03*
X739500Y89500D03*
X699500D03*
G54D49*X775500Y106500D03*
G54D11*G36*
X825450Y99050D02*Y91950D01*
X832550D01*
Y99050D01*
X825450D01*
G37*
G54D39*X829000Y105500D03*
X799000D03*
Y95500D03*
X739500Y99500D03*
Y109500D03*
X699500D03*
Y99500D03*
X739500Y59500D03*
Y69500D03*
X699500D03*
Y59500D03*
G54D11*G36*
X837000Y62400D02*Y55800D01*
X843600D01*
Y62400D01*
X837000D01*
G37*
G54D39*X851100Y59100D03*
X861900D03*
X872700D03*
X883500D03*
G54D11*G36*
X785562Y56800D02*Y50200D01*
X792162D01*
Y56800D01*
X785562D01*
G37*
G54D39*X778862Y53500D03*
X699500Y49500D03*
Y39500D03*
G54D11*G36*
X736200Y42800D02*Y36200D01*
X742800D01*
Y42800D01*
X736200D01*
G37*
G54D39*X739500Y49500D03*
G54D11*G36*
X745700Y30300D02*Y23700D01*
X752300D01*
Y30300D01*
X745700D01*
G37*
G54D39*X739000Y27000D03*
X729000D03*
X719000D03*
X709000D03*
X699000D03*
G54D50*X351000Y388386D02*X351786D01*
X351000Y381300D02*X351786D01*
X657000Y388386D02*X657786D01*
X657000Y381300D02*X657786D01*
X431000Y417300D02*Y414938D01*
X419190Y417300D02*Y414938D01*
X512810Y417662D02*Y415300D01*
X515810Y456662D02*Y454300D01*
X512810Y406300D02*Y403938D01*
X501000Y417662D02*Y415300D01*
X504000Y456662D02*Y454300D01*
X501000Y406300D02*Y403938D01*
G54D53*X560055Y446462D02*X564661D01*
X560055Y454138D02*X564661D01*
X560055Y451579D02*X564661D01*
X560055Y449021D02*X564661D01*
G54D54*X553500Y451300D02*Y449300D01*
G54D53*X542339Y446462D02*X546945D01*
X542339Y449021D02*X546945D01*
X542339Y451579D02*X546945D01*
X542339Y454138D02*X546945D01*
G54D50*X818810Y417662D02*Y415300D01*
X807000Y417662D02*Y415300D01*
X810000Y456662D02*Y454300D01*
X821810Y456662D02*Y454300D01*
X818810Y406300D02*Y403938D01*
X807000Y406300D02*Y403938D01*
X737000Y417300D02*Y414938D01*
X725190Y417300D02*Y414938D01*
G54D53*X866055Y446462D02*X870661D01*
X866055Y454138D02*X870661D01*
X866055Y451579D02*X870661D01*
X866055Y449021D02*X870661D01*
G54D54*X859500Y451300D02*Y449300D01*
G54D53*X848339Y446462D02*X852945D01*
X848339Y449021D02*X852945D01*
X848339Y451579D02*X852945D01*
X848339Y454138D02*X852945D01*
G54D50*X206810Y417662D02*Y415300D01*
X195000Y417662D02*Y415300D01*
G54D53*X254055Y446462D02*X258661D01*
X254055Y454138D02*X258661D01*
X254055Y451579D02*X258661D01*
X254055Y449021D02*X258661D01*
G54D54*X247500Y451300D02*Y449300D01*
G54D53*X236339Y446462D02*X240945D01*
X236339Y449021D02*X240945D01*
X236339Y451579D02*X240945D01*
X236339Y454138D02*X240945D01*
G54D50*X198000Y456662D02*Y454300D01*
X209810Y456662D02*Y454300D01*
X206810Y406300D02*Y403938D01*
X195000Y406300D02*Y403938D01*
X125000Y417300D02*Y414938D01*
X113190Y417300D02*Y414938D01*
X125000Y249300D02*Y246938D01*
X113190Y249300D02*Y246938D01*
X206810Y249662D02*Y247300D01*
X209810Y288662D02*Y286300D01*
X206810Y238300D02*Y235938D01*
X195000Y249662D02*Y247300D01*
X198000Y288662D02*Y286300D01*
X195000Y238300D02*Y235938D01*
G54D53*X254055Y278462D02*X258661D01*
X254055Y286138D02*X258661D01*
X254055Y283579D02*X258661D01*
X254055Y281021D02*X258661D01*
G54D54*X247500Y283300D02*Y281300D01*
G54D53*X236339Y278462D02*X240945D01*
X236339Y281021D02*X240945D01*
X236339Y283579D02*X240945D01*
X236339Y286138D02*X240945D01*
G54D50*X431000Y249300D02*Y246938D01*
X419190Y249300D02*Y246938D01*
X512810Y249662D02*Y247300D01*
X501000Y249662D02*Y247300D01*
X512810Y238300D02*Y235938D01*
X501000Y238300D02*Y235938D01*
X504000Y288662D02*Y286300D01*
X515810Y288662D02*Y286300D01*
G54D52*X539000Y85000D02*X540000D01*
G54D50*X479000Y106500D02*X481362D01*
X479000Y118310D02*X481362D01*
G54D52*X539000Y73000D02*X540000D01*
X584138Y93500D02*Y92500D01*
X596138Y93500D02*Y92500D01*
G54D50*X373000Y117000D02*X375362D01*
X373000Y128810D02*X375362D01*
X418638Y157000D02*X421000D01*
X418638Y168810D02*X421000D01*
X409214Y173000D02*X410000D01*
X409214Y165914D02*X410000D01*
X418500Y136690D02*X420862D01*
X418500Y148500D02*X420862D01*
X359000Y111190D02*X361362D01*
X359000Y123000D02*X361362D01*
X351000Y220386D02*X351786D01*
X351000Y213300D02*X351786D01*
X657000Y220386D02*X657786D01*
X657000Y213300D02*X657786D01*
G54D53*X560055Y278462D02*X564661D01*
X560055Y286138D02*X564661D01*
X560055Y283579D02*X564661D01*
X560055Y281021D02*X564661D01*
G54D54*X553500Y283300D02*Y281300D01*
G54D53*X542339Y278462D02*X546945D01*
X542339Y281021D02*X546945D01*
X542339Y283579D02*X546945D01*
X542339Y286138D02*X546945D01*
G54D50*X810000Y288662D02*Y286300D01*
X821810Y288662D02*Y286300D01*
X737000Y249300D02*Y246938D01*
X725190Y249300D02*Y246938D01*
G54D53*X848339Y283579D02*X852945D01*
X848339Y286138D02*X852945D01*
G54D50*X818810Y249662D02*Y247300D01*
X807000Y249662D02*Y247300D01*
X818810Y238300D02*Y235938D01*
X807000Y238300D02*Y235938D01*
G54D52*X845000Y85000D02*X846000D01*
X845000Y73000D02*X846000D01*
G54D50*X785000Y106500D02*X787362D01*
X785000Y118310D02*X787362D01*
X679000Y117000D02*X681362D01*
X679000Y128810D02*X681362D01*
X665000Y111190D02*X667362D01*
X665000Y123000D02*X667362D01*
X724638Y157000D02*X727000D01*
X724500Y136690D02*X726862D01*
X724500Y148500D02*X726862D01*
X724638Y168810D02*X727000D01*
X715214Y173000D02*X716000D01*
X715214Y165914D02*X716000D01*
G54D53*X848339Y278462D02*X852945D01*
X848339Y281021D02*X852945D01*
X866055Y286138D02*X870661D01*
X866055Y283579D02*X870661D01*
G54D54*X859500Y283300D02*Y281300D01*
G54D53*X866055Y278462D02*X870661D01*
X866055Y281021D02*X870661D01*
G54D52*X890138Y93500D02*Y92500D01*
X902138Y93500D02*Y92500D01*
G54D50*X45000Y388386D02*X45786D01*
X45000Y381300D02*X45786D01*
X45000Y220386D02*X45786D01*
X45000Y213300D02*X45786D01*
X45000Y52386D02*X45786D01*
X45000Y45300D02*X45786D01*
X206810Y81662D02*Y79300D01*
X195000Y81662D02*Y79300D01*
X206810Y70300D02*Y67938D01*
X195000Y70300D02*Y67938D01*
X125000Y81300D02*Y78938D01*
X113190Y81300D02*Y78938D01*
X198000Y120662D02*Y118300D01*
X209810Y120662D02*Y118300D01*
G54D53*X254055Y110462D02*X258661D01*
X254055Y118138D02*X258661D01*
X254055Y115579D02*X258661D01*
X254055Y113021D02*X258661D01*
X236339Y110462D02*X240945D01*
X236339Y113021D02*X240945D01*
X236339Y115579D02*X240945D01*
X236339Y118138D02*X240945D01*
G54D54*X247500Y115300D02*Y113300D01*
M02*
