G04 start of page 10 for group -4014 idx -4014 *
G04 Title: (unknown), bottompaste *
G04 Creator: pcb 20091103 *
G04 CreationDate: Чтв 05 Янв 2012 09:41:11 UTC *
G04 For: aml *
G04 Format: Gerber/RS-274X *
G04 PCB-Dimensions: 948000 534000 *
G04 PCB-Coordinate-Origin: lower left *
%MOIN*%
%FSLAX25Y25*%
%LNBACKPASTE*%
%ADD27R,0.0512X0.0512*%
%ADD29R,0.0600X0.0600*%
%ADD37C,0.0130*%
%ADD38R,0.0800X0.0800*%
G54D27*X665000Y111190D02*X667362D01*
X665000Y123000D02*X667362D01*
X724500Y136690D02*X726862D01*
X724500Y148500D02*X726862D01*
X715214Y173000D02*X716000D01*
X715214Y165914D02*X716000D01*
X679000Y117000D02*X681362D01*
X679000Y128810D02*X681362D01*
X785000Y106500D02*X787362D01*
X785000Y118310D02*X787362D01*
G54D29*X890138Y93500D02*Y92500D01*
X902138Y93500D02*Y92500D01*
X845000Y85000D02*X846000D01*
X845000Y73000D02*X846000D01*
G54D27*X724638Y157000D02*X727000D01*
X724638Y168810D02*X727000D01*
X359000Y111190D02*X361362D01*
X359000Y123000D02*X361362D01*
X418500Y136690D02*X420862D01*
X418500Y148500D02*X420862D01*
X409214Y173000D02*X410000D01*
X409214Y165914D02*X410000D01*
X373000Y117000D02*X375362D01*
X373000Y128810D02*X375362D01*
X479000Y106500D02*X481362D01*
X479000Y118310D02*X481362D01*
G54D29*X584138Y93500D02*Y92500D01*
X596138Y93500D02*Y92500D01*
X539000Y85000D02*X540000D01*
X539000Y73000D02*X540000D01*
G54D27*X418638Y157000D02*X421000D01*
X418638Y168810D02*X421000D01*
G54D37*X254055Y110462D02*X258661D01*
X236339D02*X240945D01*
X236339Y113021D02*X240945D01*
X236339Y115579D02*X240945D01*
X236339Y118138D02*X240945D01*
X254055D02*X258661D01*
X254055Y115579D02*X258661D01*
X254055Y113021D02*X258661D01*
G54D38*X247500Y115300D02*Y113300D01*
G54D27*X125000Y81300D02*Y78938D01*
X113190Y81300D02*Y78938D01*
X206810Y70300D02*Y67938D01*
X195000Y70300D02*Y67938D01*
X198000Y120662D02*Y118300D01*
X209810Y120662D02*Y118300D01*
X206810Y81662D02*Y79300D01*
X195000Y81662D02*Y79300D01*
X45000Y52386D02*X45786D01*
X45000Y45300D02*X45786D01*
G54D37*X866055Y278462D02*X870661D01*
X848339D02*X852945D01*
X848339Y281021D02*X852945D01*
X848339Y283579D02*X852945D01*
X848339Y286138D02*X852945D01*
X866055D02*X870661D01*
X866055Y283579D02*X870661D01*
X866055Y281021D02*X870661D01*
G54D38*X859500Y283300D02*Y281300D01*
G54D27*X737000Y249300D02*Y246938D01*
X725190Y249300D02*Y246938D01*
X818810Y238300D02*Y235938D01*
X807000Y238300D02*Y235938D01*
X810000Y288662D02*Y286300D01*
X821810Y288662D02*Y286300D01*
X818810Y249662D02*Y247300D01*
X807000Y249662D02*Y247300D01*
X657000Y220386D02*X657786D01*
X657000Y213300D02*X657786D01*
G54D37*X560055Y278462D02*X564661D01*
X542339D02*X546945D01*
X542339Y281021D02*X546945D01*
X542339Y283579D02*X546945D01*
X542339Y286138D02*X546945D01*
X560055D02*X564661D01*
X560055Y283579D02*X564661D01*
X560055Y281021D02*X564661D01*
G54D38*X553500Y283300D02*Y281300D01*
G54D27*X431000Y249300D02*Y246938D01*
X419190Y249300D02*Y246938D01*
X512810Y238300D02*Y235938D01*
X501000Y238300D02*Y235938D01*
X504000Y288662D02*Y286300D01*
X515810Y288662D02*Y286300D01*
X512810Y249662D02*Y247300D01*
X501000Y249662D02*Y247300D01*
X351000Y220386D02*X351786D01*
X351000Y213300D02*X351786D01*
G54D37*X254055Y278462D02*X258661D01*
X236339D02*X240945D01*
X236339Y281021D02*X240945D01*
X236339Y283579D02*X240945D01*
X236339Y286138D02*X240945D01*
X254055D02*X258661D01*
X254055Y283579D02*X258661D01*
X254055Y281021D02*X258661D01*
G54D38*X247500Y283300D02*Y281300D01*
G54D27*X125000Y249300D02*Y246938D01*
X113190Y249300D02*Y246938D01*
X206810Y238300D02*Y235938D01*
X195000Y238300D02*Y235938D01*
X198000Y288662D02*Y286300D01*
X209810Y288662D02*Y286300D01*
X206810Y249662D02*Y247300D01*
X195000Y249662D02*Y247300D01*
X45000Y220386D02*X45786D01*
X45000Y213300D02*X45786D01*
G54D37*X866055Y446462D02*X870661D01*
X848339D02*X852945D01*
X848339Y449021D02*X852945D01*
X848339Y451579D02*X852945D01*
X848339Y454138D02*X852945D01*
X866055D02*X870661D01*
X866055Y451579D02*X870661D01*
X866055Y449021D02*X870661D01*
G54D38*X859500Y451300D02*Y449300D01*
G54D27*X737000Y417300D02*Y414938D01*
X725190Y417300D02*Y414938D01*
X818810Y406300D02*Y403938D01*
X807000Y406300D02*Y403938D01*
X810000Y456662D02*Y454300D01*
X821810Y456662D02*Y454300D01*
X818810Y417662D02*Y415300D01*
X807000Y417662D02*Y415300D01*
X657000Y388386D02*X657786D01*
X657000Y381300D02*X657786D01*
G54D37*X560055Y446462D02*X564661D01*
X542339D02*X546945D01*
X542339Y449021D02*X546945D01*
X542339Y451579D02*X546945D01*
X542339Y454138D02*X546945D01*
X560055D02*X564661D01*
X560055Y451579D02*X564661D01*
X560055Y449021D02*X564661D01*
G54D38*X553500Y451300D02*Y449300D01*
G54D27*X431000Y417300D02*Y414938D01*
X419190Y417300D02*Y414938D01*
X512810Y406300D02*Y403938D01*
X501000Y406300D02*Y403938D01*
X504000Y456662D02*Y454300D01*
X515810Y456662D02*Y454300D01*
X512810Y417662D02*Y415300D01*
X501000Y417662D02*Y415300D01*
X351000Y388386D02*X351786D01*
X351000Y381300D02*X351786D01*
G54D37*X254055Y446462D02*X258661D01*
X236339D02*X240945D01*
X236339Y449021D02*X240945D01*
X236339Y451579D02*X240945D01*
X236339Y454138D02*X240945D01*
X254055D02*X258661D01*
X254055Y451579D02*X258661D01*
X254055Y449021D02*X258661D01*
G54D38*X247500Y451300D02*Y449300D01*
G54D27*X125000Y417300D02*Y414938D01*
X113190Y417300D02*Y414938D01*
X206810Y406300D02*Y403938D01*
X195000Y406300D02*Y403938D01*
X198000Y456662D02*Y454300D01*
X209810Y456662D02*Y454300D01*
X206810Y417662D02*Y415300D01*
X195000Y417662D02*Y415300D01*
X45000Y388386D02*X45786D01*
X45000Y381300D02*X45786D01*
M02*
