G04 start of page 12 for group -3984 idx -3984 *
G04 Title: (unknown), fab *
G04 Creator: pcb 20091103 *
G04 CreationDate: Чтв 05 Янв 2012 09:41:11 UTC *
G04 For: aml *
G04 Format: Gerber/RS-274X *
G04 PCB-Dimensions: 948000 534000 *
G04 PCB-Coordinate-Origin: lower left *
%MOIN*%
%FSLAX25Y25*%
%LNFAB*%
%ADD11C,0.0200*%
%ADD12C,0.0100*%
%ADD57C,0.0060*%
%ADD58R,0.0080X0.0080*%
G54D58*X811700Y55100D02*X814900D01*
X811700D02*Y51900D01*
X814900D01*
Y55100D02*Y51900D01*
X810100Y56700D02*X816500D01*
X810100D02*Y50300D01*
X816500D01*
Y56700D02*Y50300D01*
X908900Y55100D02*X912100D01*
X908900D02*Y51900D01*
X912100D01*
Y55100D02*Y51900D01*
X907300Y56700D02*X913700D01*
X907300D02*Y50300D01*
X913700D01*
Y56700D02*Y50300D01*
X505700Y55100D02*X508900D01*
X505700D02*Y51900D01*
X508900D01*
Y55100D02*Y51900D01*
X504100Y56700D02*X510500D01*
X504100D02*Y50300D01*
X510500D01*
Y56700D02*Y50300D01*
X602900Y55100D02*X606100D01*
X602900D02*Y51900D01*
X606100D01*
Y55100D02*Y51900D01*
X601300Y56700D02*X607700D01*
X601300D02*Y50300D01*
X607700D01*
Y56700D02*Y50300D01*
X13400Y546850D02*X16600D01*
X13400D02*Y543650D01*
X16600D01*
Y546850D02*Y543650D01*
X11800Y548450D02*X18200D01*
X11800D02*Y542050D01*
X18200D01*
Y548450D02*Y542050D01*
G54D57*X135000Y547500D02*Y546750D01*
X136500Y545250D01*
X138000Y546750D01*
Y547500D02*Y546750D01*
X136500Y545250D02*Y541500D01*
X139801Y544500D02*X142051D01*
X139801Y541500D02*X142801D01*
X139801Y547500D02*Y541500D01*
Y547500D02*X142801D01*
X147603D02*X148353Y546750D01*
X145353Y547500D02*X147603D01*
X144603Y546750D02*X145353Y547500D01*
X144603Y546750D02*Y545250D01*
X145353Y544500D01*
X147603D01*
X148353Y543750D01*
Y542250D01*
X147603Y541500D02*X148353Y542250D01*
X145353Y541500D02*X147603D01*
X144603Y542250D02*X145353Y541500D01*
X135000Y538249D02*X150154D01*
X98000Y544500D02*X101000Y547500D01*
X98000Y544500D02*X101750D01*
X101000Y547500D02*Y541500D01*
X98000Y538249D02*X103551D01*
X45000Y542250D02*X45750Y541500D01*
X45000Y546750D02*Y542250D01*
Y546750D02*X45750Y547500D01*
X47250D01*
X48000Y546750D01*
Y542250D01*
X47250Y541500D02*X48000Y542250D01*
X45750Y541500D02*X47250D01*
X45000Y543000D02*X48000Y546000D01*
X49801Y541500D02*X50551D01*
X53103D02*X54603D01*
X53853Y547500D02*Y541500D01*
X52353Y546000D02*X53853Y547500D01*
X56404Y546750D02*X57154Y547500D01*
X59404D01*
X60154Y546750D01*
Y545250D01*
X56404Y541500D02*X60154Y545250D01*
X56404Y541500D02*X60154D01*
X61956Y547500D02*X64956D01*
X61956D02*Y544500D01*
X62706Y545250D01*
X64206D01*
X64956Y544500D01*
Y542250D01*
X64206Y541500D02*X64956Y542250D01*
X62706Y541500D02*X64206D01*
X61956Y542250D02*X62706Y541500D01*
X45000Y538249D02*X66757D01*
X637200Y177000D02*G75*G03X638800Y177000I800J0D01*G01*
G75*G03X637200Y177000I-800J0D01*G01*
X635600D02*G75*G03X640400Y177000I2400J0D01*G01*
G75*G03X635600Y177000I-2400J0D01*G01*
X657200Y157000D02*G75*G03X658800Y157000I800J0D01*G01*
G75*G03X657200Y157000I-800J0D01*G01*
X655600D02*G75*G03X660400Y157000I2400J0D01*G01*
G75*G03X655600Y157000I-2400J0D01*G01*
X637200D02*G75*G03X638800Y157000I800J0D01*G01*
G75*G03X637200Y157000I-800J0D01*G01*
X635600D02*G75*G03X640400Y157000I2400J0D01*G01*
G75*G03X635600Y157000I-2400J0D01*G01*
X657200Y177000D02*G75*G03X658800Y177000I800J0D01*G01*
G75*G03X657200Y177000I-800J0D01*G01*
X655600D02*G75*G03X660400Y177000I2400J0D01*G01*
G75*G03X655600Y177000I-2400J0D01*G01*
X331200D02*G75*G03X332800Y177000I800J0D01*G01*
G75*G03X331200Y177000I-800J0D01*G01*
X329600D02*G75*G03X334400Y177000I2400J0D01*G01*
G75*G03X329600Y177000I-2400J0D01*G01*
X351200Y157000D02*G75*G03X352800Y157000I800J0D01*G01*
G75*G03X351200Y157000I-800J0D01*G01*
X349600D02*G75*G03X354400Y157000I2400J0D01*G01*
G75*G03X349600Y157000I-2400J0D01*G01*
X331200D02*G75*G03X332800Y157000I800J0D01*G01*
G75*G03X331200Y157000I-800J0D01*G01*
X329600D02*G75*G03X334400Y157000I2400J0D01*G01*
G75*G03X329600Y157000I-2400J0D01*G01*
X351200Y177000D02*G75*G03X352800Y177000I800J0D01*G01*
G75*G03X351200Y177000I-800J0D01*G01*
X349600D02*G75*G03X354400Y177000I2400J0D01*G01*
G75*G03X349600Y177000I-2400J0D01*G01*
X41200Y179300D02*G75*G03X42800Y179300I800J0D01*G01*
G75*G03X41200Y179300I-800J0D01*G01*
X39600D02*G75*G03X44400Y179300I2400J0D01*G01*
G75*G03X39600Y179300I-2400J0D01*G01*
X61200Y159300D02*G75*G03X62800Y159300I800J0D01*G01*
G75*G03X61200Y159300I-800J0D01*G01*
X59600D02*G75*G03X64400Y159300I2400J0D01*G01*
G75*G03X59600Y159300I-2400J0D01*G01*
X41200D02*G75*G03X42800Y159300I800J0D01*G01*
G75*G03X41200Y159300I-800J0D01*G01*
X39600D02*G75*G03X44400Y159300I2400J0D01*G01*
G75*G03X39600Y159300I-2400J0D01*G01*
X61200Y179300D02*G75*G03X62800Y179300I800J0D01*G01*
G75*G03X61200Y179300I-800J0D01*G01*
X59600D02*G75*G03X64400Y179300I2400J0D01*G01*
G75*G03X59600Y179300I-2400J0D01*G01*
X653200Y347300D02*G75*G03X654800Y347300I800J0D01*G01*
G75*G03X653200Y347300I-800J0D01*G01*
X651600D02*G75*G03X656400Y347300I2400J0D01*G01*
G75*G03X651600Y347300I-2400J0D01*G01*
X673200Y327300D02*G75*G03X674800Y327300I800J0D01*G01*
G75*G03X673200Y327300I-800J0D01*G01*
X671600D02*G75*G03X676400Y327300I2400J0D01*G01*
G75*G03X671600Y327300I-2400J0D01*G01*
X653200D02*G75*G03X654800Y327300I800J0D01*G01*
G75*G03X653200Y327300I-800J0D01*G01*
X651600D02*G75*G03X656400Y327300I2400J0D01*G01*
G75*G03X651600Y327300I-2400J0D01*G01*
X673200Y347300D02*G75*G03X674800Y347300I800J0D01*G01*
G75*G03X673200Y347300I-800J0D01*G01*
X671600D02*G75*G03X676400Y347300I2400J0D01*G01*
G75*G03X671600Y347300I-2400J0D01*G01*
X347200D02*G75*G03X348800Y347300I800J0D01*G01*
G75*G03X347200Y347300I-800J0D01*G01*
X345600D02*G75*G03X350400Y347300I2400J0D01*G01*
G75*G03X345600Y347300I-2400J0D01*G01*
X367200Y327300D02*G75*G03X368800Y327300I800J0D01*G01*
G75*G03X367200Y327300I-800J0D01*G01*
X365600D02*G75*G03X370400Y327300I2400J0D01*G01*
G75*G03X365600Y327300I-2400J0D01*G01*
X347200D02*G75*G03X348800Y327300I800J0D01*G01*
G75*G03X347200Y327300I-800J0D01*G01*
X345600D02*G75*G03X350400Y327300I2400J0D01*G01*
G75*G03X345600Y327300I-2400J0D01*G01*
X367200Y347300D02*G75*G03X368800Y347300I800J0D01*G01*
G75*G03X367200Y347300I-800J0D01*G01*
X365600D02*G75*G03X370400Y347300I2400J0D01*G01*
G75*G03X365600Y347300I-2400J0D01*G01*
X41200D02*G75*G03X42800Y347300I800J0D01*G01*
G75*G03X41200Y347300I-800J0D01*G01*
X39600D02*G75*G03X44400Y347300I2400J0D01*G01*
G75*G03X39600Y347300I-2400J0D01*G01*
X61200Y327300D02*G75*G03X62800Y327300I800J0D01*G01*
G75*G03X61200Y327300I-800J0D01*G01*
X59600D02*G75*G03X64400Y327300I2400J0D01*G01*
G75*G03X59600Y327300I-2400J0D01*G01*
X41200D02*G75*G03X42800Y327300I800J0D01*G01*
G75*G03X41200Y327300I-800J0D01*G01*
X39600D02*G75*G03X44400Y327300I2400J0D01*G01*
G75*G03X39600Y327300I-2400J0D01*G01*
X61200Y347300D02*G75*G03X62800Y347300I800J0D01*G01*
G75*G03X61200Y347300I-800J0D01*G01*
X59600D02*G75*G03X64400Y347300I2400J0D01*G01*
G75*G03X59600Y347300I-2400J0D01*G01*
X653200Y515300D02*G75*G03X654800Y515300I800J0D01*G01*
G75*G03X653200Y515300I-800J0D01*G01*
X651600D02*G75*G03X656400Y515300I2400J0D01*G01*
G75*G03X651600Y515300I-2400J0D01*G01*
X673200Y495300D02*G75*G03X674800Y495300I800J0D01*G01*
G75*G03X673200Y495300I-800J0D01*G01*
X671600D02*G75*G03X676400Y495300I2400J0D01*G01*
G75*G03X671600Y495300I-2400J0D01*G01*
X653200D02*G75*G03X654800Y495300I800J0D01*G01*
G75*G03X653200Y495300I-800J0D01*G01*
X651600D02*G75*G03X656400Y495300I2400J0D01*G01*
G75*G03X651600Y495300I-2400J0D01*G01*
X673200Y515300D02*G75*G03X674800Y515300I800J0D01*G01*
G75*G03X673200Y515300I-800J0D01*G01*
X671600D02*G75*G03X676400Y515300I2400J0D01*G01*
G75*G03X671600Y515300I-2400J0D01*G01*
X347200D02*G75*G03X348800Y515300I800J0D01*G01*
G75*G03X347200Y515300I-800J0D01*G01*
X345600D02*G75*G03X350400Y515300I2400J0D01*G01*
G75*G03X345600Y515300I-2400J0D01*G01*
X367200Y495300D02*G75*G03X368800Y495300I800J0D01*G01*
G75*G03X367200Y495300I-800J0D01*G01*
X365600D02*G75*G03X370400Y495300I2400J0D01*G01*
G75*G03X365600Y495300I-2400J0D01*G01*
X347200D02*G75*G03X348800Y495300I800J0D01*G01*
G75*G03X347200Y495300I-800J0D01*G01*
X345600D02*G75*G03X350400Y495300I2400J0D01*G01*
G75*G03X345600Y495300I-2400J0D01*G01*
X367200Y515300D02*G75*G03X368800Y515300I800J0D01*G01*
G75*G03X367200Y515300I-800J0D01*G01*
X365600D02*G75*G03X370400Y515300I2400J0D01*G01*
G75*G03X365600Y515300I-2400J0D01*G01*
X41200D02*G75*G03X42800Y515300I800J0D01*G01*
G75*G03X41200Y515300I-800J0D01*G01*
X39600D02*G75*G03X44400Y515300I2400J0D01*G01*
G75*G03X39600Y515300I-2400J0D01*G01*
X61200Y495300D02*G75*G03X62800Y495300I800J0D01*G01*
G75*G03X61200Y495300I-800J0D01*G01*
X59600D02*G75*G03X64400Y495300I2400J0D01*G01*
G75*G03X59600Y495300I-2400J0D01*G01*
X41200D02*G75*G03X42800Y495300I800J0D01*G01*
G75*G03X41200Y495300I-800J0D01*G01*
X39600D02*G75*G03X44400Y495300I2400J0D01*G01*
G75*G03X39600Y495300I-2400J0D01*G01*
X61200Y515300D02*G75*G03X62800Y515300I800J0D01*G01*
G75*G03X61200Y515300I-800J0D01*G01*
X59600D02*G75*G03X64400Y515300I2400J0D01*G01*
G75*G03X59600Y515300I-2400J0D01*G01*
X14200Y560250D02*G75*G03X15800Y560250I800J0D01*G01*
G75*G03X14200Y560250I-800J0D01*G01*
X12600D02*G75*G03X17400Y560250I2400J0D01*G01*
G75*G03X12600Y560250I-2400J0D01*G01*
X135000Y562500D02*Y561750D01*
X136500Y560250D01*
X138000Y561750D01*
Y562500D02*Y561750D01*
X136500Y560250D02*Y556500D01*
X139801Y559500D02*X142051D01*
X139801Y556500D02*X142801D01*
X139801Y562500D02*Y556500D01*
Y562500D02*X142801D01*
X147603D02*X148353Y561750D01*
X145353Y562500D02*X147603D01*
X144603Y561750D02*X145353Y562500D01*
X144603Y561750D02*Y560250D01*
X145353Y559500D01*
X147603D01*
X148353Y558750D01*
Y557250D01*
X147603Y556500D02*X148353Y557250D01*
X145353Y556500D02*X147603D01*
X144603Y557250D02*X145353Y556500D01*
X135000Y553249D02*X150154D01*
X98000Y561750D02*X98750Y562500D01*
X100250D01*
X101000Y561750D01*
Y557250D01*
X100250Y556500D02*X101000Y557250D01*
X98750Y556500D02*X100250D01*
X98000Y557250D02*X98750Y556500D01*
Y559500D02*X101000D01*
X105051Y562500D02*X105801Y561750D01*
X103551Y562500D02*X105051D01*
X102801Y561750D02*X103551Y562500D01*
X102801Y561750D02*Y557250D01*
X103551Y556500D01*
X105051Y559500D02*X105801Y558750D01*
X102801Y559500D02*X105051D01*
X103551Y556500D02*X105051D01*
X105801Y557250D01*
Y558750D02*Y557250D01*
X98000Y553249D02*X107603D01*
X45000Y557250D02*X45750Y556500D01*
X45000Y561750D02*Y557250D01*
Y561750D02*X45750Y562500D01*
X47250D01*
X48000Y561750D01*
Y557250D01*
X47250Y556500D02*X48000Y557250D01*
X45750Y556500D02*X47250D01*
X45000Y558000D02*X48000Y561000D01*
X49801Y556500D02*X50551D01*
X52353Y557250D02*X53103Y556500D01*
X52353Y561750D02*Y557250D01*
Y561750D02*X53103Y562500D01*
X54603D01*
X55353Y561750D01*
Y557250D01*
X54603Y556500D02*X55353Y557250D01*
X53103Y556500D02*X54603D01*
X52353Y558000D02*X55353Y561000D01*
X59404Y562500D02*X60154Y561750D01*
X57904Y562500D02*X59404D01*
X57154Y561750D02*X57904Y562500D01*
X57154Y561750D02*Y557250D01*
X57904Y556500D01*
X59404Y559500D02*X60154Y558750D01*
X57154Y559500D02*X59404D01*
X57904Y556500D02*X59404D01*
X60154Y557250D01*
Y558750D02*Y557250D01*
X61956D02*X62706Y556500D01*
X61956Y561750D02*Y557250D01*
Y561750D02*X62706Y562500D01*
X64206D01*
X64956Y561750D01*
Y557250D01*
X64206Y556500D02*X64956Y557250D01*
X62706Y556500D02*X64206D01*
X61956Y558000D02*X64956Y561000D01*
X45000Y553249D02*X66757D01*
X645600Y169400D02*X650400Y164600D01*
X645600D02*X650400Y169400D01*
X646400Y168600D02*X649600D01*
X646400D02*Y165400D01*
X649600D01*
Y168600D02*Y165400D01*
X339600Y169400D02*X344400Y164600D01*
X339600D02*X344400Y169400D01*
X340400Y168600D02*X343600D01*
X340400D02*Y165400D01*
X343600D01*
Y168600D02*Y165400D01*
X49600Y171700D02*X54400Y166900D01*
X49600D02*X54400Y171700D01*
X50400Y170900D02*X53600D01*
X50400D02*Y167700D01*
X53600D01*
Y170900D02*Y167700D01*
X661600Y339700D02*X666400Y334900D01*
X661600D02*X666400Y339700D01*
X662400Y338900D02*X665600D01*
X662400D02*Y335700D01*
X665600D01*
Y338900D02*Y335700D01*
X355600Y339700D02*X360400Y334900D01*
X355600D02*X360400Y339700D01*
X356400Y338900D02*X359600D01*
X356400D02*Y335700D01*
X359600D01*
Y338900D02*Y335700D01*
X49600Y339700D02*X54400Y334900D01*
X49600D02*X54400Y339700D01*
X50400Y338900D02*X53600D01*
X50400D02*Y335700D01*
X53600D01*
Y338900D02*Y335700D01*
X661600Y507700D02*X666400Y502900D01*
X661600D02*X666400Y507700D01*
X662400Y506900D02*X665600D01*
X662400D02*Y503700D01*
X665600D01*
Y506900D02*Y503700D01*
X355600Y507700D02*X360400Y502900D01*
X355600D02*X360400Y507700D01*
X356400Y506900D02*X359600D01*
X356400D02*Y503700D01*
X359600D01*
Y506900D02*Y503700D01*
X49600Y507700D02*X54400Y502900D01*
X49600D02*X54400Y507700D01*
X50400Y506900D02*X53600D01*
X50400D02*Y503700D01*
X53600D01*
Y506900D02*Y503700D01*
X12600Y577650D02*X17400Y572850D01*
X12600D02*X17400Y577650D01*
X13400Y576850D02*X16600D01*
X13400D02*Y573650D01*
X16600D01*
Y576850D02*Y573650D01*
X135000Y577500D02*Y576750D01*
X136500Y575250D01*
X138000Y576750D01*
Y577500D02*Y576750D01*
X136500Y575250D02*Y571500D01*
X139801Y574500D02*X142051D01*
X139801Y571500D02*X142801D01*
X139801Y577500D02*Y571500D01*
Y577500D02*X142801D01*
X147603D02*X148353Y576750D01*
X145353Y577500D02*X147603D01*
X144603Y576750D02*X145353Y577500D01*
X144603Y576750D02*Y575250D01*
X145353Y574500D01*
X147603D01*
X148353Y573750D01*
Y572250D01*
X147603Y571500D02*X148353Y572250D01*
X145353Y571500D02*X147603D01*
X144603Y572250D02*X145353Y571500D01*
X135000Y568249D02*X150154D01*
X98000Y571500D02*X101000Y574500D01*
Y576750D02*Y574500D01*
X100250Y577500D02*X101000Y576750D01*
X98750Y577500D02*X100250D01*
X98000Y576750D02*X98750Y577500D01*
X98000Y576750D02*Y575250D01*
X98750Y574500D01*
X101000D01*
X98000Y568249D02*X102801D01*
X45000Y572250D02*X45750Y571500D01*
X45000Y576750D02*Y572250D01*
Y576750D02*X45750Y577500D01*
X47250D01*
X48000Y576750D01*
Y572250D01*
X47250Y571500D02*X48000Y572250D01*
X45750Y571500D02*X47250D01*
X45000Y573000D02*X48000Y576000D01*
X49801Y571500D02*X50551D01*
X52353Y572250D02*X53103Y571500D01*
X52353Y576750D02*Y572250D01*
Y576750D02*X53103Y577500D01*
X54603D01*
X55353Y576750D01*
Y572250D01*
X54603Y571500D02*X55353Y572250D01*
X53103Y571500D02*X54603D01*
X52353Y573000D02*X55353Y576000D01*
X57154Y577500D02*X60154D01*
X57154D02*Y574500D01*
X57904Y575250D01*
X59404D01*
X60154Y574500D01*
Y572250D01*
X59404Y571500D02*X60154Y572250D01*
X57904Y571500D02*X59404D01*
X57154Y572250D02*X57904Y571500D01*
X61956Y572250D02*X62706Y571500D01*
X61956Y576750D02*Y572250D01*
Y576750D02*X62706Y577500D01*
X64206D01*
X64956Y576750D01*
Y572250D01*
X64206Y571500D02*X64956Y572250D01*
X62706Y571500D02*X64206D01*
X61956Y573000D02*X64956Y576000D01*
X45000Y568249D02*X66757D01*
X299000Y516500D02*Y510100D01*
X295800Y513300D02*X302200D01*
X297400Y514900D02*X300600D01*
X297400D02*Y511700D01*
X300600D01*
Y514900D02*Y511700D01*
X605000Y516500D02*Y510100D01*
X601800Y513300D02*X608200D01*
X603400Y514900D02*X606600D01*
X603400D02*Y511700D01*
X606600D01*
Y514900D02*Y511700D01*
X911000Y516500D02*Y510100D01*
X907800Y513300D02*X914200D01*
X909400Y514900D02*X912600D01*
X909400D02*Y511700D01*
X912600D01*
Y514900D02*Y511700D01*
X299000Y348500D02*Y342100D01*
X295800Y345300D02*X302200D01*
X297400Y346900D02*X300600D01*
X297400D02*Y343700D01*
X300600D01*
Y346900D02*Y343700D01*
X605000Y348500D02*Y342100D01*
X601800Y345300D02*X608200D01*
X603400Y346900D02*X606600D01*
X603400D02*Y343700D01*
X606600D01*
Y346900D02*Y343700D01*
X911000Y348500D02*Y342100D01*
X907800Y345300D02*X914200D01*
X909400Y346900D02*X912600D01*
X909400D02*Y343700D01*
X912600D01*
Y346900D02*Y343700D01*
X299000Y180500D02*Y174100D01*
X295800Y177300D02*X302200D01*
X297400Y178900D02*X300600D01*
X297400D02*Y175700D01*
X300600D01*
Y178900D02*Y175700D01*
X15000Y593450D02*Y587050D01*
X11800Y590250D02*X18200D01*
X13400Y591850D02*X16600D01*
X13400D02*Y588650D01*
X16600D01*
Y591850D02*Y588650D01*
X135000Y592500D02*Y591750D01*
X136500Y590250D01*
X138000Y591750D01*
Y592500D02*Y591750D01*
X136500Y590250D02*Y586500D01*
X139801Y589500D02*X142051D01*
X139801Y586500D02*X142801D01*
X139801Y592500D02*Y586500D01*
Y592500D02*X142801D01*
X147603D02*X148353Y591750D01*
X145353Y592500D02*X147603D01*
X144603Y591750D02*X145353Y592500D01*
X144603Y591750D02*Y590250D01*
X145353Y589500D01*
X147603D01*
X148353Y588750D01*
Y587250D01*
X147603Y586500D02*X148353Y587250D01*
X145353Y586500D02*X147603D01*
X144603Y587250D02*X145353Y586500D01*
X135000Y583249D02*X150154D01*
X98000Y586500D02*X101750Y590250D01*
Y592500D02*Y590250D01*
X98000Y592500D02*X101750D01*
X98000Y583249D02*X103551D01*
X45000Y587250D02*X45750Y586500D01*
X45000Y591750D02*Y587250D01*
Y591750D02*X45750Y592500D01*
X47250D01*
X48000Y591750D01*
Y587250D01*
X47250Y586500D02*X48000Y587250D01*
X45750Y586500D02*X47250D01*
X45000Y588000D02*X48000Y591000D01*
X49801Y586500D02*X50551D01*
X52353Y587250D02*X53103Y586500D01*
X52353Y591750D02*Y587250D01*
Y591750D02*X53103Y592500D01*
X54603D01*
X55353Y591750D01*
Y587250D01*
X54603Y586500D02*X55353Y587250D01*
X53103Y586500D02*X54603D01*
X52353Y588000D02*X55353Y591000D01*
X57154Y589500D02*X60154Y592500D01*
X57154Y589500D02*X60904D01*
X60154Y592500D02*Y586500D01*
X62706Y592500D02*X65706D01*
X62706D02*Y589500D01*
X63456Y590250D01*
X64956D01*
X65706Y589500D01*
Y587250D01*
X64956Y586500D02*X65706Y587250D01*
X63456Y586500D02*X64956D01*
X62706Y587250D02*X63456Y586500D01*
X45000Y583249D02*X67507D01*
X749000Y27000D02*Y23800D01*
Y27000D02*X751773Y28600D01*
X749000Y27000D02*X746227Y28600D01*
X747400Y27000D02*G75*G03X750600Y27000I1600J0D01*G01*
G75*G03X747400Y27000I-1600J0D01*G01*
X739000D02*Y23800D01*
Y27000D02*X741773Y28600D01*
X739000Y27000D02*X736227Y28600D01*
X737400Y27000D02*G75*G03X740600Y27000I1600J0D01*G01*
G75*G03X737400Y27000I-1600J0D01*G01*
X729000D02*Y23800D01*
Y27000D02*X731773Y28600D01*
X729000Y27000D02*X726227Y28600D01*
X727400Y27000D02*G75*G03X730600Y27000I1600J0D01*G01*
G75*G03X727400Y27000I-1600J0D01*G01*
X719000D02*Y23800D01*
Y27000D02*X721773Y28600D01*
X719000Y27000D02*X716227Y28600D01*
X717400Y27000D02*G75*G03X720600Y27000I1600J0D01*G01*
G75*G03X717400Y27000I-1600J0D01*G01*
X709000D02*Y23800D01*
Y27000D02*X711773Y28600D01*
X709000Y27000D02*X706227Y28600D01*
X707400Y27000D02*G75*G03X710600Y27000I1600J0D01*G01*
G75*G03X707400Y27000I-1600J0D01*G01*
X699000D02*Y23800D01*
Y27000D02*X701773Y28600D01*
X699000Y27000D02*X696227Y28600D01*
X697400Y27000D02*G75*G03X700600Y27000I1600J0D01*G01*
G75*G03X697400Y27000I-1600J0D01*G01*
X680190Y173190D02*Y169990D01*
Y173190D02*X682963Y174790D01*
X680190Y173190D02*X677417Y174790D01*
X678590Y173190D02*G75*G03X681790Y173190I1600J0D01*G01*
G75*G03X678590Y173190I-1600J0D01*G01*
X680190Y163190D02*Y159990D01*
Y163190D02*X682963Y164790D01*
X680190Y163190D02*X677417Y164790D01*
X678590Y163190D02*G75*G03X681790Y163190I1600J0D01*G01*
G75*G03X678590Y163190I-1600J0D01*G01*
X680190Y153190D02*Y149990D01*
Y153190D02*X682963Y154790D01*
X680190Y153190D02*X677417Y154790D01*
X678590Y153190D02*G75*G03X681790Y153190I1600J0D01*G01*
G75*G03X678590Y153190I-1600J0D01*G01*
X842000Y165000D02*Y161800D01*
Y165000D02*X844773Y166600D01*
X842000Y165000D02*X839227Y166600D01*
X840400Y165000D02*G75*G03X843600Y165000I1600J0D01*G01*
G75*G03X840400Y165000I-1600J0D01*G01*
X842000Y175000D02*Y171800D01*
Y175000D02*X844773Y176600D01*
X842000Y175000D02*X839227Y176600D01*
X840400Y175000D02*G75*G03X843600Y175000I1600J0D01*G01*
G75*G03X840400Y175000I-1600J0D01*G01*
X832000Y165000D02*Y161800D01*
Y165000D02*X834773Y166600D01*
X832000Y165000D02*X829227Y166600D01*
X830400Y165000D02*G75*G03X833600Y165000I1600J0D01*G01*
G75*G03X830400Y165000I-1600J0D01*G01*
X832000Y175000D02*Y171800D01*
Y175000D02*X834773Y176600D01*
X832000Y175000D02*X829227Y176600D01*
X830400Y175000D02*G75*G03X833600Y175000I1600J0D01*G01*
G75*G03X830400Y175000I-1600J0D01*G01*
X822000Y165000D02*Y161800D01*
Y165000D02*X824773Y166600D01*
X822000Y165000D02*X819227Y166600D01*
X820400Y165000D02*G75*G03X823600Y165000I1600J0D01*G01*
G75*G03X820400Y165000I-1600J0D01*G01*
X822000Y175000D02*Y171800D01*
Y175000D02*X824773Y176600D01*
X822000Y175000D02*X819227Y176600D01*
X820400Y175000D02*G75*G03X823600Y175000I1600J0D01*G01*
G75*G03X820400Y175000I-1600J0D01*G01*
X812000Y165000D02*Y161800D01*
Y165000D02*X814773Y166600D01*
X812000Y165000D02*X809227Y166600D01*
X810400Y165000D02*G75*G03X813600Y165000I1600J0D01*G01*
G75*G03X810400Y165000I-1600J0D01*G01*
X812000Y175000D02*Y171800D01*
Y175000D02*X814773Y176600D01*
X812000Y175000D02*X809227Y176600D01*
X810400Y175000D02*G75*G03X813600Y175000I1600J0D01*G01*
G75*G03X810400Y175000I-1600J0D01*G01*
X802000Y165000D02*Y161800D01*
Y165000D02*X804773Y166600D01*
X802000Y165000D02*X799227Y166600D01*
X800400Y165000D02*G75*G03X803600Y165000I1600J0D01*G01*
G75*G03X800400Y165000I-1600J0D01*G01*
X802000Y175000D02*Y171800D01*
Y175000D02*X804773Y176600D01*
X802000Y175000D02*X799227Y176600D01*
X800400Y175000D02*G75*G03X803600Y175000I1600J0D01*G01*
G75*G03X800400Y175000I-1600J0D01*G01*
X792000Y165000D02*Y161800D01*
Y165000D02*X794773Y166600D01*
X792000Y165000D02*X789227Y166600D01*
X790400Y165000D02*G75*G03X793600Y165000I1600J0D01*G01*
G75*G03X790400Y165000I-1600J0D01*G01*
X792000Y175000D02*Y171800D01*
Y175000D02*X794773Y176600D01*
X792000Y175000D02*X789227Y176600D01*
X790400Y175000D02*G75*G03X793600Y175000I1600J0D01*G01*
G75*G03X790400Y175000I-1600J0D01*G01*
X782000Y165000D02*Y161800D01*
Y165000D02*X784773Y166600D01*
X782000Y165000D02*X779227Y166600D01*
X780400Y165000D02*G75*G03X783600Y165000I1600J0D01*G01*
G75*G03X780400Y165000I-1600J0D01*G01*
X782000Y175000D02*Y171800D01*
Y175000D02*X784773Y176600D01*
X782000Y175000D02*X779227Y176600D01*
X780400Y175000D02*G75*G03X783600Y175000I1600J0D01*G01*
G75*G03X780400Y175000I-1600J0D01*G01*
X772000Y165000D02*Y161800D01*
Y165000D02*X774773Y166600D01*
X772000Y165000D02*X769227Y166600D01*
X770400Y165000D02*G75*G03X773600Y165000I1600J0D01*G01*
G75*G03X770400Y165000I-1600J0D01*G01*
X772000Y175000D02*Y171800D01*
Y175000D02*X774773Y176600D01*
X772000Y175000D02*X769227Y176600D01*
X770400Y175000D02*G75*G03X773600Y175000I1600J0D01*G01*
G75*G03X770400Y175000I-1600J0D01*G01*
X826500Y137500D02*Y134300D01*
Y137500D02*X829273Y139100D01*
X826500Y137500D02*X823727Y139100D01*
X824900Y137500D02*G75*G03X828100Y137500I1600J0D01*G01*
G75*G03X824900Y137500I-1600J0D01*G01*
X816500D02*Y134300D01*
Y137500D02*X819273Y139100D01*
X816500Y137500D02*X813727Y139100D01*
X814900Y137500D02*G75*G03X818100Y137500I1600J0D01*G01*
G75*G03X814900Y137500I-1600J0D01*G01*
X808319Y78733D02*Y75533D01*
Y78733D02*X811092Y80333D01*
X808319Y78733D02*X805546Y80333D01*
X806719Y78733D02*G75*G03X809919Y78733I1600J0D01*G01*
G75*G03X806719Y78733I-1600J0D01*G01*
X818319D02*Y75533D01*
Y78733D02*X821092Y80333D01*
X818319Y78733D02*X815546Y80333D01*
X816719Y78733D02*G75*G03X819919Y78733I1600J0D01*G01*
G75*G03X816719Y78733I-1600J0D01*G01*
X443000Y27000D02*Y23800D01*
Y27000D02*X445773Y28600D01*
X443000Y27000D02*X440227Y28600D01*
X441400Y27000D02*G75*G03X444600Y27000I1600J0D01*G01*
G75*G03X441400Y27000I-1600J0D01*G01*
X433000D02*Y23800D01*
Y27000D02*X435773Y28600D01*
X433000Y27000D02*X430227Y28600D01*
X431400Y27000D02*G75*G03X434600Y27000I1600J0D01*G01*
G75*G03X431400Y27000I-1600J0D01*G01*
X423000D02*Y23800D01*
Y27000D02*X425773Y28600D01*
X423000Y27000D02*X420227Y28600D01*
X421400Y27000D02*G75*G03X424600Y27000I1600J0D01*G01*
G75*G03X421400Y27000I-1600J0D01*G01*
X413000D02*Y23800D01*
Y27000D02*X415773Y28600D01*
X413000Y27000D02*X410227Y28600D01*
X411400Y27000D02*G75*G03X414600Y27000I1600J0D01*G01*
G75*G03X411400Y27000I-1600J0D01*G01*
X403000D02*Y23800D01*
Y27000D02*X405773Y28600D01*
X403000Y27000D02*X400227Y28600D01*
X401400Y27000D02*G75*G03X404600Y27000I1600J0D01*G01*
G75*G03X401400Y27000I-1600J0D01*G01*
X393000D02*Y23800D01*
Y27000D02*X395773Y28600D01*
X393000Y27000D02*X390227Y28600D01*
X391400Y27000D02*G75*G03X394600Y27000I1600J0D01*G01*
G75*G03X391400Y27000I-1600J0D01*G01*
X374190Y173190D02*Y169990D01*
Y173190D02*X376963Y174790D01*
X374190Y173190D02*X371417Y174790D01*
X372590Y173190D02*G75*G03X375790Y173190I1600J0D01*G01*
G75*G03X372590Y173190I-1600J0D01*G01*
X374190Y163190D02*Y159990D01*
Y163190D02*X376963Y164790D01*
X374190Y163190D02*X371417Y164790D01*
X372590Y163190D02*G75*G03X375790Y163190I1600J0D01*G01*
G75*G03X372590Y163190I-1600J0D01*G01*
X374190Y153190D02*Y149990D01*
Y153190D02*X376963Y154790D01*
X374190Y153190D02*X371417Y154790D01*
X372590Y153190D02*G75*G03X375790Y153190I1600J0D01*G01*
G75*G03X372590Y153190I-1600J0D01*G01*
X536000Y165000D02*Y161800D01*
Y165000D02*X538773Y166600D01*
X536000Y165000D02*X533227Y166600D01*
X534400Y165000D02*G75*G03X537600Y165000I1600J0D01*G01*
G75*G03X534400Y165000I-1600J0D01*G01*
X536000Y175000D02*Y171800D01*
Y175000D02*X538773Y176600D01*
X536000Y175000D02*X533227Y176600D01*
X534400Y175000D02*G75*G03X537600Y175000I1600J0D01*G01*
G75*G03X534400Y175000I-1600J0D01*G01*
X526000Y165000D02*Y161800D01*
Y165000D02*X528773Y166600D01*
X526000Y165000D02*X523227Y166600D01*
X524400Y165000D02*G75*G03X527600Y165000I1600J0D01*G01*
G75*G03X524400Y165000I-1600J0D01*G01*
X526000Y175000D02*Y171800D01*
Y175000D02*X528773Y176600D01*
X526000Y175000D02*X523227Y176600D01*
X524400Y175000D02*G75*G03X527600Y175000I1600J0D01*G01*
G75*G03X524400Y175000I-1600J0D01*G01*
X516000Y165000D02*Y161800D01*
Y165000D02*X518773Y166600D01*
X516000Y165000D02*X513227Y166600D01*
X514400Y165000D02*G75*G03X517600Y165000I1600J0D01*G01*
G75*G03X514400Y165000I-1600J0D01*G01*
X516000Y175000D02*Y171800D01*
Y175000D02*X518773Y176600D01*
X516000Y175000D02*X513227Y176600D01*
X514400Y175000D02*G75*G03X517600Y175000I1600J0D01*G01*
G75*G03X514400Y175000I-1600J0D01*G01*
X506000Y165000D02*Y161800D01*
Y165000D02*X508773Y166600D01*
X506000Y165000D02*X503227Y166600D01*
X504400Y165000D02*G75*G03X507600Y165000I1600J0D01*G01*
G75*G03X504400Y165000I-1600J0D01*G01*
X506000Y175000D02*Y171800D01*
Y175000D02*X508773Y176600D01*
X506000Y175000D02*X503227Y176600D01*
X504400Y175000D02*G75*G03X507600Y175000I1600J0D01*G01*
G75*G03X504400Y175000I-1600J0D01*G01*
X496000Y165000D02*Y161800D01*
Y165000D02*X498773Y166600D01*
X496000Y165000D02*X493227Y166600D01*
X494400Y165000D02*G75*G03X497600Y165000I1600J0D01*G01*
G75*G03X494400Y165000I-1600J0D01*G01*
X496000Y175000D02*Y171800D01*
Y175000D02*X498773Y176600D01*
X496000Y175000D02*X493227Y176600D01*
X494400Y175000D02*G75*G03X497600Y175000I1600J0D01*G01*
G75*G03X494400Y175000I-1600J0D01*G01*
X486000Y165000D02*Y161800D01*
Y165000D02*X488773Y166600D01*
X486000Y165000D02*X483227Y166600D01*
X484400Y165000D02*G75*G03X487600Y165000I1600J0D01*G01*
G75*G03X484400Y165000I-1600J0D01*G01*
X486000Y175000D02*Y171800D01*
Y175000D02*X488773Y176600D01*
X486000Y175000D02*X483227Y176600D01*
X484400Y175000D02*G75*G03X487600Y175000I1600J0D01*G01*
G75*G03X484400Y175000I-1600J0D01*G01*
X476000Y165000D02*Y161800D01*
Y165000D02*X478773Y166600D01*
X476000Y165000D02*X473227Y166600D01*
X474400Y165000D02*G75*G03X477600Y165000I1600J0D01*G01*
G75*G03X474400Y165000I-1600J0D01*G01*
X476000Y175000D02*Y171800D01*
Y175000D02*X478773Y176600D01*
X476000Y175000D02*X473227Y176600D01*
X474400Y175000D02*G75*G03X477600Y175000I1600J0D01*G01*
G75*G03X474400Y175000I-1600J0D01*G01*
X466000Y165000D02*Y161800D01*
Y165000D02*X468773Y166600D01*
X466000Y165000D02*X463227Y166600D01*
X464400Y165000D02*G75*G03X467600Y165000I1600J0D01*G01*
G75*G03X464400Y165000I-1600J0D01*G01*
X466000Y175000D02*Y171800D01*
Y175000D02*X468773Y176600D01*
X466000Y175000D02*X463227Y176600D01*
X464400Y175000D02*G75*G03X467600Y175000I1600J0D01*G01*
G75*G03X464400Y175000I-1600J0D01*G01*
X520500Y137500D02*Y134300D01*
Y137500D02*X523273Y139100D01*
X520500Y137500D02*X517727Y139100D01*
X518900Y137500D02*G75*G03X522100Y137500I1600J0D01*G01*
G75*G03X518900Y137500I-1600J0D01*G01*
X510500D02*Y134300D01*
Y137500D02*X513273Y139100D01*
X510500Y137500D02*X507727Y139100D01*
X508900Y137500D02*G75*G03X512100Y137500I1600J0D01*G01*
G75*G03X508900Y137500I-1600J0D01*G01*
X502319Y78733D02*Y75533D01*
Y78733D02*X505092Y80333D01*
X502319Y78733D02*X499546Y80333D01*
X500719Y78733D02*G75*G03X503919Y78733I1600J0D01*G01*
G75*G03X500719Y78733I-1600J0D01*G01*
X512319D02*Y75533D01*
Y78733D02*X515092Y80333D01*
X512319Y78733D02*X509546Y80333D01*
X510719Y78733D02*G75*G03X513919Y78733I1600J0D01*G01*
G75*G03X510719Y78733I-1600J0D01*G01*
X133000Y149300D02*Y146100D01*
Y149300D02*X135773Y150900D01*
X133000Y149300D02*X130227Y150900D01*
X131400Y149300D02*G75*G03X134600Y149300I1600J0D01*G01*
G75*G03X131400Y149300I-1600J0D01*G01*
X133000Y139300D02*Y136100D01*
Y139300D02*X135773Y140900D01*
X133000Y139300D02*X130227Y140900D01*
X131400Y139300D02*G75*G03X134600Y139300I1600J0D01*G01*
G75*G03X131400Y139300I-1600J0D01*G01*
X205000Y34300D02*Y31100D01*
Y34300D02*X207773Y35900D01*
X205000Y34300D02*X202227Y35900D01*
X203400Y34300D02*G75*G03X206600Y34300I1600J0D01*G01*
G75*G03X203400Y34300I-1600J0D01*G01*
X195000D02*Y31100D01*
Y34300D02*X197773Y35900D01*
X195000Y34300D02*X192227Y35900D01*
X193400Y34300D02*G75*G03X196600Y34300I1600J0D01*G01*
G75*G03X193400Y34300I-1600J0D01*G01*
X185000D02*Y31100D01*
Y34300D02*X187773Y35900D01*
X185000Y34300D02*X182227Y35900D01*
X183400Y34300D02*G75*G03X186600Y34300I1600J0D01*G01*
G75*G03X183400Y34300I-1600J0D01*G01*
X175000D02*Y31100D01*
Y34300D02*X177773Y35900D01*
X175000Y34300D02*X172227Y35900D01*
X173400Y34300D02*G75*G03X176600Y34300I1600J0D01*G01*
G75*G03X173400Y34300I-1600J0D01*G01*
X165000D02*Y31100D01*
Y34300D02*X167773Y35900D01*
X165000Y34300D02*X162227Y35900D01*
X163400Y34300D02*G75*G03X166600Y34300I1600J0D01*G01*
G75*G03X163400Y34300I-1600J0D01*G01*
X155000D02*Y31100D01*
Y34300D02*X157773Y35900D01*
X155000Y34300D02*X152227Y35900D01*
X153400Y34300D02*G75*G03X156600Y34300I1600J0D01*G01*
G75*G03X153400Y34300I-1600J0D01*G01*
X229000Y38300D02*Y35100D01*
Y38300D02*X231773Y39900D01*
X229000Y38300D02*X226227Y39900D01*
X227400Y38300D02*G75*G03X230600Y38300I1600J0D01*G01*
G75*G03X227400Y38300I-1600J0D01*G01*
X229000Y28300D02*Y25100D01*
Y28300D02*X231773Y29900D01*
X229000Y28300D02*X226227Y29900D01*
X227400Y28300D02*G75*G03X230600Y28300I1600J0D01*G01*
G75*G03X227400Y28300I-1600J0D01*G01*
X239000Y38300D02*Y35100D01*
Y38300D02*X241773Y39900D01*
X239000Y38300D02*X236227Y39900D01*
X237400Y38300D02*G75*G03X240600Y38300I1600J0D01*G01*
G75*G03X237400Y38300I-1600J0D01*G01*
X239000Y28300D02*Y25100D01*
Y28300D02*X241773Y29900D01*
X239000Y28300D02*X236227Y29900D01*
X237400Y28300D02*G75*G03X240600Y28300I1600J0D01*G01*
G75*G03X237400Y28300I-1600J0D01*G01*
X249000Y38300D02*Y35100D01*
Y38300D02*X251773Y39900D01*
X249000Y38300D02*X246227Y39900D01*
X247400Y38300D02*G75*G03X250600Y38300I1600J0D01*G01*
G75*G03X247400Y38300I-1600J0D01*G01*
X249000Y28300D02*Y25100D01*
Y28300D02*X251773Y29900D01*
X249000Y28300D02*X246227Y29900D01*
X247400Y28300D02*G75*G03X250600Y28300I1600J0D01*G01*
G75*G03X247400Y28300I-1600J0D01*G01*
X259000Y38300D02*Y35100D01*
Y38300D02*X261773Y39900D01*
X259000Y38300D02*X256227Y39900D01*
X257400Y38300D02*G75*G03X260600Y38300I1600J0D01*G01*
G75*G03X257400Y38300I-1600J0D01*G01*
X259000Y28300D02*Y25100D01*
Y28300D02*X261773Y29900D01*
X259000Y28300D02*X256227Y29900D01*
X257400Y28300D02*G75*G03X260600Y28300I1600J0D01*G01*
G75*G03X257400Y28300I-1600J0D01*G01*
X269000Y38300D02*Y35100D01*
Y38300D02*X271773Y39900D01*
X269000Y38300D02*X266227Y39900D01*
X267400Y38300D02*G75*G03X270600Y38300I1600J0D01*G01*
G75*G03X267400Y38300I-1600J0D01*G01*
X269000Y28300D02*Y25100D01*
Y28300D02*X271773Y29900D01*
X269000Y28300D02*X266227Y29900D01*
X267400Y28300D02*G75*G03X270600Y28300I1600J0D01*G01*
G75*G03X267400Y28300I-1600J0D01*G01*
X279000Y38300D02*Y35100D01*
Y38300D02*X281773Y39900D01*
X279000Y38300D02*X276227Y39900D01*
X277400Y38300D02*G75*G03X280600Y38300I1600J0D01*G01*
G75*G03X277400Y38300I-1600J0D01*G01*
X279000Y28300D02*Y25100D01*
Y28300D02*X281773Y29900D01*
X279000Y28300D02*X276227Y29900D01*
X277400Y28300D02*G75*G03X280600Y28300I1600J0D01*G01*
G75*G03X277400Y28300I-1600J0D01*G01*
X289000Y38300D02*Y35100D01*
Y38300D02*X291773Y39900D01*
X289000Y38300D02*X286227Y39900D01*
X287400Y38300D02*G75*G03X290600Y38300I1600J0D01*G01*
G75*G03X287400Y38300I-1600J0D01*G01*
X289000Y28300D02*Y25100D01*
Y28300D02*X291773Y29900D01*
X289000Y28300D02*X286227Y29900D01*
X287400Y28300D02*G75*G03X290600Y28300I1600J0D01*G01*
G75*G03X287400Y28300I-1600J0D01*G01*
X299000Y38300D02*Y35100D01*
Y38300D02*X301773Y39900D01*
X299000Y38300D02*X296227Y39900D01*
X297400Y38300D02*G75*G03X300600Y38300I1600J0D01*G01*
G75*G03X297400Y38300I-1600J0D01*G01*
X299000Y28300D02*Y25100D01*
Y28300D02*X301773Y29900D01*
X299000Y28300D02*X296227Y29900D01*
X297400Y28300D02*G75*G03X300600Y28300I1600J0D01*G01*
G75*G03X297400Y28300I-1600J0D01*G01*
X112000Y32300D02*Y29100D01*
Y32300D02*X114773Y33900D01*
X112000Y32300D02*X109227Y33900D01*
X110400Y32300D02*G75*G03X113600Y32300I1600J0D01*G01*
G75*G03X110400Y32300I-1600J0D01*G01*
X102000D02*Y29100D01*
Y32300D02*X104773Y33900D01*
X102000Y32300D02*X99227Y33900D01*
X100400Y32300D02*G75*G03X103600Y32300I1600J0D01*G01*
G75*G03X100400Y32300I-1600J0D01*G01*
X92000D02*Y29100D01*
Y32300D02*X94773Y33900D01*
X92000Y32300D02*X89227Y33900D01*
X90400Y32300D02*G75*G03X93600Y32300I1600J0D01*G01*
G75*G03X90400Y32300I-1600J0D01*G01*
X745000Y317300D02*Y314100D01*
Y317300D02*X747773Y318900D01*
X745000Y317300D02*X742227Y318900D01*
X743400Y317300D02*G75*G03X746600Y317300I1600J0D01*G01*
G75*G03X743400Y317300I-1600J0D01*G01*
X745000Y307300D02*Y304100D01*
Y307300D02*X747773Y308900D01*
X745000Y307300D02*X742227Y308900D01*
X743400Y307300D02*G75*G03X746600Y307300I1600J0D01*G01*
G75*G03X743400Y307300I-1600J0D01*G01*
X817000Y202300D02*Y199100D01*
Y202300D02*X819773Y203900D01*
X817000Y202300D02*X814227Y203900D01*
X815400Y202300D02*G75*G03X818600Y202300I1600J0D01*G01*
G75*G03X815400Y202300I-1600J0D01*G01*
X807000D02*Y199100D01*
Y202300D02*X809773Y203900D01*
X807000Y202300D02*X804227Y203900D01*
X805400Y202300D02*G75*G03X808600Y202300I1600J0D01*G01*
G75*G03X805400Y202300I-1600J0D01*G01*
X797000D02*Y199100D01*
Y202300D02*X799773Y203900D01*
X797000Y202300D02*X794227Y203900D01*
X795400Y202300D02*G75*G03X798600Y202300I1600J0D01*G01*
G75*G03X795400Y202300I-1600J0D01*G01*
X787000D02*Y199100D01*
Y202300D02*X789773Y203900D01*
X787000Y202300D02*X784227Y203900D01*
X785400Y202300D02*G75*G03X788600Y202300I1600J0D01*G01*
G75*G03X785400Y202300I-1600J0D01*G01*
X777000D02*Y199100D01*
Y202300D02*X779773Y203900D01*
X777000Y202300D02*X774227Y203900D01*
X775400Y202300D02*G75*G03X778600Y202300I1600J0D01*G01*
G75*G03X775400Y202300I-1600J0D01*G01*
X767000D02*Y199100D01*
Y202300D02*X769773Y203900D01*
X767000Y202300D02*X764227Y203900D01*
X765400Y202300D02*G75*G03X768600Y202300I1600J0D01*G01*
G75*G03X765400Y202300I-1600J0D01*G01*
X841000Y206300D02*Y203100D01*
Y206300D02*X843773Y207900D01*
X841000Y206300D02*X838227Y207900D01*
X839400Y206300D02*G75*G03X842600Y206300I1600J0D01*G01*
G75*G03X839400Y206300I-1600J0D01*G01*
X841000Y196300D02*Y193100D01*
Y196300D02*X843773Y197900D01*
X841000Y196300D02*X838227Y197900D01*
X839400Y196300D02*G75*G03X842600Y196300I1600J0D01*G01*
G75*G03X839400Y196300I-1600J0D01*G01*
X851000Y206300D02*Y203100D01*
Y206300D02*X853773Y207900D01*
X851000Y206300D02*X848227Y207900D01*
X849400Y206300D02*G75*G03X852600Y206300I1600J0D01*G01*
G75*G03X849400Y206300I-1600J0D01*G01*
X851000Y196300D02*Y193100D01*
Y196300D02*X853773Y197900D01*
X851000Y196300D02*X848227Y197900D01*
X849400Y196300D02*G75*G03X852600Y196300I1600J0D01*G01*
G75*G03X849400Y196300I-1600J0D01*G01*
X861000Y206300D02*Y203100D01*
Y206300D02*X863773Y207900D01*
X861000Y206300D02*X858227Y207900D01*
X859400Y206300D02*G75*G03X862600Y206300I1600J0D01*G01*
G75*G03X859400Y206300I-1600J0D01*G01*
X861000Y196300D02*Y193100D01*
Y196300D02*X863773Y197900D01*
X861000Y196300D02*X858227Y197900D01*
X859400Y196300D02*G75*G03X862600Y196300I1600J0D01*G01*
G75*G03X859400Y196300I-1600J0D01*G01*
X871000Y206300D02*Y203100D01*
Y206300D02*X873773Y207900D01*
X871000Y206300D02*X868227Y207900D01*
X869400Y206300D02*G75*G03X872600Y206300I1600J0D01*G01*
G75*G03X869400Y206300I-1600J0D01*G01*
X871000Y196300D02*Y193100D01*
Y196300D02*X873773Y197900D01*
X871000Y196300D02*X868227Y197900D01*
X869400Y196300D02*G75*G03X872600Y196300I1600J0D01*G01*
G75*G03X869400Y196300I-1600J0D01*G01*
X881000Y206300D02*Y203100D01*
Y206300D02*X883773Y207900D01*
X881000Y206300D02*X878227Y207900D01*
X879400Y206300D02*G75*G03X882600Y206300I1600J0D01*G01*
G75*G03X879400Y206300I-1600J0D01*G01*
X881000Y196300D02*Y193100D01*
Y196300D02*X883773Y197900D01*
X881000Y196300D02*X878227Y197900D01*
X879400Y196300D02*G75*G03X882600Y196300I1600J0D01*G01*
G75*G03X879400Y196300I-1600J0D01*G01*
X891000Y206300D02*Y203100D01*
Y206300D02*X893773Y207900D01*
X891000Y206300D02*X888227Y207900D01*
X889400Y206300D02*G75*G03X892600Y206300I1600J0D01*G01*
G75*G03X889400Y206300I-1600J0D01*G01*
X891000Y196300D02*Y193100D01*
Y196300D02*X893773Y197900D01*
X891000Y196300D02*X888227Y197900D01*
X889400Y196300D02*G75*G03X892600Y196300I1600J0D01*G01*
G75*G03X889400Y196300I-1600J0D01*G01*
X901000Y206300D02*Y203100D01*
Y206300D02*X903773Y207900D01*
X901000Y206300D02*X898227Y207900D01*
X899400Y206300D02*G75*G03X902600Y206300I1600J0D01*G01*
G75*G03X899400Y206300I-1600J0D01*G01*
X901000Y196300D02*Y193100D01*
Y196300D02*X903773Y197900D01*
X901000Y196300D02*X898227Y197900D01*
X899400Y196300D02*G75*G03X902600Y196300I1600J0D01*G01*
G75*G03X899400Y196300I-1600J0D01*G01*
X911000Y206300D02*Y203100D01*
Y206300D02*X913773Y207900D01*
X911000Y206300D02*X908227Y207900D01*
X909400Y206300D02*G75*G03X912600Y206300I1600J0D01*G01*
G75*G03X909400Y206300I-1600J0D01*G01*
X911000Y196300D02*Y193100D01*
Y196300D02*X913773Y197900D01*
X911000Y196300D02*X908227Y197900D01*
X909400Y196300D02*G75*G03X912600Y196300I1600J0D01*G01*
G75*G03X909400Y196300I-1600J0D01*G01*
X724000Y200300D02*Y197100D01*
Y200300D02*X726773Y201900D01*
X724000Y200300D02*X721227Y201900D01*
X722400Y200300D02*G75*G03X725600Y200300I1600J0D01*G01*
G75*G03X722400Y200300I-1600J0D01*G01*
X714000D02*Y197100D01*
Y200300D02*X716773Y201900D01*
X714000Y200300D02*X711227Y201900D01*
X712400Y200300D02*G75*G03X715600Y200300I1600J0D01*G01*
G75*G03X712400Y200300I-1600J0D01*G01*
X704000D02*Y197100D01*
Y200300D02*X706773Y201900D01*
X704000Y200300D02*X701227Y201900D01*
X702400Y200300D02*G75*G03X705600Y200300I1600J0D01*G01*
G75*G03X702400Y200300I-1600J0D01*G01*
X439000Y317300D02*Y314100D01*
Y317300D02*X441773Y318900D01*
X439000Y317300D02*X436227Y318900D01*
X437400Y317300D02*G75*G03X440600Y317300I1600J0D01*G01*
G75*G03X437400Y317300I-1600J0D01*G01*
X439000Y307300D02*Y304100D01*
Y307300D02*X441773Y308900D01*
X439000Y307300D02*X436227Y308900D01*
X437400Y307300D02*G75*G03X440600Y307300I1600J0D01*G01*
G75*G03X437400Y307300I-1600J0D01*G01*
X511000Y202300D02*Y199100D01*
Y202300D02*X513773Y203900D01*
X511000Y202300D02*X508227Y203900D01*
X509400Y202300D02*G75*G03X512600Y202300I1600J0D01*G01*
G75*G03X509400Y202300I-1600J0D01*G01*
X501000D02*Y199100D01*
Y202300D02*X503773Y203900D01*
X501000Y202300D02*X498227Y203900D01*
X499400Y202300D02*G75*G03X502600Y202300I1600J0D01*G01*
G75*G03X499400Y202300I-1600J0D01*G01*
X491000D02*Y199100D01*
Y202300D02*X493773Y203900D01*
X491000Y202300D02*X488227Y203900D01*
X489400Y202300D02*G75*G03X492600Y202300I1600J0D01*G01*
G75*G03X489400Y202300I-1600J0D01*G01*
X481000D02*Y199100D01*
Y202300D02*X483773Y203900D01*
X481000Y202300D02*X478227Y203900D01*
X479400Y202300D02*G75*G03X482600Y202300I1600J0D01*G01*
G75*G03X479400Y202300I-1600J0D01*G01*
X471000D02*Y199100D01*
Y202300D02*X473773Y203900D01*
X471000Y202300D02*X468227Y203900D01*
X469400Y202300D02*G75*G03X472600Y202300I1600J0D01*G01*
G75*G03X469400Y202300I-1600J0D01*G01*
X461000D02*Y199100D01*
Y202300D02*X463773Y203900D01*
X461000Y202300D02*X458227Y203900D01*
X459400Y202300D02*G75*G03X462600Y202300I1600J0D01*G01*
G75*G03X459400Y202300I-1600J0D01*G01*
X535000Y206300D02*Y203100D01*
Y206300D02*X537773Y207900D01*
X535000Y206300D02*X532227Y207900D01*
X533400Y206300D02*G75*G03X536600Y206300I1600J0D01*G01*
G75*G03X533400Y206300I-1600J0D01*G01*
X535000Y196300D02*Y193100D01*
Y196300D02*X537773Y197900D01*
X535000Y196300D02*X532227Y197900D01*
X533400Y196300D02*G75*G03X536600Y196300I1600J0D01*G01*
G75*G03X533400Y196300I-1600J0D01*G01*
X545000Y206300D02*Y203100D01*
Y206300D02*X547773Y207900D01*
X545000Y206300D02*X542227Y207900D01*
X543400Y206300D02*G75*G03X546600Y206300I1600J0D01*G01*
G75*G03X543400Y206300I-1600J0D01*G01*
X545000Y196300D02*Y193100D01*
Y196300D02*X547773Y197900D01*
X545000Y196300D02*X542227Y197900D01*
X543400Y196300D02*G75*G03X546600Y196300I1600J0D01*G01*
G75*G03X543400Y196300I-1600J0D01*G01*
X555000Y206300D02*Y203100D01*
Y206300D02*X557773Y207900D01*
X555000Y206300D02*X552227Y207900D01*
X553400Y206300D02*G75*G03X556600Y206300I1600J0D01*G01*
G75*G03X553400Y206300I-1600J0D01*G01*
X555000Y196300D02*Y193100D01*
Y196300D02*X557773Y197900D01*
X555000Y196300D02*X552227Y197900D01*
X553400Y196300D02*G75*G03X556600Y196300I1600J0D01*G01*
G75*G03X553400Y196300I-1600J0D01*G01*
X565000Y206300D02*Y203100D01*
Y206300D02*X567773Y207900D01*
X565000Y206300D02*X562227Y207900D01*
X563400Y206300D02*G75*G03X566600Y206300I1600J0D01*G01*
G75*G03X563400Y206300I-1600J0D01*G01*
X565000Y196300D02*Y193100D01*
Y196300D02*X567773Y197900D01*
X565000Y196300D02*X562227Y197900D01*
X563400Y196300D02*G75*G03X566600Y196300I1600J0D01*G01*
G75*G03X563400Y196300I-1600J0D01*G01*
X575000Y206300D02*Y203100D01*
Y206300D02*X577773Y207900D01*
X575000Y206300D02*X572227Y207900D01*
X573400Y206300D02*G75*G03X576600Y206300I1600J0D01*G01*
G75*G03X573400Y206300I-1600J0D01*G01*
X575000Y196300D02*Y193100D01*
Y196300D02*X577773Y197900D01*
X575000Y196300D02*X572227Y197900D01*
X573400Y196300D02*G75*G03X576600Y196300I1600J0D01*G01*
G75*G03X573400Y196300I-1600J0D01*G01*
X585000Y206300D02*Y203100D01*
Y206300D02*X587773Y207900D01*
X585000Y206300D02*X582227Y207900D01*
X583400Y206300D02*G75*G03X586600Y206300I1600J0D01*G01*
G75*G03X583400Y206300I-1600J0D01*G01*
X585000Y196300D02*Y193100D01*
Y196300D02*X587773Y197900D01*
X585000Y196300D02*X582227Y197900D01*
X583400Y196300D02*G75*G03X586600Y196300I1600J0D01*G01*
G75*G03X583400Y196300I-1600J0D01*G01*
X595000Y206300D02*Y203100D01*
Y206300D02*X597773Y207900D01*
X595000Y206300D02*X592227Y207900D01*
X593400Y206300D02*G75*G03X596600Y206300I1600J0D01*G01*
G75*G03X593400Y206300I-1600J0D01*G01*
X595000Y196300D02*Y193100D01*
Y196300D02*X597773Y197900D01*
X595000Y196300D02*X592227Y197900D01*
X593400Y196300D02*G75*G03X596600Y196300I1600J0D01*G01*
G75*G03X593400Y196300I-1600J0D01*G01*
X605000Y206300D02*Y203100D01*
Y206300D02*X607773Y207900D01*
X605000Y206300D02*X602227Y207900D01*
X603400Y206300D02*G75*G03X606600Y206300I1600J0D01*G01*
G75*G03X603400Y206300I-1600J0D01*G01*
X605000Y196300D02*Y193100D01*
Y196300D02*X607773Y197900D01*
X605000Y196300D02*X602227Y197900D01*
X603400Y196300D02*G75*G03X606600Y196300I1600J0D01*G01*
G75*G03X603400Y196300I-1600J0D01*G01*
X418000Y200300D02*Y197100D01*
Y200300D02*X420773Y201900D01*
X418000Y200300D02*X415227Y201900D01*
X416400Y200300D02*G75*G03X419600Y200300I1600J0D01*G01*
G75*G03X416400Y200300I-1600J0D01*G01*
X408000D02*Y197100D01*
Y200300D02*X410773Y201900D01*
X408000Y200300D02*X405227Y201900D01*
X406400Y200300D02*G75*G03X409600Y200300I1600J0D01*G01*
G75*G03X406400Y200300I-1600J0D01*G01*
X398000D02*Y197100D01*
Y200300D02*X400773Y201900D01*
X398000Y200300D02*X395227Y201900D01*
X396400Y200300D02*G75*G03X399600Y200300I1600J0D01*G01*
G75*G03X396400Y200300I-1600J0D01*G01*
X133000Y317300D02*Y314100D01*
Y317300D02*X135773Y318900D01*
X133000Y317300D02*X130227Y318900D01*
X131400Y317300D02*G75*G03X134600Y317300I1600J0D01*G01*
G75*G03X131400Y317300I-1600J0D01*G01*
X133000Y307300D02*Y304100D01*
Y307300D02*X135773Y308900D01*
X133000Y307300D02*X130227Y308900D01*
X131400Y307300D02*G75*G03X134600Y307300I1600J0D01*G01*
G75*G03X131400Y307300I-1600J0D01*G01*
X205000Y202300D02*Y199100D01*
Y202300D02*X207773Y203900D01*
X205000Y202300D02*X202227Y203900D01*
X203400Y202300D02*G75*G03X206600Y202300I1600J0D01*G01*
G75*G03X203400Y202300I-1600J0D01*G01*
X195000D02*Y199100D01*
Y202300D02*X197773Y203900D01*
X195000Y202300D02*X192227Y203900D01*
X193400Y202300D02*G75*G03X196600Y202300I1600J0D01*G01*
G75*G03X193400Y202300I-1600J0D01*G01*
X185000D02*Y199100D01*
Y202300D02*X187773Y203900D01*
X185000Y202300D02*X182227Y203900D01*
X183400Y202300D02*G75*G03X186600Y202300I1600J0D01*G01*
G75*G03X183400Y202300I-1600J0D01*G01*
X175000D02*Y199100D01*
Y202300D02*X177773Y203900D01*
X175000Y202300D02*X172227Y203900D01*
X173400Y202300D02*G75*G03X176600Y202300I1600J0D01*G01*
G75*G03X173400Y202300I-1600J0D01*G01*
X165000D02*Y199100D01*
Y202300D02*X167773Y203900D01*
X165000Y202300D02*X162227Y203900D01*
X163400Y202300D02*G75*G03X166600Y202300I1600J0D01*G01*
G75*G03X163400Y202300I-1600J0D01*G01*
X155000D02*Y199100D01*
Y202300D02*X157773Y203900D01*
X155000Y202300D02*X152227Y203900D01*
X153400Y202300D02*G75*G03X156600Y202300I1600J0D01*G01*
G75*G03X153400Y202300I-1600J0D01*G01*
X229000Y206300D02*Y203100D01*
Y206300D02*X231773Y207900D01*
X229000Y206300D02*X226227Y207900D01*
X227400Y206300D02*G75*G03X230600Y206300I1600J0D01*G01*
G75*G03X227400Y206300I-1600J0D01*G01*
X229000Y196300D02*Y193100D01*
Y196300D02*X231773Y197900D01*
X229000Y196300D02*X226227Y197900D01*
X227400Y196300D02*G75*G03X230600Y196300I1600J0D01*G01*
G75*G03X227400Y196300I-1600J0D01*G01*
X239000Y206300D02*Y203100D01*
Y206300D02*X241773Y207900D01*
X239000Y206300D02*X236227Y207900D01*
X237400Y206300D02*G75*G03X240600Y206300I1600J0D01*G01*
G75*G03X237400Y206300I-1600J0D01*G01*
X239000Y196300D02*Y193100D01*
Y196300D02*X241773Y197900D01*
X239000Y196300D02*X236227Y197900D01*
X237400Y196300D02*G75*G03X240600Y196300I1600J0D01*G01*
G75*G03X237400Y196300I-1600J0D01*G01*
X249000Y206300D02*Y203100D01*
Y206300D02*X251773Y207900D01*
X249000Y206300D02*X246227Y207900D01*
X247400Y206300D02*G75*G03X250600Y206300I1600J0D01*G01*
G75*G03X247400Y206300I-1600J0D01*G01*
X249000Y196300D02*Y193100D01*
Y196300D02*X251773Y197900D01*
X249000Y196300D02*X246227Y197900D01*
X247400Y196300D02*G75*G03X250600Y196300I1600J0D01*G01*
G75*G03X247400Y196300I-1600J0D01*G01*
X259000Y206300D02*Y203100D01*
Y206300D02*X261773Y207900D01*
X259000Y206300D02*X256227Y207900D01*
X257400Y206300D02*G75*G03X260600Y206300I1600J0D01*G01*
G75*G03X257400Y206300I-1600J0D01*G01*
X259000Y196300D02*Y193100D01*
Y196300D02*X261773Y197900D01*
X259000Y196300D02*X256227Y197900D01*
X257400Y196300D02*G75*G03X260600Y196300I1600J0D01*G01*
G75*G03X257400Y196300I-1600J0D01*G01*
X269000Y206300D02*Y203100D01*
Y206300D02*X271773Y207900D01*
X269000Y206300D02*X266227Y207900D01*
X267400Y206300D02*G75*G03X270600Y206300I1600J0D01*G01*
G75*G03X267400Y206300I-1600J0D01*G01*
X269000Y196300D02*Y193100D01*
Y196300D02*X271773Y197900D01*
X269000Y196300D02*X266227Y197900D01*
X267400Y196300D02*G75*G03X270600Y196300I1600J0D01*G01*
G75*G03X267400Y196300I-1600J0D01*G01*
X279000Y206300D02*Y203100D01*
Y206300D02*X281773Y207900D01*
X279000Y206300D02*X276227Y207900D01*
X277400Y206300D02*G75*G03X280600Y206300I1600J0D01*G01*
G75*G03X277400Y206300I-1600J0D01*G01*
X279000Y196300D02*Y193100D01*
Y196300D02*X281773Y197900D01*
X279000Y196300D02*X276227Y197900D01*
X277400Y196300D02*G75*G03X280600Y196300I1600J0D01*G01*
G75*G03X277400Y196300I-1600J0D01*G01*
X289000Y206300D02*Y203100D01*
Y206300D02*X291773Y207900D01*
X289000Y206300D02*X286227Y207900D01*
X287400Y206300D02*G75*G03X290600Y206300I1600J0D01*G01*
G75*G03X287400Y206300I-1600J0D01*G01*
X289000Y196300D02*Y193100D01*
Y196300D02*X291773Y197900D01*
X289000Y196300D02*X286227Y197900D01*
X287400Y196300D02*G75*G03X290600Y196300I1600J0D01*G01*
G75*G03X287400Y196300I-1600J0D01*G01*
X299000Y206300D02*Y203100D01*
Y206300D02*X301773Y207900D01*
X299000Y206300D02*X296227Y207900D01*
X297400Y206300D02*G75*G03X300600Y206300I1600J0D01*G01*
G75*G03X297400Y206300I-1600J0D01*G01*
X299000Y196300D02*Y193100D01*
Y196300D02*X301773Y197900D01*
X299000Y196300D02*X296227Y197900D01*
X297400Y196300D02*G75*G03X300600Y196300I1600J0D01*G01*
G75*G03X297400Y196300I-1600J0D01*G01*
X112000Y200300D02*Y197100D01*
Y200300D02*X114773Y201900D01*
X112000Y200300D02*X109227Y201900D01*
X110400Y200300D02*G75*G03X113600Y200300I1600J0D01*G01*
G75*G03X110400Y200300I-1600J0D01*G01*
X102000D02*Y197100D01*
Y200300D02*X104773Y201900D01*
X102000Y200300D02*X99227Y201900D01*
X100400Y200300D02*G75*G03X103600Y200300I1600J0D01*G01*
G75*G03X100400Y200300I-1600J0D01*G01*
X92000D02*Y197100D01*
Y200300D02*X94773Y201900D01*
X92000Y200300D02*X89227Y201900D01*
X90400Y200300D02*G75*G03X93600Y200300I1600J0D01*G01*
G75*G03X90400Y200300I-1600J0D01*G01*
X745000Y485300D02*Y482100D01*
Y485300D02*X747773Y486900D01*
X745000Y485300D02*X742227Y486900D01*
X743400Y485300D02*G75*G03X746600Y485300I1600J0D01*G01*
G75*G03X743400Y485300I-1600J0D01*G01*
X745000Y475300D02*Y472100D01*
Y475300D02*X747773Y476900D01*
X745000Y475300D02*X742227Y476900D01*
X743400Y475300D02*G75*G03X746600Y475300I1600J0D01*G01*
G75*G03X743400Y475300I-1600J0D01*G01*
X817000Y370300D02*Y367100D01*
Y370300D02*X819773Y371900D01*
X817000Y370300D02*X814227Y371900D01*
X815400Y370300D02*G75*G03X818600Y370300I1600J0D01*G01*
G75*G03X815400Y370300I-1600J0D01*G01*
X807000D02*Y367100D01*
Y370300D02*X809773Y371900D01*
X807000Y370300D02*X804227Y371900D01*
X805400Y370300D02*G75*G03X808600Y370300I1600J0D01*G01*
G75*G03X805400Y370300I-1600J0D01*G01*
X797000D02*Y367100D01*
Y370300D02*X799773Y371900D01*
X797000Y370300D02*X794227Y371900D01*
X795400Y370300D02*G75*G03X798600Y370300I1600J0D01*G01*
G75*G03X795400Y370300I-1600J0D01*G01*
X787000D02*Y367100D01*
Y370300D02*X789773Y371900D01*
X787000Y370300D02*X784227Y371900D01*
X785400Y370300D02*G75*G03X788600Y370300I1600J0D01*G01*
G75*G03X785400Y370300I-1600J0D01*G01*
X777000D02*Y367100D01*
Y370300D02*X779773Y371900D01*
X777000Y370300D02*X774227Y371900D01*
X775400Y370300D02*G75*G03X778600Y370300I1600J0D01*G01*
G75*G03X775400Y370300I-1600J0D01*G01*
X767000D02*Y367100D01*
Y370300D02*X769773Y371900D01*
X767000Y370300D02*X764227Y371900D01*
X765400Y370300D02*G75*G03X768600Y370300I1600J0D01*G01*
G75*G03X765400Y370300I-1600J0D01*G01*
X841000Y374300D02*Y371100D01*
Y374300D02*X843773Y375900D01*
X841000Y374300D02*X838227Y375900D01*
X839400Y374300D02*G75*G03X842600Y374300I1600J0D01*G01*
G75*G03X839400Y374300I-1600J0D01*G01*
X841000Y364300D02*Y361100D01*
Y364300D02*X843773Y365900D01*
X841000Y364300D02*X838227Y365900D01*
X839400Y364300D02*G75*G03X842600Y364300I1600J0D01*G01*
G75*G03X839400Y364300I-1600J0D01*G01*
X851000Y374300D02*Y371100D01*
Y374300D02*X853773Y375900D01*
X851000Y374300D02*X848227Y375900D01*
X849400Y374300D02*G75*G03X852600Y374300I1600J0D01*G01*
G75*G03X849400Y374300I-1600J0D01*G01*
X851000Y364300D02*Y361100D01*
Y364300D02*X853773Y365900D01*
X851000Y364300D02*X848227Y365900D01*
X849400Y364300D02*G75*G03X852600Y364300I1600J0D01*G01*
G75*G03X849400Y364300I-1600J0D01*G01*
X861000Y374300D02*Y371100D01*
Y374300D02*X863773Y375900D01*
X861000Y374300D02*X858227Y375900D01*
X859400Y374300D02*G75*G03X862600Y374300I1600J0D01*G01*
G75*G03X859400Y374300I-1600J0D01*G01*
X861000Y364300D02*Y361100D01*
Y364300D02*X863773Y365900D01*
X861000Y364300D02*X858227Y365900D01*
X859400Y364300D02*G75*G03X862600Y364300I1600J0D01*G01*
G75*G03X859400Y364300I-1600J0D01*G01*
X871000Y374300D02*Y371100D01*
Y374300D02*X873773Y375900D01*
X871000Y374300D02*X868227Y375900D01*
X869400Y374300D02*G75*G03X872600Y374300I1600J0D01*G01*
G75*G03X869400Y374300I-1600J0D01*G01*
X871000Y364300D02*Y361100D01*
Y364300D02*X873773Y365900D01*
X871000Y364300D02*X868227Y365900D01*
X869400Y364300D02*G75*G03X872600Y364300I1600J0D01*G01*
G75*G03X869400Y364300I-1600J0D01*G01*
X881000Y374300D02*Y371100D01*
Y374300D02*X883773Y375900D01*
X881000Y374300D02*X878227Y375900D01*
X879400Y374300D02*G75*G03X882600Y374300I1600J0D01*G01*
G75*G03X879400Y374300I-1600J0D01*G01*
X881000Y364300D02*Y361100D01*
Y364300D02*X883773Y365900D01*
X881000Y364300D02*X878227Y365900D01*
X879400Y364300D02*G75*G03X882600Y364300I1600J0D01*G01*
G75*G03X879400Y364300I-1600J0D01*G01*
X891000Y374300D02*Y371100D01*
Y374300D02*X893773Y375900D01*
X891000Y374300D02*X888227Y375900D01*
X889400Y374300D02*G75*G03X892600Y374300I1600J0D01*G01*
G75*G03X889400Y374300I-1600J0D01*G01*
X891000Y364300D02*Y361100D01*
Y364300D02*X893773Y365900D01*
X891000Y364300D02*X888227Y365900D01*
X889400Y364300D02*G75*G03X892600Y364300I1600J0D01*G01*
G75*G03X889400Y364300I-1600J0D01*G01*
X901000Y374300D02*Y371100D01*
Y374300D02*X903773Y375900D01*
X901000Y374300D02*X898227Y375900D01*
X899400Y374300D02*G75*G03X902600Y374300I1600J0D01*G01*
G75*G03X899400Y374300I-1600J0D01*G01*
X901000Y364300D02*Y361100D01*
Y364300D02*X903773Y365900D01*
X901000Y364300D02*X898227Y365900D01*
X899400Y364300D02*G75*G03X902600Y364300I1600J0D01*G01*
G75*G03X899400Y364300I-1600J0D01*G01*
X911000Y374300D02*Y371100D01*
Y374300D02*X913773Y375900D01*
X911000Y374300D02*X908227Y375900D01*
X909400Y374300D02*G75*G03X912600Y374300I1600J0D01*G01*
G75*G03X909400Y374300I-1600J0D01*G01*
X911000Y364300D02*Y361100D01*
Y364300D02*X913773Y365900D01*
X911000Y364300D02*X908227Y365900D01*
X909400Y364300D02*G75*G03X912600Y364300I1600J0D01*G01*
G75*G03X909400Y364300I-1600J0D01*G01*
X724000Y368300D02*Y365100D01*
Y368300D02*X726773Y369900D01*
X724000Y368300D02*X721227Y369900D01*
X722400Y368300D02*G75*G03X725600Y368300I1600J0D01*G01*
G75*G03X722400Y368300I-1600J0D01*G01*
X714000D02*Y365100D01*
Y368300D02*X716773Y369900D01*
X714000Y368300D02*X711227Y369900D01*
X712400Y368300D02*G75*G03X715600Y368300I1600J0D01*G01*
G75*G03X712400Y368300I-1600J0D01*G01*
X704000D02*Y365100D01*
Y368300D02*X706773Y369900D01*
X704000Y368300D02*X701227Y369900D01*
X702400Y368300D02*G75*G03X705600Y368300I1600J0D01*G01*
G75*G03X702400Y368300I-1600J0D01*G01*
X439000Y485300D02*Y482100D01*
Y485300D02*X441773Y486900D01*
X439000Y485300D02*X436227Y486900D01*
X437400Y485300D02*G75*G03X440600Y485300I1600J0D01*G01*
G75*G03X437400Y485300I-1600J0D01*G01*
X439000Y475300D02*Y472100D01*
Y475300D02*X441773Y476900D01*
X439000Y475300D02*X436227Y476900D01*
X437400Y475300D02*G75*G03X440600Y475300I1600J0D01*G01*
G75*G03X437400Y475300I-1600J0D01*G01*
X511000Y370300D02*Y367100D01*
Y370300D02*X513773Y371900D01*
X511000Y370300D02*X508227Y371900D01*
X509400Y370300D02*G75*G03X512600Y370300I1600J0D01*G01*
G75*G03X509400Y370300I-1600J0D01*G01*
X501000D02*Y367100D01*
Y370300D02*X503773Y371900D01*
X501000Y370300D02*X498227Y371900D01*
X499400Y370300D02*G75*G03X502600Y370300I1600J0D01*G01*
G75*G03X499400Y370300I-1600J0D01*G01*
X491000D02*Y367100D01*
Y370300D02*X493773Y371900D01*
X491000Y370300D02*X488227Y371900D01*
X489400Y370300D02*G75*G03X492600Y370300I1600J0D01*G01*
G75*G03X489400Y370300I-1600J0D01*G01*
X481000D02*Y367100D01*
Y370300D02*X483773Y371900D01*
X481000Y370300D02*X478227Y371900D01*
X479400Y370300D02*G75*G03X482600Y370300I1600J0D01*G01*
G75*G03X479400Y370300I-1600J0D01*G01*
X471000D02*Y367100D01*
Y370300D02*X473773Y371900D01*
X471000Y370300D02*X468227Y371900D01*
X469400Y370300D02*G75*G03X472600Y370300I1600J0D01*G01*
G75*G03X469400Y370300I-1600J0D01*G01*
X461000D02*Y367100D01*
Y370300D02*X463773Y371900D01*
X461000Y370300D02*X458227Y371900D01*
X459400Y370300D02*G75*G03X462600Y370300I1600J0D01*G01*
G75*G03X459400Y370300I-1600J0D01*G01*
X535000Y374300D02*Y371100D01*
Y374300D02*X537773Y375900D01*
X535000Y374300D02*X532227Y375900D01*
X533400Y374300D02*G75*G03X536600Y374300I1600J0D01*G01*
G75*G03X533400Y374300I-1600J0D01*G01*
X535000Y364300D02*Y361100D01*
Y364300D02*X537773Y365900D01*
X535000Y364300D02*X532227Y365900D01*
X533400Y364300D02*G75*G03X536600Y364300I1600J0D01*G01*
G75*G03X533400Y364300I-1600J0D01*G01*
X545000Y374300D02*Y371100D01*
Y374300D02*X547773Y375900D01*
X545000Y374300D02*X542227Y375900D01*
X543400Y374300D02*G75*G03X546600Y374300I1600J0D01*G01*
G75*G03X543400Y374300I-1600J0D01*G01*
X545000Y364300D02*Y361100D01*
Y364300D02*X547773Y365900D01*
X545000Y364300D02*X542227Y365900D01*
X543400Y364300D02*G75*G03X546600Y364300I1600J0D01*G01*
G75*G03X543400Y364300I-1600J0D01*G01*
X555000Y374300D02*Y371100D01*
Y374300D02*X557773Y375900D01*
X555000Y374300D02*X552227Y375900D01*
X553400Y374300D02*G75*G03X556600Y374300I1600J0D01*G01*
G75*G03X553400Y374300I-1600J0D01*G01*
X555000Y364300D02*Y361100D01*
Y364300D02*X557773Y365900D01*
X555000Y364300D02*X552227Y365900D01*
X553400Y364300D02*G75*G03X556600Y364300I1600J0D01*G01*
G75*G03X553400Y364300I-1600J0D01*G01*
X565000Y374300D02*Y371100D01*
Y374300D02*X567773Y375900D01*
X565000Y374300D02*X562227Y375900D01*
X563400Y374300D02*G75*G03X566600Y374300I1600J0D01*G01*
G75*G03X563400Y374300I-1600J0D01*G01*
X565000Y364300D02*Y361100D01*
Y364300D02*X567773Y365900D01*
X565000Y364300D02*X562227Y365900D01*
X563400Y364300D02*G75*G03X566600Y364300I1600J0D01*G01*
G75*G03X563400Y364300I-1600J0D01*G01*
X575000Y374300D02*Y371100D01*
Y374300D02*X577773Y375900D01*
X575000Y374300D02*X572227Y375900D01*
X573400Y374300D02*G75*G03X576600Y374300I1600J0D01*G01*
G75*G03X573400Y374300I-1600J0D01*G01*
X575000Y364300D02*Y361100D01*
Y364300D02*X577773Y365900D01*
X575000Y364300D02*X572227Y365900D01*
X573400Y364300D02*G75*G03X576600Y364300I1600J0D01*G01*
G75*G03X573400Y364300I-1600J0D01*G01*
X585000Y374300D02*Y371100D01*
Y374300D02*X587773Y375900D01*
X585000Y374300D02*X582227Y375900D01*
X583400Y374300D02*G75*G03X586600Y374300I1600J0D01*G01*
G75*G03X583400Y374300I-1600J0D01*G01*
X585000Y364300D02*Y361100D01*
Y364300D02*X587773Y365900D01*
X585000Y364300D02*X582227Y365900D01*
X583400Y364300D02*G75*G03X586600Y364300I1600J0D01*G01*
G75*G03X583400Y364300I-1600J0D01*G01*
X595000Y374300D02*Y371100D01*
Y374300D02*X597773Y375900D01*
X595000Y374300D02*X592227Y375900D01*
X593400Y374300D02*G75*G03X596600Y374300I1600J0D01*G01*
G75*G03X593400Y374300I-1600J0D01*G01*
X595000Y364300D02*Y361100D01*
Y364300D02*X597773Y365900D01*
X595000Y364300D02*X592227Y365900D01*
X593400Y364300D02*G75*G03X596600Y364300I1600J0D01*G01*
G75*G03X593400Y364300I-1600J0D01*G01*
X605000Y374300D02*Y371100D01*
Y374300D02*X607773Y375900D01*
X605000Y374300D02*X602227Y375900D01*
X603400Y374300D02*G75*G03X606600Y374300I1600J0D01*G01*
G75*G03X603400Y374300I-1600J0D01*G01*
X605000Y364300D02*Y361100D01*
Y364300D02*X607773Y365900D01*
X605000Y364300D02*X602227Y365900D01*
X603400Y364300D02*G75*G03X606600Y364300I1600J0D01*G01*
G75*G03X603400Y364300I-1600J0D01*G01*
X418000Y368300D02*Y365100D01*
Y368300D02*X420773Y369900D01*
X418000Y368300D02*X415227Y369900D01*
X416400Y368300D02*G75*G03X419600Y368300I1600J0D01*G01*
G75*G03X416400Y368300I-1600J0D01*G01*
X408000D02*Y365100D01*
Y368300D02*X410773Y369900D01*
X408000Y368300D02*X405227Y369900D01*
X406400Y368300D02*G75*G03X409600Y368300I1600J0D01*G01*
G75*G03X406400Y368300I-1600J0D01*G01*
X398000D02*Y365100D01*
Y368300D02*X400773Y369900D01*
X398000Y368300D02*X395227Y369900D01*
X396400Y368300D02*G75*G03X399600Y368300I1600J0D01*G01*
G75*G03X396400Y368300I-1600J0D01*G01*
X133000Y485300D02*Y482100D01*
Y485300D02*X135773Y486900D01*
X133000Y485300D02*X130227Y486900D01*
X131400Y485300D02*G75*G03X134600Y485300I1600J0D01*G01*
G75*G03X131400Y485300I-1600J0D01*G01*
X133000Y475300D02*Y472100D01*
Y475300D02*X135773Y476900D01*
X133000Y475300D02*X130227Y476900D01*
X131400Y475300D02*G75*G03X134600Y475300I1600J0D01*G01*
G75*G03X131400Y475300I-1600J0D01*G01*
X205000Y370300D02*Y367100D01*
Y370300D02*X207773Y371900D01*
X205000Y370300D02*X202227Y371900D01*
X203400Y370300D02*G75*G03X206600Y370300I1600J0D01*G01*
G75*G03X203400Y370300I-1600J0D01*G01*
X195000D02*Y367100D01*
Y370300D02*X197773Y371900D01*
X195000Y370300D02*X192227Y371900D01*
X193400Y370300D02*G75*G03X196600Y370300I1600J0D01*G01*
G75*G03X193400Y370300I-1600J0D01*G01*
X185000D02*Y367100D01*
Y370300D02*X187773Y371900D01*
X185000Y370300D02*X182227Y371900D01*
X183400Y370300D02*G75*G03X186600Y370300I1600J0D01*G01*
G75*G03X183400Y370300I-1600J0D01*G01*
X175000D02*Y367100D01*
Y370300D02*X177773Y371900D01*
X175000Y370300D02*X172227Y371900D01*
X173400Y370300D02*G75*G03X176600Y370300I1600J0D01*G01*
G75*G03X173400Y370300I-1600J0D01*G01*
X165000D02*Y367100D01*
Y370300D02*X167773Y371900D01*
X165000Y370300D02*X162227Y371900D01*
X163400Y370300D02*G75*G03X166600Y370300I1600J0D01*G01*
G75*G03X163400Y370300I-1600J0D01*G01*
X155000D02*Y367100D01*
Y370300D02*X157773Y371900D01*
X155000Y370300D02*X152227Y371900D01*
X153400Y370300D02*G75*G03X156600Y370300I1600J0D01*G01*
G75*G03X153400Y370300I-1600J0D01*G01*
X229000Y374300D02*Y371100D01*
Y374300D02*X231773Y375900D01*
X229000Y374300D02*X226227Y375900D01*
X227400Y374300D02*G75*G03X230600Y374300I1600J0D01*G01*
G75*G03X227400Y374300I-1600J0D01*G01*
X229000Y364300D02*Y361100D01*
Y364300D02*X231773Y365900D01*
X229000Y364300D02*X226227Y365900D01*
X227400Y364300D02*G75*G03X230600Y364300I1600J0D01*G01*
G75*G03X227400Y364300I-1600J0D01*G01*
X239000Y374300D02*Y371100D01*
Y374300D02*X241773Y375900D01*
X239000Y374300D02*X236227Y375900D01*
X237400Y374300D02*G75*G03X240600Y374300I1600J0D01*G01*
G75*G03X237400Y374300I-1600J0D01*G01*
X239000Y364300D02*Y361100D01*
Y364300D02*X241773Y365900D01*
X239000Y364300D02*X236227Y365900D01*
X237400Y364300D02*G75*G03X240600Y364300I1600J0D01*G01*
G75*G03X237400Y364300I-1600J0D01*G01*
X249000Y374300D02*Y371100D01*
Y374300D02*X251773Y375900D01*
X249000Y374300D02*X246227Y375900D01*
X247400Y374300D02*G75*G03X250600Y374300I1600J0D01*G01*
G75*G03X247400Y374300I-1600J0D01*G01*
X249000Y364300D02*Y361100D01*
Y364300D02*X251773Y365900D01*
X249000Y364300D02*X246227Y365900D01*
X247400Y364300D02*G75*G03X250600Y364300I1600J0D01*G01*
G75*G03X247400Y364300I-1600J0D01*G01*
X259000Y374300D02*Y371100D01*
Y374300D02*X261773Y375900D01*
X259000Y374300D02*X256227Y375900D01*
X257400Y374300D02*G75*G03X260600Y374300I1600J0D01*G01*
G75*G03X257400Y374300I-1600J0D01*G01*
X259000Y364300D02*Y361100D01*
Y364300D02*X261773Y365900D01*
X259000Y364300D02*X256227Y365900D01*
X257400Y364300D02*G75*G03X260600Y364300I1600J0D01*G01*
G75*G03X257400Y364300I-1600J0D01*G01*
X269000Y374300D02*Y371100D01*
Y374300D02*X271773Y375900D01*
X269000Y374300D02*X266227Y375900D01*
X267400Y374300D02*G75*G03X270600Y374300I1600J0D01*G01*
G75*G03X267400Y374300I-1600J0D01*G01*
X269000Y364300D02*Y361100D01*
Y364300D02*X271773Y365900D01*
X269000Y364300D02*X266227Y365900D01*
X267400Y364300D02*G75*G03X270600Y364300I1600J0D01*G01*
G75*G03X267400Y364300I-1600J0D01*G01*
X279000Y374300D02*Y371100D01*
Y374300D02*X281773Y375900D01*
X279000Y374300D02*X276227Y375900D01*
X277400Y374300D02*G75*G03X280600Y374300I1600J0D01*G01*
G75*G03X277400Y374300I-1600J0D01*G01*
X279000Y364300D02*Y361100D01*
Y364300D02*X281773Y365900D01*
X279000Y364300D02*X276227Y365900D01*
X277400Y364300D02*G75*G03X280600Y364300I1600J0D01*G01*
G75*G03X277400Y364300I-1600J0D01*G01*
X289000Y374300D02*Y371100D01*
Y374300D02*X291773Y375900D01*
X289000Y374300D02*X286227Y375900D01*
X287400Y374300D02*G75*G03X290600Y374300I1600J0D01*G01*
G75*G03X287400Y374300I-1600J0D01*G01*
X289000Y364300D02*Y361100D01*
Y364300D02*X291773Y365900D01*
X289000Y364300D02*X286227Y365900D01*
X287400Y364300D02*G75*G03X290600Y364300I1600J0D01*G01*
G75*G03X287400Y364300I-1600J0D01*G01*
X299000Y374300D02*Y371100D01*
Y374300D02*X301773Y375900D01*
X299000Y374300D02*X296227Y375900D01*
X297400Y374300D02*G75*G03X300600Y374300I1600J0D01*G01*
G75*G03X297400Y374300I-1600J0D01*G01*
X299000Y364300D02*Y361100D01*
Y364300D02*X301773Y365900D01*
X299000Y364300D02*X296227Y365900D01*
X297400Y364300D02*G75*G03X300600Y364300I1600J0D01*G01*
G75*G03X297400Y364300I-1600J0D01*G01*
X112000Y368300D02*Y365100D01*
Y368300D02*X114773Y369900D01*
X112000Y368300D02*X109227Y369900D01*
X110400Y368300D02*G75*G03X113600Y368300I1600J0D01*G01*
G75*G03X110400Y368300I-1600J0D01*G01*
X102000D02*Y365100D01*
Y368300D02*X104773Y369900D01*
X102000Y368300D02*X99227Y369900D01*
X100400Y368300D02*G75*G03X103600Y368300I1600J0D01*G01*
G75*G03X100400Y368300I-1600J0D01*G01*
X92000D02*Y365100D01*
Y368300D02*X94773Y369900D01*
X92000Y368300D02*X89227Y369900D01*
X90400Y368300D02*G75*G03X93600Y368300I1600J0D01*G01*
G75*G03X90400Y368300I-1600J0D01*G01*
X15000Y605250D02*Y602050D01*
Y605250D02*X17773Y606850D01*
X15000Y605250D02*X12227Y606850D01*
X13400Y605250D02*G75*G03X16600Y605250I1600J0D01*G01*
G75*G03X13400Y605250I-1600J0D01*G01*
X135000Y607500D02*Y606750D01*
X136500Y605250D01*
X138000Y606750D01*
Y607500D02*Y606750D01*
X136500Y605250D02*Y601500D01*
X139801Y604500D02*X142051D01*
X139801Y601500D02*X142801D01*
X139801Y607500D02*Y601500D01*
Y607500D02*X142801D01*
X147603D02*X148353Y606750D01*
X145353Y607500D02*X147603D01*
X144603Y606750D02*X145353Y607500D01*
X144603Y606750D02*Y605250D01*
X145353Y604500D01*
X147603D01*
X148353Y603750D01*
Y602250D01*
X147603Y601500D02*X148353Y602250D01*
X145353Y601500D02*X147603D01*
X144603Y602250D02*X145353Y601500D01*
X135000Y598249D02*X150154D01*
X98000Y606750D02*X98750Y607500D01*
X101000D01*
X101750Y606750D01*
Y605250D01*
X98000Y601500D02*X101750Y605250D01*
X98000Y601500D02*X101750D01*
X103551Y604500D02*X106551Y607500D01*
X103551Y604500D02*X107301D01*
X106551Y607500D02*Y601500D01*
X109103D02*X112853Y605250D01*
Y607500D02*Y605250D01*
X109103Y607500D02*X112853D01*
X98000Y598249D02*X114654D01*
X45000Y602250D02*X45750Y601500D01*
X45000Y606750D02*Y602250D01*
Y606750D02*X45750Y607500D01*
X47250D01*
X48000Y606750D01*
Y602250D01*
X47250Y601500D02*X48000Y602250D01*
X45750Y601500D02*X47250D01*
X45000Y603000D02*X48000Y606000D01*
X49801Y601500D02*X50551D01*
X52353Y602250D02*X53103Y601500D01*
X52353Y606750D02*Y602250D01*
Y606750D02*X53103Y607500D01*
X54603D01*
X55353Y606750D01*
Y602250D01*
X54603Y601500D02*X55353Y602250D01*
X53103Y601500D02*X54603D01*
X52353Y603000D02*X55353Y606000D01*
X57154Y606750D02*X57904Y607500D01*
X59404D01*
X60154Y606750D01*
Y602250D01*
X59404Y601500D02*X60154Y602250D01*
X57904Y601500D02*X59404D01*
X57154Y602250D02*X57904Y601500D01*
Y604500D02*X60154D01*
X61956Y602250D02*X62706Y601500D01*
X61956Y603750D02*Y602250D01*
Y603750D02*X62706Y604500D01*
X64206D01*
X64956Y603750D01*
Y602250D01*
X64206Y601500D02*X64956Y602250D01*
X62706Y601500D02*X64206D01*
X61956Y605250D02*X62706Y604500D01*
X61956Y606750D02*Y605250D01*
Y606750D02*X62706Y607500D01*
X64206D01*
X64956Y606750D01*
Y605250D01*
X64206Y604500D02*X64956Y605250D01*
X45000Y598249D02*X66757D01*
X838700Y60700D02*X841900D01*
X838700D02*Y57500D01*
X841900D01*
Y60700D02*Y57500D01*
X849500Y60700D02*X852700D01*
X849500D02*Y57500D01*
X852700D01*
Y60700D02*Y57500D01*
X860300Y60700D02*X863500D01*
X860300D02*Y57500D01*
X863500D01*
Y60700D02*Y57500D01*
X871100Y60700D02*X874300D01*
X871100D02*Y57500D01*
X874300D01*
Y60700D02*Y57500D01*
X881900Y60700D02*X885100D01*
X881900D02*Y57500D01*
X885100D01*
Y60700D02*Y57500D01*
X844100Y49500D02*X847300D01*
X844100D02*Y46300D01*
X847300D01*
Y49500D02*Y46300D01*
X854900Y49500D02*X858100D01*
X854900D02*Y46300D01*
X858100D01*
Y49500D02*Y46300D01*
X865700Y49500D02*X868900D01*
X865700D02*Y46300D01*
X868900D01*
Y49500D02*Y46300D01*
X876500Y49500D02*X879700D01*
X876500D02*Y46300D01*
X879700D01*
Y49500D02*Y46300D01*
X532700Y60700D02*X535900D01*
X532700D02*Y57500D01*
X535900D01*
Y60700D02*Y57500D01*
X543500Y60700D02*X546700D01*
X543500D02*Y57500D01*
X546700D01*
Y60700D02*Y57500D01*
X554300Y60700D02*X557500D01*
X554300D02*Y57500D01*
X557500D01*
Y60700D02*Y57500D01*
X565100Y60700D02*X568300D01*
X565100D02*Y57500D01*
X568300D01*
Y60700D02*Y57500D01*
X575900Y60700D02*X579100D01*
X575900D02*Y57500D01*
X579100D01*
Y60700D02*Y57500D01*
X538100Y49500D02*X541300D01*
X538100D02*Y46300D01*
X541300D01*
Y49500D02*Y46300D01*
X548900Y49500D02*X552100D01*
X548900D02*Y46300D01*
X552100D01*
Y49500D02*Y46300D01*
X559700Y49500D02*X562900D01*
X559700D02*Y46300D01*
X562900D01*
Y49500D02*Y46300D01*
X570500Y49500D02*X573700D01*
X570500D02*Y46300D01*
X573700D01*
Y49500D02*Y46300D01*
X142400Y491900D02*X145600D01*
X142400D02*Y488700D01*
X145600D01*
Y491900D02*Y488700D01*
X278400Y401900D02*X281600D01*
X278400D02*Y398700D01*
X281600D01*
Y401900D02*Y398700D01*
X70400Y376900D02*X73600D01*
X70400D02*Y373700D01*
X73600D01*
Y376900D02*Y373700D01*
X70400Y388900D02*X73600D01*
X70400D02*Y385700D01*
X73600D01*
Y388900D02*Y385700D01*
X40400Y476400D02*X43600D01*
X40400D02*Y473200D01*
X43600D01*
Y476400D02*Y473200D01*
X448400Y491900D02*X451600D01*
X448400D02*Y488700D01*
X451600D01*
Y491900D02*Y488700D01*
X584400Y401900D02*X587600D01*
X584400D02*Y398700D01*
X587600D01*
Y401900D02*Y398700D01*
X376400Y376900D02*X379600D01*
X376400D02*Y373700D01*
X379600D01*
Y376900D02*Y373700D01*
X376400Y388900D02*X379600D01*
X376400D02*Y385700D01*
X379600D01*
Y388900D02*Y385700D01*
X346400Y476400D02*X349600D01*
X346400D02*Y473200D01*
X349600D01*
Y476400D02*Y473200D01*
X754400Y491900D02*X757600D01*
X754400D02*Y488700D01*
X757600D01*
Y491900D02*Y488700D01*
X890400Y401900D02*X893600D01*
X890400D02*Y398700D01*
X893600D01*
Y401900D02*Y398700D01*
X682400Y376900D02*X685600D01*
X682400D02*Y373700D01*
X685600D01*
Y376900D02*Y373700D01*
X682400Y388900D02*X685600D01*
X682400D02*Y385700D01*
X685600D01*
Y388900D02*Y385700D01*
X652400Y476400D02*X655600D01*
X652400D02*Y473200D01*
X655600D01*
Y476400D02*Y473200D01*
X142400Y323900D02*X145600D01*
X142400D02*Y320700D01*
X145600D01*
Y323900D02*Y320700D01*
X278400Y233900D02*X281600D01*
X278400D02*Y230700D01*
X281600D01*
Y233900D02*Y230700D01*
X70400Y208900D02*X73600D01*
X70400D02*Y205700D01*
X73600D01*
Y208900D02*Y205700D01*
X70400Y220900D02*X73600D01*
X70400D02*Y217700D01*
X73600D01*
Y220900D02*Y217700D01*
X40400Y308400D02*X43600D01*
X40400D02*Y305200D01*
X43600D01*
Y308400D02*Y305200D01*
X448400Y323900D02*X451600D01*
X448400D02*Y320700D01*
X451600D01*
Y323900D02*Y320700D01*
X584400Y233900D02*X587600D01*
X584400D02*Y230700D01*
X587600D01*
Y233900D02*Y230700D01*
X376400Y208900D02*X379600D01*
X376400D02*Y205700D01*
X379600D01*
Y208900D02*Y205700D01*
X376400Y220900D02*X379600D01*
X376400D02*Y217700D01*
X379600D01*
Y220900D02*Y217700D01*
X346400Y308400D02*X349600D01*
X346400D02*Y305200D01*
X349600D01*
Y308400D02*Y305200D01*
X754400Y323900D02*X757600D01*
X754400D02*Y320700D01*
X757600D01*
Y323900D02*Y320700D01*
X890400Y233900D02*X893600D01*
X890400D02*Y230700D01*
X893600D01*
Y233900D02*Y230700D01*
X682400Y208900D02*X685600D01*
X682400D02*Y205700D01*
X685600D01*
Y208900D02*Y205700D01*
X682400Y220900D02*X685600D01*
X682400D02*Y217700D01*
X685600D01*
Y220900D02*Y217700D01*
X652400Y308400D02*X655600D01*
X652400D02*Y305200D01*
X655600D01*
Y308400D02*Y305200D01*
X142400Y155900D02*X145600D01*
X142400D02*Y152700D01*
X145600D01*
Y155900D02*Y152700D01*
X278400Y65900D02*X281600D01*
X278400D02*Y62700D01*
X281600D01*
Y65900D02*Y62700D01*
X70400Y40900D02*X73600D01*
X70400D02*Y37700D01*
X73600D01*
Y40900D02*Y37700D01*
X70400Y52900D02*X73600D01*
X70400D02*Y49700D01*
X73600D01*
Y52900D02*Y49700D01*
X40400Y140400D02*X43600D01*
X40400D02*Y137200D01*
X43600D01*
Y140400D02*Y137200D01*
X13400Y621850D02*X16600D01*
X13400D02*Y618650D01*
X16600D01*
Y621850D02*Y618650D01*
X135000Y622500D02*Y621750D01*
X136500Y620250D01*
X138000Y621750D01*
Y622500D02*Y621750D01*
X136500Y620250D02*Y616500D01*
X139801Y619500D02*X142051D01*
X139801Y616500D02*X142801D01*
X139801Y622500D02*Y616500D01*
Y622500D02*X142801D01*
X147603D02*X148353Y621750D01*
X145353Y622500D02*X147603D01*
X144603Y621750D02*X145353Y622500D01*
X144603Y621750D02*Y620250D01*
X145353Y619500D01*
X147603D01*
X148353Y618750D01*
Y617250D01*
X147603Y616500D02*X148353Y617250D01*
X145353Y616500D02*X147603D01*
X144603Y617250D02*X145353Y616500D01*
X135000Y613249D02*X150154D01*
X98000Y622500D02*X101000D01*
X98000D02*Y619500D01*
X98750Y620250D01*
X100250D01*
X101000Y619500D01*
Y617250D01*
X100250Y616500D02*X101000Y617250D01*
X98750Y616500D02*X100250D01*
X98000Y617250D02*X98750Y616500D01*
X102801Y621750D02*X103551Y622500D01*
X105051D01*
X105801Y621750D01*
Y617250D01*
X105051Y616500D02*X105801Y617250D01*
X103551Y616500D02*X105051D01*
X102801Y617250D02*X103551Y616500D01*
Y619500D02*X105801D01*
X98000Y613249D02*X107603D01*
X45000Y617250D02*X45750Y616500D01*
X45000Y621750D02*Y617250D01*
Y621750D02*X45750Y622500D01*
X47250D01*
X48000Y621750D01*
Y617250D01*
X47250Y616500D02*X48000Y617250D01*
X45750Y616500D02*X47250D01*
X45000Y618000D02*X48000Y621000D01*
X49801Y616500D02*X50551D01*
X52353Y617250D02*X53103Y616500D01*
X52353Y621750D02*Y617250D01*
Y621750D02*X53103Y622500D01*
X54603D01*
X55353Y621750D01*
Y617250D01*
X54603Y616500D02*X55353Y617250D01*
X53103Y616500D02*X54603D01*
X52353Y618000D02*X55353Y621000D01*
X57154Y621750D02*X57904Y622500D01*
X59404D01*
X60154Y621750D01*
Y617250D01*
X59404Y616500D02*X60154Y617250D01*
X57904Y616500D02*X59404D01*
X57154Y617250D02*X57904Y616500D01*
Y619500D02*X60154D01*
X61956Y622500D02*X64956D01*
X61956D02*Y619500D01*
X62706Y620250D01*
X64206D01*
X64956Y619500D01*
Y617250D01*
X64206Y616500D02*X64956Y617250D01*
X62706Y616500D02*X64206D01*
X61956Y617250D02*X62706Y616500D01*
X45000Y613249D02*X66757D01*
X788062Y53500D02*G75*G03X789662Y53500I800J0D01*G01*
G75*G03X788062Y53500I-800J0D01*G01*
X778062D02*G75*G03X779662Y53500I800J0D01*G01*
G75*G03X778062Y53500I-800J0D01*G01*
X774700Y76500D02*G75*G03X776300Y76500I800J0D01*G01*
G75*G03X774700Y76500I-800J0D01*G01*
Y106500D02*G75*G03X776300Y106500I800J0D01*G01*
G75*G03X774700Y106500I-800J0D01*G01*
X482062Y53500D02*G75*G03X483662Y53500I800J0D01*G01*
G75*G03X482062Y53500I-800J0D01*G01*
X472062D02*G75*G03X473662Y53500I800J0D01*G01*
G75*G03X472062Y53500I-800J0D01*G01*
X468700Y76500D02*G75*G03X470300Y76500I800J0D01*G01*
G75*G03X468700Y76500I-800J0D01*G01*
Y106500D02*G75*G03X470300Y106500I800J0D01*G01*
G75*G03X468700Y106500I-800J0D01*G01*
X90200Y116300D02*G75*G03X91800Y116300I800J0D01*G01*
G75*G03X90200Y116300I-800J0D01*G01*
X100200D02*G75*G03X101800Y116300I800J0D01*G01*
G75*G03X100200Y116300I-800J0D01*G01*
X112700Y107800D02*G75*G03X114300Y107800I800J0D01*G01*
G75*G03X112700Y107800I-800J0D01*G01*
X142700D02*G75*G03X144300Y107800I800J0D01*G01*
G75*G03X142700Y107800I-800J0D01*G01*
X702200Y284300D02*G75*G03X703800Y284300I800J0D01*G01*
G75*G03X702200Y284300I-800J0D01*G01*
X712200D02*G75*G03X713800Y284300I800J0D01*G01*
G75*G03X712200Y284300I-800J0D01*G01*
X724700Y275800D02*G75*G03X726300Y275800I800J0D01*G01*
G75*G03X724700Y275800I-800J0D01*G01*
X754700D02*G75*G03X756300Y275800I800J0D01*G01*
G75*G03X754700Y275800I-800J0D01*G01*
X396200Y284300D02*G75*G03X397800Y284300I800J0D01*G01*
G75*G03X396200Y284300I-800J0D01*G01*
X406200D02*G75*G03X407800Y284300I800J0D01*G01*
G75*G03X406200Y284300I-800J0D01*G01*
X418700Y275800D02*G75*G03X420300Y275800I800J0D01*G01*
G75*G03X418700Y275800I-800J0D01*G01*
X448700D02*G75*G03X450300Y275800I800J0D01*G01*
G75*G03X448700Y275800I-800J0D01*G01*
X90200Y284300D02*G75*G03X91800Y284300I800J0D01*G01*
G75*G03X90200Y284300I-800J0D01*G01*
X100200D02*G75*G03X101800Y284300I800J0D01*G01*
G75*G03X100200Y284300I-800J0D01*G01*
X112700Y275800D02*G75*G03X114300Y275800I800J0D01*G01*
G75*G03X112700Y275800I-800J0D01*G01*
X142700D02*G75*G03X144300Y275800I800J0D01*G01*
G75*G03X142700Y275800I-800J0D01*G01*
X702200Y452300D02*G75*G03X703800Y452300I800J0D01*G01*
G75*G03X702200Y452300I-800J0D01*G01*
X712200D02*G75*G03X713800Y452300I800J0D01*G01*
G75*G03X712200Y452300I-800J0D01*G01*
X724700Y443800D02*G75*G03X726300Y443800I800J0D01*G01*
G75*G03X724700Y443800I-800J0D01*G01*
X754700D02*G75*G03X756300Y443800I800J0D01*G01*
G75*G03X754700Y443800I-800J0D01*G01*
X396200Y452300D02*G75*G03X397800Y452300I800J0D01*G01*
G75*G03X396200Y452300I-800J0D01*G01*
X406200D02*G75*G03X407800Y452300I800J0D01*G01*
G75*G03X406200Y452300I-800J0D01*G01*
X418700Y443800D02*G75*G03X420300Y443800I800J0D01*G01*
G75*G03X418700Y443800I-800J0D01*G01*
X448700D02*G75*G03X450300Y443800I800J0D01*G01*
G75*G03X448700Y443800I-800J0D01*G01*
X90200Y452300D02*G75*G03X91800Y452300I800J0D01*G01*
G75*G03X90200Y452300I-800J0D01*G01*
X100200D02*G75*G03X101800Y452300I800J0D01*G01*
G75*G03X100200Y452300I-800J0D01*G01*
X112700Y443800D02*G75*G03X114300Y443800I800J0D01*G01*
G75*G03X112700Y443800I-800J0D01*G01*
X142700D02*G75*G03X144300Y443800I800J0D01*G01*
G75*G03X142700Y443800I-800J0D01*G01*
X254200Y413300D02*G75*G03X255800Y413300I800J0D01*G01*
G75*G03X254200Y413300I-800J0D01*G01*
X560200D02*G75*G03X561800Y413300I800J0D01*G01*
G75*G03X560200Y413300I-800J0D01*G01*
X866200D02*G75*G03X867800Y413300I800J0D01*G01*
G75*G03X866200Y413300I-800J0D01*G01*
X254200Y245300D02*G75*G03X255800Y245300I800J0D01*G01*
G75*G03X254200Y245300I-800J0D01*G01*
X560200D02*G75*G03X561800Y245300I800J0D01*G01*
G75*G03X560200Y245300I-800J0D01*G01*
X866200D02*G75*G03X867800Y245300I800J0D01*G01*
G75*G03X866200Y245300I-800J0D01*G01*
X254200Y77300D02*G75*G03X255800Y77300I800J0D01*G01*
G75*G03X254200Y77300I-800J0D01*G01*
X14200Y635250D02*G75*G03X15800Y635250I800J0D01*G01*
G75*G03X14200Y635250I-800J0D01*G01*
X135000Y637500D02*Y636750D01*
X136500Y635250D01*
X138000Y636750D01*
Y637500D02*Y636750D01*
X136500Y635250D02*Y631500D01*
X139801Y634500D02*X142051D01*
X139801Y631500D02*X142801D01*
X139801Y637500D02*Y631500D01*
Y637500D02*X142801D01*
X147603D02*X148353Y636750D01*
X145353Y637500D02*X147603D01*
X144603Y636750D02*X145353Y637500D01*
X144603Y636750D02*Y635250D01*
X145353Y634500D01*
X147603D01*
X148353Y633750D01*
Y632250D01*
X147603Y631500D02*X148353Y632250D01*
X145353Y631500D02*X147603D01*
X144603Y632250D02*X145353Y631500D01*
X135000Y628249D02*X150154D01*
X98000Y634500D02*X101000Y637500D01*
X98000Y634500D02*X101750D01*
X101000Y637500D02*Y631500D01*
X103551Y636750D02*X104301Y637500D01*
X105801D01*
X106551Y636750D01*
Y632250D01*
X105801Y631500D02*X106551Y632250D01*
X104301Y631500D02*X105801D01*
X103551Y632250D02*X104301Y631500D01*
Y634500D02*X106551D01*
X98000Y628249D02*X108353D01*
X45000Y632250D02*X45750Y631500D01*
X45000Y636750D02*Y632250D01*
Y636750D02*X45750Y637500D01*
X47250D01*
X48000Y636750D01*
Y632250D01*
X47250Y631500D02*X48000Y632250D01*
X45750Y631500D02*X47250D01*
X45000Y633000D02*X48000Y636000D01*
X49801Y631500D02*X50551D01*
X52353Y632250D02*X53103Y631500D01*
X52353Y636750D02*Y632250D01*
Y636750D02*X53103Y637500D01*
X54603D01*
X55353Y636750D01*
Y632250D01*
X54603Y631500D02*X55353Y632250D01*
X53103Y631500D02*X54603D01*
X52353Y633000D02*X55353Y636000D01*
X57154Y636750D02*X57904Y637500D01*
X59404D01*
X60154Y636750D01*
Y632250D01*
X59404Y631500D02*X60154Y632250D01*
X57904Y631500D02*X59404D01*
X57154Y632250D02*X57904Y631500D01*
Y634500D02*X60154D01*
X61956Y632250D02*X62706Y631500D01*
X61956Y636750D02*Y632250D01*
Y636750D02*X62706Y637500D01*
X64206D01*
X64956Y636750D01*
Y632250D01*
X64206Y631500D02*X64956Y632250D01*
X62706Y631500D02*X64206D01*
X61956Y633000D02*X64956Y636000D01*
X45000Y628249D02*X66757D01*
X845300Y116200D02*X847700Y113800D01*
X845300D02*X847700Y116200D01*
X855300D02*X857700Y113800D01*
X855300D02*X857700Y116200D01*
X865300D02*X867700Y113800D01*
X865300D02*X867700Y116200D01*
X875300D02*X877700Y113800D01*
X875300D02*X877700Y116200D01*
X885300D02*X887700Y113800D01*
X885300D02*X887700Y116200D01*
X895300D02*X897700Y113800D01*
X895300D02*X897700Y116200D01*
X905300D02*X907700Y113800D01*
X905300D02*X907700Y116200D01*
X915300D02*X917700Y113800D01*
X915300D02*X917700Y116200D01*
X915300Y146200D02*X917700Y143800D01*
X915300D02*X917700Y146200D01*
X905300D02*X907700Y143800D01*
X905300D02*X907700Y146200D01*
X895300D02*X897700Y143800D01*
X895300D02*X897700Y146200D01*
X885300D02*X887700Y143800D01*
X885300D02*X887700Y146200D01*
X875300D02*X877700Y143800D01*
X875300D02*X877700Y146200D01*
X865300D02*X867700Y143800D01*
X865300D02*X867700Y146200D01*
X855300D02*X857700Y143800D01*
X855300D02*X857700Y146200D01*
X845300D02*X847700Y143800D01*
X845300D02*X847700Y146200D01*
X738300Y40700D02*X740700Y38300D01*
X738300D02*X740700Y40700D01*
X738300Y50700D02*X740700Y48300D01*
X738300D02*X740700Y50700D01*
X738300Y60700D02*X740700Y58300D01*
X738300D02*X740700Y60700D01*
X738300Y70700D02*X740700Y68300D01*
X738300D02*X740700Y70700D01*
X738300Y80700D02*X740700Y78300D01*
X738300D02*X740700Y80700D01*
X738300Y90700D02*X740700Y88300D01*
X738300D02*X740700Y90700D01*
X738300Y100700D02*X740700Y98300D01*
X738300D02*X740700Y100700D01*
X738300Y110700D02*X740700Y108300D01*
X738300D02*X740700Y110700D01*
X738300Y120700D02*X740700Y118300D01*
X738300D02*X740700Y120700D01*
X738300Y130700D02*X740700Y128300D01*
X738300D02*X740700Y130700D01*
X738300Y140700D02*X740700Y138300D01*
X738300D02*X740700Y140700D01*
X738300Y150700D02*X740700Y148300D01*
X738300D02*X740700Y150700D01*
X738300Y160700D02*X740700Y158300D01*
X738300D02*X740700Y160700D01*
X738300Y170700D02*X740700Y168300D01*
X738300D02*X740700Y170700D01*
X698300D02*X700700Y168300D01*
X698300D02*X700700Y170700D01*
X698300Y160700D02*X700700Y158300D01*
X698300D02*X700700Y160700D01*
X698300Y150700D02*X700700Y148300D01*
X698300D02*X700700Y150700D01*
X698300Y140700D02*X700700Y138300D01*
X698300D02*X700700Y140700D01*
X698300Y130700D02*X700700Y128300D01*
X698300D02*X700700Y130700D01*
X698300Y120700D02*X700700Y118300D01*
X698300D02*X700700Y120700D01*
X698300Y110700D02*X700700Y108300D01*
X698300D02*X700700Y110700D01*
X698300Y100700D02*X700700Y98300D01*
X698300D02*X700700Y100700D01*
X698300Y90700D02*X700700Y88300D01*
X698300D02*X700700Y90700D01*
X698300Y80700D02*X700700Y78300D01*
X698300D02*X700700Y80700D01*
X698300Y70700D02*X700700Y68300D01*
X698300D02*X700700Y70700D01*
X698300Y60700D02*X700700Y58300D01*
X698300D02*X700700Y60700D01*
X698300Y50700D02*X700700Y48300D01*
X698300D02*X700700Y50700D01*
X698300Y40700D02*X700700Y38300D01*
X698300D02*X700700Y40700D01*
X827800Y96700D02*X830200Y94300D01*
X827800D02*X830200Y96700D01*
X827800Y106700D02*X830200Y104300D01*
X827800D02*X830200Y106700D01*
X827800Y116700D02*X830200Y114300D01*
X827800D02*X830200Y116700D01*
X827800Y126700D02*X830200Y124300D01*
X827800D02*X830200Y126700D01*
X797800D02*X800200Y124300D01*
X797800D02*X800200Y126700D01*
X797800Y116700D02*X800200Y114300D01*
X797800D02*X800200Y116700D01*
X797800Y106700D02*X800200Y104300D01*
X797800D02*X800200Y106700D01*
X797800Y96700D02*X800200Y94300D01*
X797800D02*X800200Y96700D01*
X539300Y116200D02*X541700Y113800D01*
X539300D02*X541700Y116200D01*
X549300D02*X551700Y113800D01*
X549300D02*X551700Y116200D01*
X559300D02*X561700Y113800D01*
X559300D02*X561700Y116200D01*
X569300D02*X571700Y113800D01*
X569300D02*X571700Y116200D01*
X579300D02*X581700Y113800D01*
X579300D02*X581700Y116200D01*
X589300D02*X591700Y113800D01*
X589300D02*X591700Y116200D01*
X599300D02*X601700Y113800D01*
X599300D02*X601700Y116200D01*
X609300D02*X611700Y113800D01*
X609300D02*X611700Y116200D01*
X609300Y146200D02*X611700Y143800D01*
X609300D02*X611700Y146200D01*
X599300D02*X601700Y143800D01*
X599300D02*X601700Y146200D01*
X589300D02*X591700Y143800D01*
X589300D02*X591700Y146200D01*
X579300D02*X581700Y143800D01*
X579300D02*X581700Y146200D01*
X569300D02*X571700Y143800D01*
X569300D02*X571700Y146200D01*
X559300D02*X561700Y143800D01*
X559300D02*X561700Y146200D01*
X549300D02*X551700Y143800D01*
X549300D02*X551700Y146200D01*
X539300D02*X541700Y143800D01*
X539300D02*X541700Y146200D01*
X432300Y40700D02*X434700Y38300D01*
X432300D02*X434700Y40700D01*
X432300Y50700D02*X434700Y48300D01*
X432300D02*X434700Y50700D01*
X432300Y60700D02*X434700Y58300D01*
X432300D02*X434700Y60700D01*
X432300Y70700D02*X434700Y68300D01*
X432300D02*X434700Y70700D01*
X432300Y80700D02*X434700Y78300D01*
X432300D02*X434700Y80700D01*
X432300Y90700D02*X434700Y88300D01*
X432300D02*X434700Y90700D01*
X432300Y100700D02*X434700Y98300D01*
X432300D02*X434700Y100700D01*
X432300Y110700D02*X434700Y108300D01*
X432300D02*X434700Y110700D01*
X432300Y120700D02*X434700Y118300D01*
X432300D02*X434700Y120700D01*
X432300Y130700D02*X434700Y128300D01*
X432300D02*X434700Y130700D01*
X432300Y140700D02*X434700Y138300D01*
X432300D02*X434700Y140700D01*
X432300Y150700D02*X434700Y148300D01*
X432300D02*X434700Y150700D01*
X432300Y160700D02*X434700Y158300D01*
X432300D02*X434700Y160700D01*
X432300Y170700D02*X434700Y168300D01*
X432300D02*X434700Y170700D01*
X392300D02*X394700Y168300D01*
X392300D02*X394700Y170700D01*
X392300Y160700D02*X394700Y158300D01*
X392300D02*X394700Y160700D01*
X392300Y150700D02*X394700Y148300D01*
X392300D02*X394700Y150700D01*
X392300Y140700D02*X394700Y138300D01*
X392300D02*X394700Y140700D01*
X392300Y130700D02*X394700Y128300D01*
X392300D02*X394700Y130700D01*
X392300Y120700D02*X394700Y118300D01*
X392300D02*X394700Y120700D01*
X392300Y110700D02*X394700Y108300D01*
X392300D02*X394700Y110700D01*
X392300Y100700D02*X394700Y98300D01*
X392300D02*X394700Y100700D01*
X392300Y90700D02*X394700Y88300D01*
X392300D02*X394700Y90700D01*
X392300Y80700D02*X394700Y78300D01*
X392300D02*X394700Y80700D01*
X392300Y70700D02*X394700Y68300D01*
X392300D02*X394700Y70700D01*
X392300Y60700D02*X394700Y58300D01*
X392300D02*X394700Y60700D01*
X392300Y50700D02*X394700Y48300D01*
X392300D02*X394700Y50700D01*
X392300Y40700D02*X394700Y38300D01*
X392300D02*X394700Y40700D01*
X521800Y96700D02*X524200Y94300D01*
X521800D02*X524200Y96700D01*
X521800Y106700D02*X524200Y104300D01*
X521800D02*X524200Y106700D01*
X521800Y116700D02*X524200Y114300D01*
X521800D02*X524200Y116700D01*
X521800Y126700D02*X524200Y124300D01*
X521800D02*X524200Y126700D01*
X491800D02*X494200Y124300D01*
X491800D02*X494200Y126700D01*
X491800Y116700D02*X494200Y114300D01*
X491800D02*X494200Y116700D01*
X491800Y106700D02*X494200Y104300D01*
X491800D02*X494200Y106700D01*
X491800Y96700D02*X494200Y94300D01*
X491800D02*X494200Y96700D01*
X83300Y171000D02*X85700Y168600D01*
X83300D02*X85700Y171000D01*
X83300Y161000D02*X85700Y158600D01*
X83300D02*X85700Y161000D01*
X83300Y151000D02*X85700Y148600D01*
X83300D02*X85700Y151000D01*
X83300Y141000D02*X85700Y138600D01*
X83300D02*X85700Y141000D01*
X113300D02*X115700Y138600D01*
X113300D02*X115700Y141000D01*
X113300Y151000D02*X115700Y148600D01*
X113300D02*X115700Y151000D01*
X113300Y161000D02*X115700Y158600D01*
X113300D02*X115700Y161000D01*
X113300Y171000D02*X115700Y168600D01*
X113300D02*X115700Y171000D01*
X155300Y169000D02*X157700Y166600D01*
X155300D02*X157700Y169000D01*
X155300Y159000D02*X157700Y156600D01*
X155300D02*X157700Y159000D01*
X155300Y149000D02*X157700Y146600D01*
X155300D02*X157700Y149000D01*
X155300Y139000D02*X157700Y136600D01*
X155300D02*X157700Y139000D01*
X185300D02*X187700Y136600D01*
X185300D02*X187700Y139000D01*
X185300Y149000D02*X187700Y146600D01*
X185300D02*X187700Y149000D01*
X185300Y159000D02*X187700Y156600D01*
X185300D02*X187700Y159000D01*
X185300Y169000D02*X187700Y166600D01*
X185300D02*X187700Y169000D01*
X217300Y138500D02*X219700Y136100D01*
X217300D02*X219700Y138500D01*
X227300D02*X229700Y136100D01*
X227300D02*X229700Y138500D01*
X237300D02*X239700Y136100D01*
X237300D02*X239700Y138500D01*
X247300D02*X249700Y136100D01*
X247300D02*X249700Y138500D01*
X257300D02*X259700Y136100D01*
X257300D02*X259700Y138500D01*
X267300D02*X269700Y136100D01*
X267300D02*X269700Y138500D01*
X277300D02*X279700Y136100D01*
X277300D02*X279700Y138500D01*
X287300D02*X289700Y136100D01*
X287300D02*X289700Y138500D01*
X287300Y168500D02*X289700Y166100D01*
X287300D02*X289700Y168500D01*
X277300D02*X279700Y166100D01*
X277300D02*X279700Y168500D01*
X267300D02*X269700Y166100D01*
X267300D02*X269700Y168500D01*
X257300D02*X259700Y166100D01*
X257300D02*X259700Y168500D01*
X247300D02*X249700Y166100D01*
X247300D02*X249700Y168500D01*
X237300D02*X239700Y166100D01*
X237300D02*X239700Y168500D01*
X227300D02*X229700Y166100D01*
X227300D02*X229700Y168500D01*
X217300D02*X219700Y166100D01*
X217300D02*X219700Y168500D01*
X220300Y95000D02*X222700Y92600D01*
X220300D02*X222700Y95000D01*
X210300D02*X212700Y92600D01*
X210300D02*X212700Y95000D01*
X200300D02*X202700Y92600D01*
X200300D02*X202700Y95000D01*
X190300D02*X192700Y92600D01*
X190300D02*X192700Y95000D01*
X180300D02*X182700Y92600D01*
X180300D02*X182700Y95000D01*
X170300D02*X172700Y92600D01*
X170300D02*X172700Y95000D01*
X160300D02*X162700Y92600D01*
X160300D02*X162700Y95000D01*
X150300D02*X152700Y92600D01*
X150300D02*X152700Y95000D01*
X140300D02*X142700Y92600D01*
X140300D02*X142700Y95000D01*
X130300D02*X132700Y92600D01*
X130300D02*X132700Y95000D01*
X120300D02*X122700Y92600D01*
X120300D02*X122700Y95000D01*
X110300D02*X112700Y92600D01*
X110300D02*X112700Y95000D01*
X100300D02*X102700Y92600D01*
X100300D02*X102700Y95000D01*
X90300D02*X92700Y92600D01*
X90300D02*X92700Y95000D01*
X90300Y55000D02*X92700Y52600D01*
X90300D02*X92700Y55000D01*
X100300D02*X102700Y52600D01*
X100300D02*X102700Y55000D01*
X110300D02*X112700Y52600D01*
X110300D02*X112700Y55000D01*
X120300D02*X122700Y52600D01*
X120300D02*X122700Y55000D01*
X130300D02*X132700Y52600D01*
X130300D02*X132700Y55000D01*
X140300D02*X142700Y52600D01*
X140300D02*X142700Y55000D01*
X150300D02*X152700Y52600D01*
X150300D02*X152700Y55000D01*
X160300D02*X162700Y52600D01*
X160300D02*X162700Y55000D01*
X170300D02*X172700Y52600D01*
X170300D02*X172700Y55000D01*
X180300D02*X182700Y52600D01*
X180300D02*X182700Y55000D01*
X190300D02*X192700Y52600D01*
X190300D02*X192700Y55000D01*
X200300D02*X202700Y52600D01*
X200300D02*X202700Y55000D01*
X210300D02*X212700Y52600D01*
X210300D02*X212700Y55000D01*
X220300D02*X222700Y52600D01*
X220300D02*X222700Y55000D01*
X695300Y339000D02*X697700Y336600D01*
X695300D02*X697700Y339000D01*
X695300Y329000D02*X697700Y326600D01*
X695300D02*X697700Y329000D01*
X695300Y319000D02*X697700Y316600D01*
X695300D02*X697700Y319000D01*
X695300Y309000D02*X697700Y306600D01*
X695300D02*X697700Y309000D01*
X725300D02*X727700Y306600D01*
X725300D02*X727700Y309000D01*
X725300Y319000D02*X727700Y316600D01*
X725300D02*X727700Y319000D01*
X725300Y329000D02*X727700Y326600D01*
X725300D02*X727700Y329000D01*
X725300Y339000D02*X727700Y336600D01*
X725300D02*X727700Y339000D01*
X767300Y337000D02*X769700Y334600D01*
X767300D02*X769700Y337000D01*
X767300Y327000D02*X769700Y324600D01*
X767300D02*X769700Y327000D01*
X767300Y317000D02*X769700Y314600D01*
X767300D02*X769700Y317000D01*
X767300Y307000D02*X769700Y304600D01*
X767300D02*X769700Y307000D01*
X797300D02*X799700Y304600D01*
X797300D02*X799700Y307000D01*
X797300Y317000D02*X799700Y314600D01*
X797300D02*X799700Y317000D01*
X797300Y327000D02*X799700Y324600D01*
X797300D02*X799700Y327000D01*
X797300Y337000D02*X799700Y334600D01*
X797300D02*X799700Y337000D01*
X829300Y306500D02*X831700Y304100D01*
X829300D02*X831700Y306500D01*
X839300D02*X841700Y304100D01*
X839300D02*X841700Y306500D01*
X849300D02*X851700Y304100D01*
X849300D02*X851700Y306500D01*
X859300D02*X861700Y304100D01*
X859300D02*X861700Y306500D01*
X869300D02*X871700Y304100D01*
X869300D02*X871700Y306500D01*
X879300D02*X881700Y304100D01*
X879300D02*X881700Y306500D01*
X889300D02*X891700Y304100D01*
X889300D02*X891700Y306500D01*
X899300D02*X901700Y304100D01*
X899300D02*X901700Y306500D01*
X899300Y336500D02*X901700Y334100D01*
X899300D02*X901700Y336500D01*
X889300D02*X891700Y334100D01*
X889300D02*X891700Y336500D01*
X879300D02*X881700Y334100D01*
X879300D02*X881700Y336500D01*
X869300D02*X871700Y334100D01*
X869300D02*X871700Y336500D01*
X859300D02*X861700Y334100D01*
X859300D02*X861700Y336500D01*
X849300D02*X851700Y334100D01*
X849300D02*X851700Y336500D01*
X839300D02*X841700Y334100D01*
X839300D02*X841700Y336500D01*
X829300D02*X831700Y334100D01*
X829300D02*X831700Y336500D01*
X832300Y263000D02*X834700Y260600D01*
X832300D02*X834700Y263000D01*
X822300D02*X824700Y260600D01*
X822300D02*X824700Y263000D01*
X812300D02*X814700Y260600D01*
X812300D02*X814700Y263000D01*
X802300D02*X804700Y260600D01*
X802300D02*X804700Y263000D01*
X792300D02*X794700Y260600D01*
X792300D02*X794700Y263000D01*
X782300D02*X784700Y260600D01*
X782300D02*X784700Y263000D01*
X772300D02*X774700Y260600D01*
X772300D02*X774700Y263000D01*
X762300D02*X764700Y260600D01*
X762300D02*X764700Y263000D01*
X752300D02*X754700Y260600D01*
X752300D02*X754700Y263000D01*
X742300D02*X744700Y260600D01*
X742300D02*X744700Y263000D01*
X732300D02*X734700Y260600D01*
X732300D02*X734700Y263000D01*
X722300D02*X724700Y260600D01*
X722300D02*X724700Y263000D01*
X712300D02*X714700Y260600D01*
X712300D02*X714700Y263000D01*
X702300D02*X704700Y260600D01*
X702300D02*X704700Y263000D01*
X702300Y223000D02*X704700Y220600D01*
X702300D02*X704700Y223000D01*
X712300D02*X714700Y220600D01*
X712300D02*X714700Y223000D01*
X722300D02*X724700Y220600D01*
X722300D02*X724700Y223000D01*
X732300D02*X734700Y220600D01*
X732300D02*X734700Y223000D01*
X742300D02*X744700Y220600D01*
X742300D02*X744700Y223000D01*
X752300D02*X754700Y220600D01*
X752300D02*X754700Y223000D01*
X762300D02*X764700Y220600D01*
X762300D02*X764700Y223000D01*
X772300D02*X774700Y220600D01*
X772300D02*X774700Y223000D01*
X782300D02*X784700Y220600D01*
X782300D02*X784700Y223000D01*
X792300D02*X794700Y220600D01*
X792300D02*X794700Y223000D01*
X802300D02*X804700Y220600D01*
X802300D02*X804700Y223000D01*
X812300D02*X814700Y220600D01*
X812300D02*X814700Y223000D01*
X822300D02*X824700Y220600D01*
X822300D02*X824700Y223000D01*
X832300D02*X834700Y220600D01*
X832300D02*X834700Y223000D01*
X389300Y339000D02*X391700Y336600D01*
X389300D02*X391700Y339000D01*
X389300Y329000D02*X391700Y326600D01*
X389300D02*X391700Y329000D01*
X389300Y319000D02*X391700Y316600D01*
X389300D02*X391700Y319000D01*
X389300Y309000D02*X391700Y306600D01*
X389300D02*X391700Y309000D01*
X419300D02*X421700Y306600D01*
X419300D02*X421700Y309000D01*
X419300Y319000D02*X421700Y316600D01*
X419300D02*X421700Y319000D01*
X419300Y329000D02*X421700Y326600D01*
X419300D02*X421700Y329000D01*
X419300Y339000D02*X421700Y336600D01*
X419300D02*X421700Y339000D01*
X461300Y337000D02*X463700Y334600D01*
X461300D02*X463700Y337000D01*
X461300Y327000D02*X463700Y324600D01*
X461300D02*X463700Y327000D01*
X461300Y317000D02*X463700Y314600D01*
X461300D02*X463700Y317000D01*
X461300Y307000D02*X463700Y304600D01*
X461300D02*X463700Y307000D01*
X491300D02*X493700Y304600D01*
X491300D02*X493700Y307000D01*
X491300Y317000D02*X493700Y314600D01*
X491300D02*X493700Y317000D01*
X491300Y327000D02*X493700Y324600D01*
X491300D02*X493700Y327000D01*
X491300Y337000D02*X493700Y334600D01*
X491300D02*X493700Y337000D01*
X523300Y306500D02*X525700Y304100D01*
X523300D02*X525700Y306500D01*
X533300D02*X535700Y304100D01*
X533300D02*X535700Y306500D01*
X543300D02*X545700Y304100D01*
X543300D02*X545700Y306500D01*
X553300D02*X555700Y304100D01*
X553300D02*X555700Y306500D01*
X563300D02*X565700Y304100D01*
X563300D02*X565700Y306500D01*
X573300D02*X575700Y304100D01*
X573300D02*X575700Y306500D01*
X583300D02*X585700Y304100D01*
X583300D02*X585700Y306500D01*
X593300D02*X595700Y304100D01*
X593300D02*X595700Y306500D01*
X593300Y336500D02*X595700Y334100D01*
X593300D02*X595700Y336500D01*
X583300D02*X585700Y334100D01*
X583300D02*X585700Y336500D01*
X573300D02*X575700Y334100D01*
X573300D02*X575700Y336500D01*
X563300D02*X565700Y334100D01*
X563300D02*X565700Y336500D01*
X553300D02*X555700Y334100D01*
X553300D02*X555700Y336500D01*
X543300D02*X545700Y334100D01*
X543300D02*X545700Y336500D01*
X533300D02*X535700Y334100D01*
X533300D02*X535700Y336500D01*
X523300D02*X525700Y334100D01*
X523300D02*X525700Y336500D01*
X526300Y263000D02*X528700Y260600D01*
X526300D02*X528700Y263000D01*
X516300D02*X518700Y260600D01*
X516300D02*X518700Y263000D01*
X506300D02*X508700Y260600D01*
X506300D02*X508700Y263000D01*
X496300D02*X498700Y260600D01*
X496300D02*X498700Y263000D01*
X486300D02*X488700Y260600D01*
X486300D02*X488700Y263000D01*
X476300D02*X478700Y260600D01*
X476300D02*X478700Y263000D01*
X466300D02*X468700Y260600D01*
X466300D02*X468700Y263000D01*
X456300D02*X458700Y260600D01*
X456300D02*X458700Y263000D01*
X446300D02*X448700Y260600D01*
X446300D02*X448700Y263000D01*
X436300D02*X438700Y260600D01*
X436300D02*X438700Y263000D01*
X426300D02*X428700Y260600D01*
X426300D02*X428700Y263000D01*
X416300D02*X418700Y260600D01*
X416300D02*X418700Y263000D01*
X406300D02*X408700Y260600D01*
X406300D02*X408700Y263000D01*
X396300D02*X398700Y260600D01*
X396300D02*X398700Y263000D01*
X396300Y223000D02*X398700Y220600D01*
X396300D02*X398700Y223000D01*
X406300D02*X408700Y220600D01*
X406300D02*X408700Y223000D01*
X416300D02*X418700Y220600D01*
X416300D02*X418700Y223000D01*
X426300D02*X428700Y220600D01*
X426300D02*X428700Y223000D01*
X436300D02*X438700Y220600D01*
X436300D02*X438700Y223000D01*
X446300D02*X448700Y220600D01*
X446300D02*X448700Y223000D01*
X456300D02*X458700Y220600D01*
X456300D02*X458700Y223000D01*
X466300D02*X468700Y220600D01*
X466300D02*X468700Y223000D01*
X476300D02*X478700Y220600D01*
X476300D02*X478700Y223000D01*
X486300D02*X488700Y220600D01*
X486300D02*X488700Y223000D01*
X496300D02*X498700Y220600D01*
X496300D02*X498700Y223000D01*
X506300D02*X508700Y220600D01*
X506300D02*X508700Y223000D01*
X516300D02*X518700Y220600D01*
X516300D02*X518700Y223000D01*
X526300D02*X528700Y220600D01*
X526300D02*X528700Y223000D01*
X83300Y339000D02*X85700Y336600D01*
X83300D02*X85700Y339000D01*
X83300Y329000D02*X85700Y326600D01*
X83300D02*X85700Y329000D01*
X83300Y319000D02*X85700Y316600D01*
X83300D02*X85700Y319000D01*
X83300Y309000D02*X85700Y306600D01*
X83300D02*X85700Y309000D01*
X113300D02*X115700Y306600D01*
X113300D02*X115700Y309000D01*
X113300Y319000D02*X115700Y316600D01*
X113300D02*X115700Y319000D01*
X113300Y329000D02*X115700Y326600D01*
X113300D02*X115700Y329000D01*
X113300Y339000D02*X115700Y336600D01*
X113300D02*X115700Y339000D01*
X155300Y337000D02*X157700Y334600D01*
X155300D02*X157700Y337000D01*
X155300Y327000D02*X157700Y324600D01*
X155300D02*X157700Y327000D01*
X155300Y317000D02*X157700Y314600D01*
X155300D02*X157700Y317000D01*
X155300Y307000D02*X157700Y304600D01*
X155300D02*X157700Y307000D01*
X185300D02*X187700Y304600D01*
X185300D02*X187700Y307000D01*
X185300Y317000D02*X187700Y314600D01*
X185300D02*X187700Y317000D01*
X185300Y327000D02*X187700Y324600D01*
X185300D02*X187700Y327000D01*
X185300Y337000D02*X187700Y334600D01*
X185300D02*X187700Y337000D01*
X217300Y306500D02*X219700Y304100D01*
X217300D02*X219700Y306500D01*
X227300D02*X229700Y304100D01*
X227300D02*X229700Y306500D01*
X237300D02*X239700Y304100D01*
X237300D02*X239700Y306500D01*
X247300D02*X249700Y304100D01*
X247300D02*X249700Y306500D01*
X257300D02*X259700Y304100D01*
X257300D02*X259700Y306500D01*
X267300D02*X269700Y304100D01*
X267300D02*X269700Y306500D01*
X277300D02*X279700Y304100D01*
X277300D02*X279700Y306500D01*
X287300D02*X289700Y304100D01*
X287300D02*X289700Y306500D01*
X287300Y336500D02*X289700Y334100D01*
X287300D02*X289700Y336500D01*
X277300D02*X279700Y334100D01*
X277300D02*X279700Y336500D01*
X267300D02*X269700Y334100D01*
X267300D02*X269700Y336500D01*
X257300D02*X259700Y334100D01*
X257300D02*X259700Y336500D01*
X247300D02*X249700Y334100D01*
X247300D02*X249700Y336500D01*
X237300D02*X239700Y334100D01*
X237300D02*X239700Y336500D01*
X227300D02*X229700Y334100D01*
X227300D02*X229700Y336500D01*
X217300D02*X219700Y334100D01*
X217300D02*X219700Y336500D01*
X220300Y263000D02*X222700Y260600D01*
X220300D02*X222700Y263000D01*
X210300D02*X212700Y260600D01*
X210300D02*X212700Y263000D01*
X200300D02*X202700Y260600D01*
X200300D02*X202700Y263000D01*
X190300D02*X192700Y260600D01*
X190300D02*X192700Y263000D01*
X180300D02*X182700Y260600D01*
X180300D02*X182700Y263000D01*
X170300D02*X172700Y260600D01*
X170300D02*X172700Y263000D01*
X160300D02*X162700Y260600D01*
X160300D02*X162700Y263000D01*
X150300D02*X152700Y260600D01*
X150300D02*X152700Y263000D01*
X140300D02*X142700Y260600D01*
X140300D02*X142700Y263000D01*
X130300D02*X132700Y260600D01*
X130300D02*X132700Y263000D01*
X120300D02*X122700Y260600D01*
X120300D02*X122700Y263000D01*
X110300D02*X112700Y260600D01*
X110300D02*X112700Y263000D01*
X100300D02*X102700Y260600D01*
X100300D02*X102700Y263000D01*
X90300D02*X92700Y260600D01*
X90300D02*X92700Y263000D01*
X90300Y223000D02*X92700Y220600D01*
X90300D02*X92700Y223000D01*
X100300D02*X102700Y220600D01*
X100300D02*X102700Y223000D01*
X110300D02*X112700Y220600D01*
X110300D02*X112700Y223000D01*
X120300D02*X122700Y220600D01*
X120300D02*X122700Y223000D01*
X130300D02*X132700Y220600D01*
X130300D02*X132700Y223000D01*
X140300D02*X142700Y220600D01*
X140300D02*X142700Y223000D01*
X150300D02*X152700Y220600D01*
X150300D02*X152700Y223000D01*
X160300D02*X162700Y220600D01*
X160300D02*X162700Y223000D01*
X170300D02*X172700Y220600D01*
X170300D02*X172700Y223000D01*
X180300D02*X182700Y220600D01*
X180300D02*X182700Y223000D01*
X190300D02*X192700Y220600D01*
X190300D02*X192700Y223000D01*
X200300D02*X202700Y220600D01*
X200300D02*X202700Y223000D01*
X210300D02*X212700Y220600D01*
X210300D02*X212700Y223000D01*
X220300D02*X222700Y220600D01*
X220300D02*X222700Y223000D01*
X695300Y507000D02*X697700Y504600D01*
X695300D02*X697700Y507000D01*
X695300Y497000D02*X697700Y494600D01*
X695300D02*X697700Y497000D01*
X695300Y487000D02*X697700Y484600D01*
X695300D02*X697700Y487000D01*
X695300Y477000D02*X697700Y474600D01*
X695300D02*X697700Y477000D01*
X725300D02*X727700Y474600D01*
X725300D02*X727700Y477000D01*
X725300Y487000D02*X727700Y484600D01*
X725300D02*X727700Y487000D01*
X725300Y497000D02*X727700Y494600D01*
X725300D02*X727700Y497000D01*
X725300Y507000D02*X727700Y504600D01*
X725300D02*X727700Y507000D01*
X767300Y505000D02*X769700Y502600D01*
X767300D02*X769700Y505000D01*
X767300Y495000D02*X769700Y492600D01*
X767300D02*X769700Y495000D01*
X767300Y485000D02*X769700Y482600D01*
X767300D02*X769700Y485000D01*
X767300Y475000D02*X769700Y472600D01*
X767300D02*X769700Y475000D01*
X797300D02*X799700Y472600D01*
X797300D02*X799700Y475000D01*
X797300Y485000D02*X799700Y482600D01*
X797300D02*X799700Y485000D01*
X797300Y495000D02*X799700Y492600D01*
X797300D02*X799700Y495000D01*
X797300Y505000D02*X799700Y502600D01*
X797300D02*X799700Y505000D01*
X829300Y474500D02*X831700Y472100D01*
X829300D02*X831700Y474500D01*
X839300D02*X841700Y472100D01*
X839300D02*X841700Y474500D01*
X849300D02*X851700Y472100D01*
X849300D02*X851700Y474500D01*
X859300D02*X861700Y472100D01*
X859300D02*X861700Y474500D01*
X869300D02*X871700Y472100D01*
X869300D02*X871700Y474500D01*
X879300D02*X881700Y472100D01*
X879300D02*X881700Y474500D01*
X889300D02*X891700Y472100D01*
X889300D02*X891700Y474500D01*
X899300D02*X901700Y472100D01*
X899300D02*X901700Y474500D01*
X899300Y504500D02*X901700Y502100D01*
X899300D02*X901700Y504500D01*
X889300D02*X891700Y502100D01*
X889300D02*X891700Y504500D01*
X879300D02*X881700Y502100D01*
X879300D02*X881700Y504500D01*
X869300D02*X871700Y502100D01*
X869300D02*X871700Y504500D01*
X859300D02*X861700Y502100D01*
X859300D02*X861700Y504500D01*
X849300D02*X851700Y502100D01*
X849300D02*X851700Y504500D01*
X839300D02*X841700Y502100D01*
X839300D02*X841700Y504500D01*
X829300D02*X831700Y502100D01*
X829300D02*X831700Y504500D01*
X832300Y431000D02*X834700Y428600D01*
X832300D02*X834700Y431000D01*
X822300D02*X824700Y428600D01*
X822300D02*X824700Y431000D01*
X812300D02*X814700Y428600D01*
X812300D02*X814700Y431000D01*
X802300D02*X804700Y428600D01*
X802300D02*X804700Y431000D01*
X792300D02*X794700Y428600D01*
X792300D02*X794700Y431000D01*
X782300D02*X784700Y428600D01*
X782300D02*X784700Y431000D01*
X772300D02*X774700Y428600D01*
X772300D02*X774700Y431000D01*
X762300D02*X764700Y428600D01*
X762300D02*X764700Y431000D01*
X752300D02*X754700Y428600D01*
X752300D02*X754700Y431000D01*
X742300D02*X744700Y428600D01*
X742300D02*X744700Y431000D01*
X732300D02*X734700Y428600D01*
X732300D02*X734700Y431000D01*
X722300D02*X724700Y428600D01*
X722300D02*X724700Y431000D01*
X712300D02*X714700Y428600D01*
X712300D02*X714700Y431000D01*
X702300D02*X704700Y428600D01*
X702300D02*X704700Y431000D01*
X702300Y391000D02*X704700Y388600D01*
X702300D02*X704700Y391000D01*
X712300D02*X714700Y388600D01*
X712300D02*X714700Y391000D01*
X722300D02*X724700Y388600D01*
X722300D02*X724700Y391000D01*
X732300D02*X734700Y388600D01*
X732300D02*X734700Y391000D01*
X742300D02*X744700Y388600D01*
X742300D02*X744700Y391000D01*
X752300D02*X754700Y388600D01*
X752300D02*X754700Y391000D01*
X762300D02*X764700Y388600D01*
X762300D02*X764700Y391000D01*
X772300D02*X774700Y388600D01*
X772300D02*X774700Y391000D01*
X782300D02*X784700Y388600D01*
X782300D02*X784700Y391000D01*
X792300D02*X794700Y388600D01*
X792300D02*X794700Y391000D01*
X802300D02*X804700Y388600D01*
X802300D02*X804700Y391000D01*
X812300D02*X814700Y388600D01*
X812300D02*X814700Y391000D01*
X822300D02*X824700Y388600D01*
X822300D02*X824700Y391000D01*
X832300D02*X834700Y388600D01*
X832300D02*X834700Y391000D01*
X389300Y507000D02*X391700Y504600D01*
X389300D02*X391700Y507000D01*
X389300Y497000D02*X391700Y494600D01*
X389300D02*X391700Y497000D01*
X389300Y487000D02*X391700Y484600D01*
X389300D02*X391700Y487000D01*
X389300Y477000D02*X391700Y474600D01*
X389300D02*X391700Y477000D01*
X419300D02*X421700Y474600D01*
X419300D02*X421700Y477000D01*
X419300Y487000D02*X421700Y484600D01*
X419300D02*X421700Y487000D01*
X419300Y497000D02*X421700Y494600D01*
X419300D02*X421700Y497000D01*
X419300Y507000D02*X421700Y504600D01*
X419300D02*X421700Y507000D01*
X461300Y505000D02*X463700Y502600D01*
X461300D02*X463700Y505000D01*
X461300Y495000D02*X463700Y492600D01*
X461300D02*X463700Y495000D01*
X461300Y485000D02*X463700Y482600D01*
X461300D02*X463700Y485000D01*
X461300Y475000D02*X463700Y472600D01*
X461300D02*X463700Y475000D01*
X491300D02*X493700Y472600D01*
X491300D02*X493700Y475000D01*
X491300Y485000D02*X493700Y482600D01*
X491300D02*X493700Y485000D01*
X491300Y495000D02*X493700Y492600D01*
X491300D02*X493700Y495000D01*
X491300Y505000D02*X493700Y502600D01*
X491300D02*X493700Y505000D01*
X523300Y474500D02*X525700Y472100D01*
X523300D02*X525700Y474500D01*
X533300D02*X535700Y472100D01*
X533300D02*X535700Y474500D01*
X543300D02*X545700Y472100D01*
X543300D02*X545700Y474500D01*
X553300D02*X555700Y472100D01*
X553300D02*X555700Y474500D01*
X563300D02*X565700Y472100D01*
X563300D02*X565700Y474500D01*
X573300D02*X575700Y472100D01*
X573300D02*X575700Y474500D01*
X583300D02*X585700Y472100D01*
X583300D02*X585700Y474500D01*
X593300D02*X595700Y472100D01*
X593300D02*X595700Y474500D01*
X593300Y504500D02*X595700Y502100D01*
X593300D02*X595700Y504500D01*
X583300D02*X585700Y502100D01*
X583300D02*X585700Y504500D01*
X573300D02*X575700Y502100D01*
X573300D02*X575700Y504500D01*
X563300D02*X565700Y502100D01*
X563300D02*X565700Y504500D01*
X553300D02*X555700Y502100D01*
X553300D02*X555700Y504500D01*
X543300D02*X545700Y502100D01*
X543300D02*X545700Y504500D01*
X533300D02*X535700Y502100D01*
X533300D02*X535700Y504500D01*
X523300D02*X525700Y502100D01*
X523300D02*X525700Y504500D01*
X526300Y431000D02*X528700Y428600D01*
X526300D02*X528700Y431000D01*
X516300D02*X518700Y428600D01*
X516300D02*X518700Y431000D01*
X506300D02*X508700Y428600D01*
X506300D02*X508700Y431000D01*
X496300D02*X498700Y428600D01*
X496300D02*X498700Y431000D01*
X486300D02*X488700Y428600D01*
X486300D02*X488700Y431000D01*
X476300D02*X478700Y428600D01*
X476300D02*X478700Y431000D01*
X466300D02*X468700Y428600D01*
X466300D02*X468700Y431000D01*
X456300D02*X458700Y428600D01*
X456300D02*X458700Y431000D01*
X446300D02*X448700Y428600D01*
X446300D02*X448700Y431000D01*
X436300D02*X438700Y428600D01*
X436300D02*X438700Y431000D01*
X426300D02*X428700Y428600D01*
X426300D02*X428700Y431000D01*
X416300D02*X418700Y428600D01*
X416300D02*X418700Y431000D01*
X406300D02*X408700Y428600D01*
X406300D02*X408700Y431000D01*
X396300D02*X398700Y428600D01*
X396300D02*X398700Y431000D01*
X396300Y391000D02*X398700Y388600D01*
X396300D02*X398700Y391000D01*
X406300D02*X408700Y388600D01*
X406300D02*X408700Y391000D01*
X416300D02*X418700Y388600D01*
X416300D02*X418700Y391000D01*
X426300D02*X428700Y388600D01*
X426300D02*X428700Y391000D01*
X436300D02*X438700Y388600D01*
X436300D02*X438700Y391000D01*
X446300D02*X448700Y388600D01*
X446300D02*X448700Y391000D01*
X456300D02*X458700Y388600D01*
X456300D02*X458700Y391000D01*
X466300D02*X468700Y388600D01*
X466300D02*X468700Y391000D01*
X476300D02*X478700Y388600D01*
X476300D02*X478700Y391000D01*
X486300D02*X488700Y388600D01*
X486300D02*X488700Y391000D01*
X496300D02*X498700Y388600D01*
X496300D02*X498700Y391000D01*
X506300D02*X508700Y388600D01*
X506300D02*X508700Y391000D01*
X516300D02*X518700Y388600D01*
X516300D02*X518700Y391000D01*
X526300D02*X528700Y388600D01*
X526300D02*X528700Y391000D01*
X83300Y507000D02*X85700Y504600D01*
X83300D02*X85700Y507000D01*
X83300Y497000D02*X85700Y494600D01*
X83300D02*X85700Y497000D01*
X83300Y487000D02*X85700Y484600D01*
X83300D02*X85700Y487000D01*
X83300Y477000D02*X85700Y474600D01*
X83300D02*X85700Y477000D01*
X113300D02*X115700Y474600D01*
X113300D02*X115700Y477000D01*
X113300Y487000D02*X115700Y484600D01*
X113300D02*X115700Y487000D01*
X113300Y497000D02*X115700Y494600D01*
X113300D02*X115700Y497000D01*
X113300Y507000D02*X115700Y504600D01*
X113300D02*X115700Y507000D01*
X155300Y505000D02*X157700Y502600D01*
X155300D02*X157700Y505000D01*
X155300Y495000D02*X157700Y492600D01*
X155300D02*X157700Y495000D01*
X155300Y485000D02*X157700Y482600D01*
X155300D02*X157700Y485000D01*
X155300Y475000D02*X157700Y472600D01*
X155300D02*X157700Y475000D01*
X185300D02*X187700Y472600D01*
X185300D02*X187700Y475000D01*
X185300Y485000D02*X187700Y482600D01*
X185300D02*X187700Y485000D01*
X185300Y495000D02*X187700Y492600D01*
X185300D02*X187700Y495000D01*
X185300Y505000D02*X187700Y502600D01*
X185300D02*X187700Y505000D01*
X217300Y474500D02*X219700Y472100D01*
X217300D02*X219700Y474500D01*
X227300D02*X229700Y472100D01*
X227300D02*X229700Y474500D01*
X237300D02*X239700Y472100D01*
X237300D02*X239700Y474500D01*
X247300D02*X249700Y472100D01*
X247300D02*X249700Y474500D01*
X257300D02*X259700Y472100D01*
X257300D02*X259700Y474500D01*
X267300D02*X269700Y472100D01*
X267300D02*X269700Y474500D01*
X277300D02*X279700Y472100D01*
X277300D02*X279700Y474500D01*
X287300D02*X289700Y472100D01*
X287300D02*X289700Y474500D01*
X287300Y504500D02*X289700Y502100D01*
X287300D02*X289700Y504500D01*
X277300D02*X279700Y502100D01*
X277300D02*X279700Y504500D01*
X267300D02*X269700Y502100D01*
X267300D02*X269700Y504500D01*
X257300D02*X259700Y502100D01*
X257300D02*X259700Y504500D01*
X247300D02*X249700Y502100D01*
X247300D02*X249700Y504500D01*
X237300D02*X239700Y502100D01*
X237300D02*X239700Y504500D01*
X227300D02*X229700Y502100D01*
X227300D02*X229700Y504500D01*
X217300D02*X219700Y502100D01*
X217300D02*X219700Y504500D01*
X220300Y431000D02*X222700Y428600D01*
X220300D02*X222700Y431000D01*
X210300D02*X212700Y428600D01*
X210300D02*X212700Y431000D01*
X200300D02*X202700Y428600D01*
X200300D02*X202700Y431000D01*
X190300D02*X192700Y428600D01*
X190300D02*X192700Y431000D01*
X180300D02*X182700Y428600D01*
X180300D02*X182700Y431000D01*
X170300D02*X172700Y428600D01*
X170300D02*X172700Y431000D01*
X160300D02*X162700Y428600D01*
X160300D02*X162700Y431000D01*
X150300D02*X152700Y428600D01*
X150300D02*X152700Y431000D01*
X140300D02*X142700Y428600D01*
X140300D02*X142700Y431000D01*
X130300D02*X132700Y428600D01*
X130300D02*X132700Y431000D01*
X120300D02*X122700Y428600D01*
X120300D02*X122700Y431000D01*
X110300D02*X112700Y428600D01*
X110300D02*X112700Y431000D01*
X100300D02*X102700Y428600D01*
X100300D02*X102700Y431000D01*
X90300D02*X92700Y428600D01*
X90300D02*X92700Y431000D01*
X90300Y391000D02*X92700Y388600D01*
X90300D02*X92700Y391000D01*
X100300D02*X102700Y388600D01*
X100300D02*X102700Y391000D01*
X110300D02*X112700Y388600D01*
X110300D02*X112700Y391000D01*
X120300D02*X122700Y388600D01*
X120300D02*X122700Y391000D01*
X130300D02*X132700Y388600D01*
X130300D02*X132700Y391000D01*
X140300D02*X142700Y388600D01*
X140300D02*X142700Y391000D01*
X150300D02*X152700Y388600D01*
X150300D02*X152700Y391000D01*
X160300D02*X162700Y388600D01*
X160300D02*X162700Y391000D01*
X170300D02*X172700Y388600D01*
X170300D02*X172700Y391000D01*
X180300D02*X182700Y388600D01*
X180300D02*X182700Y391000D01*
X190300D02*X192700Y388600D01*
X190300D02*X192700Y391000D01*
X200300D02*X202700Y388600D01*
X200300D02*X202700Y391000D01*
X210300D02*X212700Y388600D01*
X210300D02*X212700Y391000D01*
X220300D02*X222700Y388600D01*
X220300D02*X222700Y391000D01*
X13800Y651450D02*X16200Y649050D01*
X13800D02*X16200Y651450D01*
X135000Y652500D02*Y651750D01*
X136500Y650250D01*
X138000Y651750D01*
Y652500D02*Y651750D01*
X136500Y650250D02*Y646500D01*
X139801Y649500D02*X142051D01*
X139801Y646500D02*X142801D01*
X139801Y652500D02*Y646500D01*
Y652500D02*X142801D01*
X147603D02*X148353Y651750D01*
X145353Y652500D02*X147603D01*
X144603Y651750D02*X145353Y652500D01*
X144603Y651750D02*Y650250D01*
X145353Y649500D01*
X147603D01*
X148353Y648750D01*
Y647250D01*
X147603Y646500D02*X148353Y647250D01*
X145353Y646500D02*X147603D01*
X144603Y647250D02*X145353Y646500D01*
X135000Y643249D02*X150154D01*
X98000Y652500D02*X101000D01*
X98000D02*Y649500D01*
X98750Y650250D01*
X100250D01*
X101000Y649500D01*
Y647250D01*
X100250Y646500D02*X101000Y647250D01*
X98750Y646500D02*X100250D01*
X98000Y647250D02*X98750Y646500D01*
X102801Y651750D02*X103551Y652500D01*
X105801D01*
X106551Y651750D01*
Y650250D01*
X102801Y646500D02*X106551Y650250D01*
X102801Y646500D02*X106551D01*
X108353Y649500D02*X111353Y652500D01*
X108353Y649500D02*X112103D01*
X111353Y652500D02*Y646500D01*
X98000Y643249D02*X113904D01*
X45000Y647250D02*X45750Y646500D01*
X45000Y651750D02*Y647250D01*
Y651750D02*X45750Y652500D01*
X47250D01*
X48000Y651750D01*
Y647250D01*
X47250Y646500D02*X48000Y647250D01*
X45750Y646500D02*X47250D01*
X45000Y648000D02*X48000Y651000D01*
X49801Y646500D02*X50551D01*
X52353Y647250D02*X53103Y646500D01*
X52353Y651750D02*Y647250D01*
Y651750D02*X53103Y652500D01*
X54603D01*
X55353Y651750D01*
Y647250D01*
X54603Y646500D02*X55353Y647250D01*
X53103Y646500D02*X54603D01*
X52353Y648000D02*X55353Y651000D01*
X57154Y651750D02*X57904Y652500D01*
X60154D01*
X60904Y651750D01*
Y650250D01*
X57154Y646500D02*X60904Y650250D01*
X57154Y646500D02*X60904D01*
X62706Y647250D02*X63456Y646500D01*
X62706Y648750D02*Y647250D01*
Y648750D02*X63456Y649500D01*
X64956D01*
X65706Y648750D01*
Y647250D01*
X64956Y646500D02*X65706Y647250D01*
X63456Y646500D02*X64956D01*
X62706Y650250D02*X63456Y649500D01*
X62706Y651750D02*Y650250D01*
Y651750D02*X63456Y652500D01*
X64956D01*
X65706Y651750D01*
Y650250D01*
X64956Y649500D02*X65706Y650250D01*
X45000Y643249D02*X67507D01*
X635500Y124910D02*Y121710D01*
X633900Y123310D02*X637100D01*
X635500Y114910D02*Y111710D01*
X633900Y113310D02*X637100D01*
X635500Y92410D02*Y89210D01*
X633900Y90810D02*X637100D01*
X635500Y82410D02*Y79210D01*
X633900Y80810D02*X637100D01*
X635500Y72410D02*Y69210D01*
X633900Y70810D02*X637100D01*
X635500Y62410D02*Y59210D01*
X633900Y60810D02*X637100D01*
X635500Y52410D02*Y49210D01*
X633900Y50810D02*X637100D01*
X635500Y42410D02*Y39210D01*
X633900Y40810D02*X637100D01*
X635500Y32410D02*Y29210D01*
X633900Y30810D02*X637100D01*
X329500Y124910D02*Y121710D01*
X327900Y123310D02*X331100D01*
X329500Y114910D02*Y111710D01*
X327900Y113310D02*X331100D01*
X329500Y92410D02*Y89210D01*
X327900Y90810D02*X331100D01*
X329500Y82410D02*Y79210D01*
X327900Y80810D02*X331100D01*
X329500Y72410D02*Y69210D01*
X327900Y70810D02*X331100D01*
X329500Y62410D02*Y59210D01*
X327900Y60810D02*X331100D01*
X329500Y52410D02*Y49210D01*
X327900Y50810D02*X331100D01*
X329500Y42410D02*Y39210D01*
X327900Y40810D02*X331100D01*
X329500Y32410D02*Y29210D01*
X327900Y30810D02*X331100D01*
X247500Y114300D02*Y112700D01*
Y114300D02*X248886Y115100D01*
X247500Y114300D02*X246114Y115100D01*
X31000Y134900D02*Y131700D01*
X29400Y133300D02*X32600D01*
X31000Y124900D02*Y121700D01*
X29400Y123300D02*X32600D01*
X31000Y102400D02*Y99200D01*
X29400Y100800D02*X32600D01*
X31000Y92400D02*Y89200D01*
X29400Y90800D02*X32600D01*
X31000Y82400D02*Y79200D01*
X29400Y80800D02*X32600D01*
X31000Y72400D02*Y69200D01*
X29400Y70800D02*X32600D01*
X31000Y62400D02*Y59200D01*
X29400Y60800D02*X32600D01*
X31000Y52400D02*Y49200D01*
X29400Y50800D02*X32600D01*
X31000Y42400D02*Y39200D01*
X29400Y40800D02*X32600D01*
X859500Y282300D02*Y280700D01*
Y282300D02*X860886Y283100D01*
X859500Y282300D02*X858114Y283100D01*
X643000Y302900D02*Y299700D01*
X641400Y301300D02*X644600D01*
X643000Y292900D02*Y289700D01*
X641400Y291300D02*X644600D01*
X643000Y270400D02*Y267200D01*
X641400Y268800D02*X644600D01*
X643000Y260400D02*Y257200D01*
X641400Y258800D02*X644600D01*
X643000Y250400D02*Y247200D01*
X641400Y248800D02*X644600D01*
X643000Y240400D02*Y237200D01*
X641400Y238800D02*X644600D01*
X643000Y230400D02*Y227200D01*
X641400Y228800D02*X644600D01*
X643000Y220400D02*Y217200D01*
X641400Y218800D02*X644600D01*
X643000Y210400D02*Y207200D01*
X641400Y208800D02*X644600D01*
X553500Y282300D02*Y280700D01*
Y282300D02*X554886Y283100D01*
X553500Y282300D02*X552114Y283100D01*
X337000Y302900D02*Y299700D01*
X335400Y301300D02*X338600D01*
X337000Y292900D02*Y289700D01*
X335400Y291300D02*X338600D01*
X337000Y270400D02*Y267200D01*
X335400Y268800D02*X338600D01*
X337000Y260400D02*Y257200D01*
X335400Y258800D02*X338600D01*
X337000Y250400D02*Y247200D01*
X335400Y248800D02*X338600D01*
X337000Y240400D02*Y237200D01*
X335400Y238800D02*X338600D01*
X337000Y230400D02*Y227200D01*
X335400Y228800D02*X338600D01*
X337000Y220400D02*Y217200D01*
X335400Y218800D02*X338600D01*
X337000Y210400D02*Y207200D01*
X335400Y208800D02*X338600D01*
X247500Y282300D02*Y280700D01*
Y282300D02*X248886Y283100D01*
X247500Y282300D02*X246114Y283100D01*
X31000Y302900D02*Y299700D01*
X29400Y301300D02*X32600D01*
X31000Y292900D02*Y289700D01*
X29400Y291300D02*X32600D01*
X31000Y270400D02*Y267200D01*
X29400Y268800D02*X32600D01*
X31000Y260400D02*Y257200D01*
X29400Y258800D02*X32600D01*
X31000Y250400D02*Y247200D01*
X29400Y248800D02*X32600D01*
X31000Y240400D02*Y237200D01*
X29400Y238800D02*X32600D01*
X31000Y230400D02*Y227200D01*
X29400Y228800D02*X32600D01*
X31000Y220400D02*Y217200D01*
X29400Y218800D02*X32600D01*
X31000Y210400D02*Y207200D01*
X29400Y208800D02*X32600D01*
X859500Y450300D02*Y448700D01*
Y450300D02*X860886Y451100D01*
X859500Y450300D02*X858114Y451100D01*
X643000Y470900D02*Y467700D01*
X641400Y469300D02*X644600D01*
X643000Y460900D02*Y457700D01*
X641400Y459300D02*X644600D01*
X643000Y438400D02*Y435200D01*
X641400Y436800D02*X644600D01*
X643000Y428400D02*Y425200D01*
X641400Y426800D02*X644600D01*
X643000Y418400D02*Y415200D01*
X641400Y416800D02*X644600D01*
X643000Y408400D02*Y405200D01*
X641400Y406800D02*X644600D01*
X643000Y398400D02*Y395200D01*
X641400Y396800D02*X644600D01*
X643000Y388400D02*Y385200D01*
X641400Y386800D02*X644600D01*
X643000Y378400D02*Y375200D01*
X641400Y376800D02*X644600D01*
X553500Y450300D02*Y448700D01*
Y450300D02*X554886Y451100D01*
X553500Y450300D02*X552114Y451100D01*
X337000Y470900D02*Y467700D01*
X335400Y469300D02*X338600D01*
X337000Y460900D02*Y457700D01*
X335400Y459300D02*X338600D01*
X337000Y438400D02*Y435200D01*
X335400Y436800D02*X338600D01*
X337000Y428400D02*Y425200D01*
X335400Y426800D02*X338600D01*
X337000Y418400D02*Y415200D01*
X335400Y416800D02*X338600D01*
X337000Y408400D02*Y405200D01*
X335400Y406800D02*X338600D01*
X337000Y398400D02*Y395200D01*
X335400Y396800D02*X338600D01*
X337000Y388400D02*Y385200D01*
X335400Y386800D02*X338600D01*
X337000Y378400D02*Y375200D01*
X335400Y376800D02*X338600D01*
X247500Y450300D02*Y448700D01*
Y450300D02*X248886Y451100D01*
X247500Y450300D02*X246114Y451100D01*
X31000Y470900D02*Y467700D01*
X29400Y469300D02*X32600D01*
X31000Y460900D02*Y457700D01*
X29400Y459300D02*X32600D01*
X31000Y438400D02*Y435200D01*
X29400Y436800D02*X32600D01*
X31000Y428400D02*Y425200D01*
X29400Y426800D02*X32600D01*
X31000Y418400D02*Y415200D01*
X29400Y416800D02*X32600D01*
X31000Y408400D02*Y405200D01*
X29400Y406800D02*X32600D01*
X31000Y398400D02*Y395200D01*
X29400Y396800D02*X32600D01*
X31000Y388400D02*Y385200D01*
X29400Y386800D02*X32600D01*
X31000Y378400D02*Y375200D01*
X29400Y376800D02*X32600D01*
X150000Y464900D02*Y461700D01*
X148400Y463300D02*X151600D01*
X235500Y460900D02*Y457700D01*
X233900Y459300D02*X237100D01*
X220000Y452900D02*Y449700D01*
X218400Y451300D02*X221600D01*
X191000Y459900D02*Y456700D01*
X189400Y458300D02*X192600D01*
X267000Y450900D02*Y447700D01*
X265400Y449300D02*X268600D01*
X262000Y462900D02*Y459700D01*
X260400Y461300D02*X263600D01*
X184000Y444400D02*Y441200D01*
X182400Y442800D02*X185600D01*
X227500Y459900D02*Y456700D01*
X225900Y458300D02*X229100D01*
X264000Y486900D02*Y483700D01*
X262400Y485300D02*X265600D01*
X248000Y486900D02*Y483700D01*
X246400Y485300D02*X249600D01*
X201000Y438900D02*Y435700D01*
X199400Y437300D02*X202600D01*
X211000Y438900D02*Y435700D01*
X209400Y437300D02*X212600D01*
X201000Y449900D02*Y446700D01*
X199400Y448300D02*X202600D01*
X221500Y460400D02*Y457200D01*
X219900Y458800D02*X223100D01*
X216000Y457900D02*Y454700D01*
X214400Y456300D02*X217600D01*
X207000Y449900D02*Y446700D01*
X205400Y448300D02*X208600D01*
X288000Y491900D02*Y488700D01*
X286400Y490300D02*X289600D01*
X274000Y497900D02*Y494700D01*
X272400Y496300D02*X275600D01*
X263500Y497900D02*Y494700D01*
X261900Y496300D02*X265100D01*
X245000Y492900D02*Y489700D01*
X243400Y491300D02*X246600D01*
X456000Y464900D02*Y461700D01*
X454400Y463300D02*X457600D01*
X541500Y460900D02*Y457700D01*
X539900Y459300D02*X543100D01*
X526000Y452900D02*Y449700D01*
X524400Y451300D02*X527600D01*
X497000Y459900D02*Y456700D01*
X495400Y458300D02*X498600D01*
X573000Y450900D02*Y447700D01*
X571400Y449300D02*X574600D01*
X568000Y462900D02*Y459700D01*
X566400Y461300D02*X569600D01*
X490000Y444400D02*Y441200D01*
X488400Y442800D02*X491600D01*
X533500Y459900D02*Y456700D01*
X531900Y458300D02*X535100D01*
X570000Y486900D02*Y483700D01*
X568400Y485300D02*X571600D01*
X554000Y486900D02*Y483700D01*
X552400Y485300D02*X555600D01*
X507000Y438900D02*Y435700D01*
X505400Y437300D02*X508600D01*
X517000Y438900D02*Y435700D01*
X515400Y437300D02*X518600D01*
X507000Y449900D02*Y446700D01*
X505400Y448300D02*X508600D01*
X527500Y460400D02*Y457200D01*
X525900Y458800D02*X529100D01*
X522000Y457900D02*Y454700D01*
X520400Y456300D02*X523600D01*
X513000Y449900D02*Y446700D01*
X511400Y448300D02*X514600D01*
X594000Y491900D02*Y488700D01*
X592400Y490300D02*X595600D01*
X580000Y497900D02*Y494700D01*
X578400Y496300D02*X581600D01*
X569500Y497900D02*Y494700D01*
X567900Y496300D02*X571100D01*
X551000Y492900D02*Y489700D01*
X549400Y491300D02*X552600D01*
X762000Y464900D02*Y461700D01*
X760400Y463300D02*X763600D01*
X847500Y460900D02*Y457700D01*
X845900Y459300D02*X849100D01*
X832000Y452900D02*Y449700D01*
X830400Y451300D02*X833600D01*
X803000Y459900D02*Y456700D01*
X801400Y458300D02*X804600D01*
X879000Y450900D02*Y447700D01*
X877400Y449300D02*X880600D01*
X874000Y462900D02*Y459700D01*
X872400Y461300D02*X875600D01*
X796000Y444400D02*Y441200D01*
X794400Y442800D02*X797600D01*
X839500Y459900D02*Y456700D01*
X837900Y458300D02*X841100D01*
X876000Y486900D02*Y483700D01*
X874400Y485300D02*X877600D01*
X860000Y486900D02*Y483700D01*
X858400Y485300D02*X861600D01*
X813000Y438900D02*Y435700D01*
X811400Y437300D02*X814600D01*
X823000Y438900D02*Y435700D01*
X821400Y437300D02*X824600D01*
X813000Y449900D02*Y446700D01*
X811400Y448300D02*X814600D01*
X833500Y460400D02*Y457200D01*
X831900Y458800D02*X835100D01*
X828000Y457900D02*Y454700D01*
X826400Y456300D02*X829600D01*
X819000Y449900D02*Y446700D01*
X817400Y448300D02*X820600D01*
X900000Y491900D02*Y488700D01*
X898400Y490300D02*X901600D01*
X886000Y497900D02*Y494700D01*
X884400Y496300D02*X887600D01*
X875500Y497900D02*Y494700D01*
X873900Y496300D02*X877100D01*
X857000Y492900D02*Y489700D01*
X855400Y491300D02*X858600D01*
X150000Y296900D02*Y293700D01*
X148400Y295300D02*X151600D01*
X235500Y292900D02*Y289700D01*
X233900Y291300D02*X237100D01*
X220000Y284900D02*Y281700D01*
X218400Y283300D02*X221600D01*
X191000Y291900D02*Y288700D01*
X189400Y290300D02*X192600D01*
X267000Y282900D02*Y279700D01*
X265400Y281300D02*X268600D01*
X262000Y294900D02*Y291700D01*
X260400Y293300D02*X263600D01*
X184000Y276400D02*Y273200D01*
X182400Y274800D02*X185600D01*
X227500Y291900D02*Y288700D01*
X225900Y290300D02*X229100D01*
X264000Y318900D02*Y315700D01*
X262400Y317300D02*X265600D01*
X248000Y318900D02*Y315700D01*
X246400Y317300D02*X249600D01*
X201000Y270900D02*Y267700D01*
X199400Y269300D02*X202600D01*
X211000Y270900D02*Y267700D01*
X209400Y269300D02*X212600D01*
X201000Y281900D02*Y278700D01*
X199400Y280300D02*X202600D01*
X221500Y292400D02*Y289200D01*
X219900Y290800D02*X223100D01*
X216000Y289900D02*Y286700D01*
X214400Y288300D02*X217600D01*
X207000Y281900D02*Y278700D01*
X205400Y280300D02*X208600D01*
X288000Y323900D02*Y320700D01*
X286400Y322300D02*X289600D01*
X274000Y329900D02*Y326700D01*
X272400Y328300D02*X275600D01*
X263500Y329900D02*Y326700D01*
X261900Y328300D02*X265100D01*
X245000Y324900D02*Y321700D01*
X243400Y323300D02*X246600D01*
X456000Y296900D02*Y293700D01*
X454400Y295300D02*X457600D01*
X541500Y292900D02*Y289700D01*
X539900Y291300D02*X543100D01*
X526000Y284900D02*Y281700D01*
X524400Y283300D02*X527600D01*
X497000Y291900D02*Y288700D01*
X495400Y290300D02*X498600D01*
X573000Y282900D02*Y279700D01*
X571400Y281300D02*X574600D01*
X568000Y294900D02*Y291700D01*
X566400Y293300D02*X569600D01*
X490000Y276400D02*Y273200D01*
X488400Y274800D02*X491600D01*
X533500Y291900D02*Y288700D01*
X531900Y290300D02*X535100D01*
X570000Y318900D02*Y315700D01*
X568400Y317300D02*X571600D01*
X554000Y318900D02*Y315700D01*
X552400Y317300D02*X555600D01*
X507000Y270900D02*Y267700D01*
X505400Y269300D02*X508600D01*
X517000Y270900D02*Y267700D01*
X515400Y269300D02*X518600D01*
X507000Y281900D02*Y278700D01*
X505400Y280300D02*X508600D01*
X527500Y292400D02*Y289200D01*
X525900Y290800D02*X529100D01*
X522000Y289900D02*Y286700D01*
X520400Y288300D02*X523600D01*
X513000Y281900D02*Y278700D01*
X511400Y280300D02*X514600D01*
X594000Y323900D02*Y320700D01*
X592400Y322300D02*X595600D01*
X580000Y329900D02*Y326700D01*
X578400Y328300D02*X581600D01*
X569500Y329900D02*Y326700D01*
X567900Y328300D02*X571100D01*
X551000Y324900D02*Y321700D01*
X549400Y323300D02*X552600D01*
X762000Y296900D02*Y293700D01*
X760400Y295300D02*X763600D01*
X847500Y292900D02*Y289700D01*
X845900Y291300D02*X849100D01*
X832000Y284900D02*Y281700D01*
X830400Y283300D02*X833600D01*
X803000Y291900D02*Y288700D01*
X801400Y290300D02*X804600D01*
X879000Y282900D02*Y279700D01*
X877400Y281300D02*X880600D01*
X874000Y294900D02*Y291700D01*
X872400Y293300D02*X875600D01*
X796000Y276400D02*Y273200D01*
X794400Y274800D02*X797600D01*
X839500Y291900D02*Y288700D01*
X837900Y290300D02*X841100D01*
X876000Y318900D02*Y315700D01*
X874400Y317300D02*X877600D01*
X860000Y318900D02*Y315700D01*
X858400Y317300D02*X861600D01*
X813000Y270900D02*Y267700D01*
X811400Y269300D02*X814600D01*
X823000Y270900D02*Y267700D01*
X821400Y269300D02*X824600D01*
X813000Y281900D02*Y278700D01*
X811400Y280300D02*X814600D01*
X833500Y292400D02*Y289200D01*
X831900Y290800D02*X835100D01*
X828000Y289900D02*Y286700D01*
X826400Y288300D02*X829600D01*
X819000Y281900D02*Y278700D01*
X817400Y280300D02*X820600D01*
X900000Y323900D02*Y320700D01*
X898400Y322300D02*X901600D01*
X886000Y329900D02*Y326700D01*
X884400Y328300D02*X887600D01*
X875500Y329900D02*Y326700D01*
X873900Y328300D02*X877100D01*
X857000Y324900D02*Y321700D01*
X855400Y323300D02*X858600D01*
X150000Y128900D02*Y125700D01*
X148400Y127300D02*X151600D01*
X235500Y124900D02*Y121700D01*
X233900Y123300D02*X237100D01*
X220000Y116900D02*Y113700D01*
X218400Y115300D02*X221600D01*
X191000Y123900D02*Y120700D01*
X189400Y122300D02*X192600D01*
X267000Y114900D02*Y111700D01*
X265400Y113300D02*X268600D01*
X262000Y126900D02*Y123700D01*
X260400Y125300D02*X263600D01*
X184000Y108400D02*Y105200D01*
X182400Y106800D02*X185600D01*
X227500Y123900D02*Y120700D01*
X225900Y122300D02*X229100D01*
X264000Y150900D02*Y147700D01*
X262400Y149300D02*X265600D01*
X248000Y150900D02*Y147700D01*
X246400Y149300D02*X249600D01*
X201000Y102900D02*Y99700D01*
X199400Y101300D02*X202600D01*
X211000Y102900D02*Y99700D01*
X209400Y101300D02*X212600D01*
X201000Y113900D02*Y110700D01*
X199400Y112300D02*X202600D01*
X221500Y124400D02*Y121200D01*
X219900Y122800D02*X223100D01*
X216000Y121900D02*Y118700D01*
X214400Y120300D02*X217600D01*
X207000Y113900D02*Y110700D01*
X205400Y112300D02*X208600D01*
X288000Y155900D02*Y152700D01*
X286400Y154300D02*X289600D01*
X274000Y161900D02*Y158700D01*
X272400Y160300D02*X275600D01*
X263500Y161900D02*Y158700D01*
X261900Y160300D02*X265100D01*
X245000Y156900D02*Y153700D01*
X243400Y155300D02*X246600D01*
X366500Y136600D02*Y133400D01*
X364900Y135000D02*X368100D01*
X410500Y156600D02*Y153400D01*
X408900Y155000D02*X412100D01*
X410500Y121100D02*Y117900D01*
X408900Y119500D02*X412100D01*
X386000Y98600D02*Y95400D01*
X384400Y97000D02*X387600D01*
X464500Y158600D02*Y155400D01*
X462900Y157000D02*X466100D01*
X498000Y141100D02*Y137900D01*
X496400Y139500D02*X499600D01*
X532000Y153100D02*Y149900D01*
X530400Y151500D02*X533600D01*
X532000Y97100D02*Y93900D01*
X530400Y95500D02*X533600D01*
X522500Y153600D02*Y150400D01*
X520900Y152000D02*X524100D01*
X466500Y148600D02*Y145400D01*
X464900Y147000D02*X468100D01*
X476000Y158600D02*Y155400D01*
X474400Y157000D02*X477600D01*
X555500Y126600D02*Y123400D01*
X553900Y125000D02*X557100D01*
X444500Y126600D02*Y123400D01*
X442900Y125000D02*X446100D01*
X454500Y136600D02*Y133400D01*
X452900Y135000D02*X456100D01*
X428000Y136100D02*Y132900D01*
X426400Y134500D02*X429600D01*
X672500Y136600D02*Y133400D01*
X670900Y135000D02*X674100D01*
X716500Y156600D02*Y153400D01*
X714900Y155000D02*X718100D01*
X716500Y121100D02*Y117900D01*
X714900Y119500D02*X718100D01*
X692000Y98600D02*Y95400D01*
X690400Y97000D02*X693600D01*
X770500Y158600D02*Y155400D01*
X768900Y157000D02*X772100D01*
X804000Y141100D02*Y137900D01*
X802400Y139500D02*X805600D01*
X838000Y153100D02*Y149900D01*
X836400Y151500D02*X839600D01*
X838000Y97100D02*Y93900D01*
X836400Y95500D02*X839600D01*
X828500Y153600D02*Y150400D01*
X826900Y152000D02*X830100D01*
X772500Y148600D02*Y145400D01*
X770900Y147000D02*X774100D01*
X782000Y158600D02*Y155400D01*
X780400Y157000D02*X783600D01*
X861500Y126600D02*Y123400D01*
X859900Y125000D02*X863100D01*
X750500Y126600D02*Y123400D01*
X748900Y125000D02*X752100D01*
X760500Y136600D02*Y133400D01*
X758900Y135000D02*X762100D01*
X734000Y136100D02*Y132900D01*
X732400Y134500D02*X735600D01*
X15000Y666850D02*Y663650D01*
X13400Y665250D02*X16600D01*
X135000Y667500D02*Y666750D01*
X136500Y665250D01*
X138000Y666750D01*
Y667500D02*Y666750D01*
X136500Y665250D02*Y661500D01*
X139801Y664500D02*X142051D01*
X139801Y661500D02*X142801D01*
X139801Y667500D02*Y661500D01*
Y667500D02*X142801D01*
X147603D02*X148353Y666750D01*
X145353Y667500D02*X147603D01*
X144603Y666750D02*X145353Y667500D01*
X144603Y666750D02*Y665250D01*
X145353Y664500D01*
X147603D01*
X148353Y663750D01*
Y662250D01*
X147603Y661500D02*X148353Y662250D01*
X145353Y661500D02*X147603D01*
X144603Y662250D02*X145353Y661500D01*
X135000Y658249D02*X150154D01*
X98000Y666750D02*X98750Y667500D01*
X101000D01*
X101750Y666750D01*
Y665250D01*
X98000Y661500D02*X101750Y665250D01*
X98000Y661500D02*X101750D01*
X103551Y667500D02*X106551D01*
X103551D02*Y664500D01*
X104301Y665250D01*
X105801D01*
X106551Y664500D01*
Y662250D01*
X105801Y661500D02*X106551Y662250D01*
X104301Y661500D02*X105801D01*
X103551Y662250D02*X104301Y661500D01*
X109103D02*X110603D01*
X109853Y667500D02*Y661500D01*
X108353Y666000D02*X109853Y667500D01*
X98000Y658249D02*X112404D01*
X15000Y680250D02*Y678650D01*
Y680250D02*X16386Y681050D01*
X15000Y680250D02*X13614Y681050D01*
X140000Y682500D02*Y676500D01*
Y682500D02*Y681750D01*
X143750Y678000D01*
Y682500D02*Y676500D01*
X145551Y681750D02*Y677250D01*
Y681750D02*X146301Y682500D01*
X147801D01*
X148551Y681750D01*
Y677250D01*
X147801Y676500D02*X148551Y677250D01*
X146301Y676500D02*X147801D01*
X145551Y677250D02*X146301Y676500D01*
X140000Y673249D02*X150353D01*
X98000Y676500D02*X101750Y680250D01*
Y682500D02*Y680250D01*
X98000Y682500D02*X101750D01*
X98000Y673249D02*X103551D01*
X45000Y677250D02*X45750Y676500D01*
X45000Y681750D02*Y677250D01*
Y681750D02*X45750Y682500D01*
X47250D01*
X48000Y681750D01*
Y677250D01*
X47250Y676500D02*X48000Y677250D01*
X45750Y676500D02*X47250D01*
X45000Y678000D02*X48000Y681000D01*
X49801Y676500D02*X50551D01*
X52353Y677250D02*X53103Y676500D01*
X52353Y681750D02*Y677250D01*
Y681750D02*X53103Y682500D01*
X54603D01*
X55353Y681750D01*
Y677250D01*
X54603Y676500D02*X55353Y677250D01*
X53103Y676500D02*X54603D01*
X52353Y678000D02*X55353Y681000D01*
X57154Y681750D02*X57904Y682500D01*
X60154D01*
X60904Y681750D01*
Y680250D01*
X57154Y676500D02*X60904Y680250D01*
X57154Y676500D02*X60904D01*
X62706Y677250D02*X63456Y676500D01*
X62706Y681750D02*Y677250D01*
Y681750D02*X63456Y682500D01*
X64956D01*
X65706Y681750D01*
Y677250D01*
X64956Y676500D02*X65706Y677250D01*
X63456Y676500D02*X64956D01*
X62706Y678000D02*X65706Y681000D01*
X45000Y673249D02*X67507D01*
X45000Y662250D02*X45750Y661500D01*
X45000Y666750D02*Y662250D01*
Y666750D02*X45750Y667500D01*
X47250D01*
X48000Y666750D01*
Y662250D01*
X47250Y661500D02*X48000Y662250D01*
X45750Y661500D02*X47250D01*
X45000Y663000D02*X48000Y666000D01*
X49801Y661500D02*X50551D01*
X52353Y662250D02*X53103Y661500D01*
X52353Y666750D02*Y662250D01*
Y666750D02*X53103Y667500D01*
X54603D01*
X55353Y666750D01*
Y662250D01*
X54603Y661500D02*X55353Y662250D01*
X53103Y661500D02*X54603D01*
X52353Y663000D02*X55353Y666000D01*
X57154Y666750D02*X57904Y667500D01*
X60154D01*
X60904Y666750D01*
Y665250D01*
X57154Y661500D02*X60904Y665250D01*
X57154Y661500D02*X60904D01*
X62706Y662250D02*X63456Y661500D01*
X62706Y666750D02*Y662250D01*
Y666750D02*X63456Y667500D01*
X64956D01*
X65706Y666750D01*
Y662250D01*
X64956Y661500D02*X65706Y662250D01*
X63456Y661500D02*X64956D01*
X62706Y663000D02*X65706Y666000D01*
X45000Y658249D02*X67507D01*
X3000Y697500D02*X3750Y696750D01*
X750Y697500D02*X3000D01*
X0Y696750D02*X750Y697500D01*
X0Y696750D02*Y695250D01*
X750Y694500D01*
X3000D01*
X3750Y693750D01*
Y692250D01*
X3000Y691500D02*X3750Y692250D01*
X750Y691500D02*X3000D01*
X0Y692250D02*X750Y691500D01*
X5551Y694500D02*Y692250D01*
X6301Y691500D01*
X8551Y694500D02*Y690000D01*
X7801Y689250D02*X8551Y690000D01*
X6301Y689250D02*X7801D01*
X5551Y690000D02*X6301Y689250D01*
Y691500D02*X7801D01*
X8551Y692250D01*
X11103Y693750D02*Y691500D01*
Y693750D02*X11853Y694500D01*
X12603D01*
X13353Y693750D01*
Y691500D01*
Y693750D02*X14103Y694500D01*
X14853D01*
X15603Y693750D01*
Y691500D01*
X10353Y694500D02*X11103Y693750D01*
X17404Y697500D02*Y691500D01*
Y692250D02*X18154Y691500D01*
X19654D01*
X20404Y692250D01*
Y693750D02*Y692250D01*
X19654Y694500D02*X20404Y693750D01*
X18154Y694500D02*X19654D01*
X17404Y693750D02*X18154Y694500D01*
X22206Y693750D02*Y692250D01*
Y693750D02*X22956Y694500D01*
X24456D01*
X25206Y693750D01*
Y692250D01*
X24456Y691500D02*X25206Y692250D01*
X22956Y691500D02*X24456D01*
X22206Y692250D02*X22956Y691500D01*
X27007Y697500D02*Y692250D01*
X27757Y691500D01*
X41750Y697500D02*Y691500D01*
X44000Y697500D02*X44750Y696750D01*
Y692250D01*
X44000Y691500D02*X44750Y692250D01*
X41000Y691500D02*X44000D01*
X41000Y697500D02*X44000D01*
X46551Y696000D02*Y695250D01*
Y693750D02*Y691500D01*
X50303Y694500D02*X51053Y693750D01*
X48803Y694500D02*X50303D01*
X48053Y693750D02*X48803Y694500D01*
X48053Y693750D02*Y692250D01*
X48803Y691500D01*
X51053Y694500D02*Y692250D01*
X51803Y691500D01*
X48803D02*X50303D01*
X51053Y692250D01*
X54354Y693750D02*Y691500D01*
Y693750D02*X55104Y694500D01*
X55854D01*
X56604Y693750D01*
Y691500D01*
Y693750D02*X57354Y694500D01*
X58104D01*
X58854Y693750D01*
Y691500D01*
X53604Y694500D02*X54354Y693750D01*
X60656Y691500D02*X61406D01*
X65907Y692250D02*X66657Y691500D01*
X65907Y696750D02*X66657Y697500D01*
X65907Y696750D02*Y692250D01*
X68459Y697500D02*X69959D01*
X69209D02*Y691500D01*
X68459D02*X69959D01*
X72510Y693750D02*Y691500D01*
Y693750D02*X73260Y694500D01*
X74010D01*
X74760Y693750D01*
Y691500D01*
X71760Y694500D02*X72510Y693750D01*
X77312Y694500D02*X79562D01*
X76562Y693750D02*X77312Y694500D01*
X76562Y693750D02*Y692250D01*
X77312Y691500D01*
X79562D01*
X81363Y697500D02*Y691500D01*
Y693750D02*X82113Y694500D01*
X83613D01*
X84363Y693750D01*
Y691500D01*
X86165Y697500D02*X86915Y696750D01*
Y692250D01*
X86165Y691500D02*X86915Y692250D01*
X95750Y691500D02*X98000D01*
X95000Y692250D02*X95750Y691500D01*
X95000Y696750D02*Y692250D01*
Y696750D02*X95750Y697500D01*
X98000D01*
X99801Y693750D02*Y692250D01*
Y693750D02*X100551Y694500D01*
X102051D01*
X102801Y693750D01*
Y692250D01*
X102051Y691500D02*X102801Y692250D01*
X100551Y691500D02*X102051D01*
X99801Y692250D02*X100551Y691500D01*
X104603Y694500D02*Y692250D01*
X105353Y691500D01*
X106853D01*
X107603Y692250D01*
Y694500D02*Y692250D01*
X110154Y693750D02*Y691500D01*
Y693750D02*X110904Y694500D01*
X111654D01*
X112404Y693750D01*
Y691500D01*
X109404Y694500D02*X110154Y693750D01*
X114956Y697500D02*Y692250D01*
X115706Y691500D01*
X114206Y695250D02*X115706D01*
X130750Y697500D02*Y691500D01*
X130000Y697500D02*X133000D01*
X133750Y696750D01*
Y695250D01*
X133000Y694500D02*X133750Y695250D01*
X130750Y694500D02*X133000D01*
X135551Y697500D02*Y692250D01*
X136301Y691500D01*
X140053Y694500D02*X140803Y693750D01*
X138553Y694500D02*X140053D01*
X137803Y693750D02*X138553Y694500D01*
X137803Y693750D02*Y692250D01*
X138553Y691500D01*
X140803Y694500D02*Y692250D01*
X141553Y691500D01*
X138553D02*X140053D01*
X140803Y692250D01*
X144104Y697500D02*Y692250D01*
X144854Y691500D01*
X143354Y695250D02*X144854D01*
X147106Y691500D02*X149356D01*
X146356Y692250D02*X147106Y691500D01*
X146356Y693750D02*Y692250D01*
Y693750D02*X147106Y694500D01*
X148606D01*
X149356Y693750D01*
X146356Y693000D02*X149356D01*
Y693750D02*Y693000D01*
X154157Y697500D02*Y691500D01*
X153407D02*X154157Y692250D01*
X151907Y691500D02*X153407D01*
X151157Y692250D02*X151907Y691500D01*
X151157Y693750D02*Y692250D01*
Y693750D02*X151907Y694500D01*
X153407D01*
X154157Y693750D01*
X157459Y694500D02*Y693750D01*
Y692250D02*Y691500D01*
X155959Y696750D02*Y696000D01*
Y696750D02*X156709Y697500D01*
X158209D01*
X158959Y696750D01*
Y696000D01*
X157459Y694500D02*X158959Y696000D01*
X0Y712500D02*X3000D01*
X1500D02*Y706500D01*
X4801Y712500D02*Y706500D01*
Y708750D02*X5551Y709500D01*
X7051D01*
X7801Y708750D01*
Y706500D01*
X10353D02*X12603D01*
X9603Y707250D02*X10353Y706500D01*
X9603Y708750D02*Y707250D01*
Y708750D02*X10353Y709500D01*
X11853D01*
X12603Y708750D01*
X9603Y708000D02*X12603D01*
Y708750D02*Y708000D01*
X15154Y708750D02*Y706500D01*
Y708750D02*X15904Y709500D01*
X17404D01*
X14404D02*X15154Y708750D01*
X19956Y706500D02*X22206D01*
X19206Y707250D02*X19956Y706500D01*
X19206Y708750D02*Y707250D01*
Y708750D02*X19956Y709500D01*
X21456D01*
X22206Y708750D01*
X19206Y708000D02*X22206D01*
Y708750D02*Y708000D01*
X28957Y709500D02*X29707Y708750D01*
X27457Y709500D02*X28957D01*
X26707Y708750D02*X27457Y709500D01*
X26707Y708750D02*Y707250D01*
X27457Y706500D01*
X29707Y709500D02*Y707250D01*
X30457Y706500D01*
X27457D02*X28957D01*
X29707Y707250D01*
X33009Y708750D02*Y706500D01*
Y708750D02*X33759Y709500D01*
X35259D01*
X32259D02*X33009Y708750D01*
X37810Y706500D02*X40060D01*
X37060Y707250D02*X37810Y706500D01*
X37060Y708750D02*Y707250D01*
Y708750D02*X37810Y709500D01*
X39310D01*
X40060Y708750D01*
X37060Y708000D02*X40060D01*
Y708750D02*Y708000D01*
X44562Y706500D02*X47562Y709500D01*
Y711750D02*Y709500D01*
X46812Y712500D02*X47562Y711750D01*
X45312Y712500D02*X46812D01*
X44562Y711750D02*X45312Y712500D01*
X44562Y711750D02*Y710250D01*
X45312Y709500D01*
X47562D01*
X55063Y712500D02*Y706500D01*
X54313D02*X55063Y707250D01*
X52813Y706500D02*X54313D01*
X52063Y707250D02*X52813Y706500D01*
X52063Y708750D02*Y707250D01*
Y708750D02*X52813Y709500D01*
X54313D01*
X55063Y708750D01*
X56865Y711000D02*Y710250D01*
Y708750D02*Y706500D01*
X59116Y711750D02*Y706500D01*
Y711750D02*X59866Y712500D01*
X60616D01*
X58366Y709500D02*X59866D01*
X62868Y711750D02*Y706500D01*
Y711750D02*X63618Y712500D01*
X64368D01*
X62118Y709500D02*X63618D01*
X66619Y706500D02*X68869D01*
X65869Y707250D02*X66619Y706500D01*
X65869Y708750D02*Y707250D01*
Y708750D02*X66619Y709500D01*
X68119D01*
X68869Y708750D01*
X65869Y708000D02*X68869D01*
Y708750D02*Y708000D01*
X71421Y708750D02*Y706500D01*
Y708750D02*X72171Y709500D01*
X73671D01*
X70671D02*X71421Y708750D01*
X76222Y706500D02*X78472D01*
X75472Y707250D02*X76222Y706500D01*
X75472Y708750D02*Y707250D01*
Y708750D02*X76222Y709500D01*
X77722D01*
X78472Y708750D01*
X75472Y708000D02*X78472D01*
Y708750D02*Y708000D01*
X81024Y708750D02*Y706500D01*
Y708750D02*X81774Y709500D01*
X82524D01*
X83274Y708750D01*
Y706500D01*
X80274Y709500D02*X81024Y708750D01*
X85825Y712500D02*Y707250D01*
X86575Y706500D01*
X85075Y710250D02*X86575D01*
X93777Y712500D02*Y706500D01*
X93027D02*X93777Y707250D01*
X91527Y706500D02*X93027D01*
X90777Y707250D02*X91527Y706500D01*
X90777Y708750D02*Y707250D01*
Y708750D02*X91527Y709500D01*
X93027D01*
X93777Y708750D01*
X96328D02*Y706500D01*
Y708750D02*X97078Y709500D01*
X98578D01*
X95578D02*X96328Y708750D01*
X100380Y711000D02*Y710250D01*
Y708750D02*Y706500D01*
X101881Y712500D02*Y707250D01*
X102631Y706500D01*
X104133Y712500D02*Y707250D01*
X104883Y706500D01*
X109834D02*X112084D01*
X112834Y707250D01*
X112084Y708000D02*X112834Y707250D01*
X109834Y708000D02*X112084D01*
X109084Y708750D02*X109834Y708000D01*
X109084Y708750D02*X109834Y709500D01*
X112084D01*
X112834Y708750D01*
X109084Y707250D02*X109834Y706500D01*
X114636Y711000D02*Y710250D01*
Y708750D02*Y706500D01*
X116137Y709500D02*X119137D01*
X116137Y706500D02*X119137Y709500D01*
X116137Y706500D02*X119137D01*
X121689D02*X123939D01*
X120939Y707250D02*X121689Y706500D01*
X120939Y708750D02*Y707250D01*
Y708750D02*X121689Y709500D01*
X123189D01*
X123939Y708750D01*
X120939Y708000D02*X123939D01*
Y708750D02*Y708000D01*
X126490Y706500D02*X128740D01*
X129490Y707250D01*
X128740Y708000D02*X129490Y707250D01*
X126490Y708000D02*X128740D01*
X125740Y708750D02*X126490Y708000D01*
X125740Y708750D02*X126490Y709500D01*
X128740D01*
X129490Y708750D01*
X125740Y707250D02*X126490Y706500D01*
X133992Y709500D02*Y707250D01*
X134742Y706500D01*
X136242D01*
X136992Y707250D01*
Y709500D02*Y707250D01*
X139543Y706500D02*X141793D01*
X142543Y707250D01*
X141793Y708000D02*X142543Y707250D01*
X139543Y708000D02*X141793D01*
X138793Y708750D02*X139543Y708000D01*
X138793Y708750D02*X139543Y709500D01*
X141793D01*
X142543Y708750D01*
X138793Y707250D02*X139543Y706500D01*
X145095D02*X147345D01*
X144345Y707250D02*X145095Y706500D01*
X144345Y708750D02*Y707250D01*
Y708750D02*X145095Y709500D01*
X146595D01*
X147345Y708750D01*
X144345Y708000D02*X147345D01*
Y708750D02*Y708000D01*
X152146Y712500D02*Y706500D01*
X151396D02*X152146Y707250D01*
X149896Y706500D02*X151396D01*
X149146Y707250D02*X149896Y706500D01*
X149146Y708750D02*Y707250D01*
Y708750D02*X149896Y709500D01*
X151396D01*
X152146Y708750D01*
X156648Y711000D02*Y710250D01*
Y708750D02*Y706500D01*
X158899Y708750D02*Y706500D01*
Y708750D02*X159649Y709500D01*
X160399D01*
X161149Y708750D01*
Y706500D01*
X158149Y709500D02*X158899Y708750D01*
X166401Y712500D02*Y707250D01*
X167151Y706500D01*
X165651Y710250D02*X167151D01*
X168652Y712500D02*Y706500D01*
Y708750D02*X169402Y709500D01*
X170902D01*
X171652Y708750D01*
Y706500D01*
X173454Y711000D02*Y710250D01*
Y708750D02*Y706500D01*
X175705D02*X177955D01*
X178705Y707250D01*
X177955Y708000D02*X178705Y707250D01*
X175705Y708000D02*X177955D01*
X174955Y708750D02*X175705Y708000D01*
X174955Y708750D02*X175705Y709500D01*
X177955D01*
X178705Y708750D01*
X174955Y707250D02*X175705Y706500D01*
X183207Y712500D02*Y707250D01*
X183957Y706500D01*
X187708Y709500D02*X188458Y708750D01*
X186208Y709500D02*X187708D01*
X185458Y708750D02*X186208Y709500D01*
X185458Y708750D02*Y707250D01*
X186208Y706500D01*
X188458Y709500D02*Y707250D01*
X189208Y706500D01*
X186208D02*X187708D01*
X188458Y707250D01*
X191010Y709500D02*Y707250D01*
X191760Y706500D01*
X194010Y709500D02*Y705000D01*
X193260Y704250D02*X194010Y705000D01*
X191760Y704250D02*X193260D01*
X191010Y705000D02*X191760Y704250D01*
Y706500D02*X193260D01*
X194010Y707250D01*
X195811Y708750D02*Y707250D01*
Y708750D02*X196561Y709500D01*
X198061D01*
X198811Y708750D01*
Y707250D01*
X198061Y706500D02*X198811Y707250D01*
X196561Y706500D02*X198061D01*
X195811Y707250D02*X196561Y706500D01*
X200613Y709500D02*Y707250D01*
X201363Y706500D01*
X202863D01*
X203613Y707250D01*
Y709500D02*Y707250D01*
X206164Y712500D02*Y707250D01*
X206914Y706500D01*
X205414Y710250D02*X206914D01*
X208416Y705000D02*X209916Y706500D01*
X215167D02*X216667D01*
X215917Y712500D02*Y706500D01*
X214417Y711000D02*X215917Y712500D01*
X219219Y706500D02*X220719D01*
X219969Y712500D02*Y706500D01*
X218469Y711000D02*X219969Y712500D01*
X222520Y707250D02*X223270Y706500D01*
X222520Y708750D02*Y707250D01*
Y708750D02*X223270Y709500D01*
X224770D01*
X225520Y708750D01*
Y707250D01*
X224770Y706500D02*X225520Y707250D01*
X223270Y706500D02*X224770D01*
X222520Y710250D02*X223270Y709500D01*
X222520Y711750D02*Y710250D01*
Y711750D02*X223270Y712500D01*
X224770D01*
X225520Y711750D01*
Y710250D01*
X224770Y709500D02*X225520Y710250D01*
X228072Y706500D02*X229572D01*
X228822Y712500D02*Y706500D01*
X227322Y711000D02*X228822Y712500D01*
X234073D02*Y706500D01*
Y708750D02*X234823Y709500D01*
X236323D01*
X237073Y708750D01*
Y706500D01*
X238875Y708750D02*Y707250D01*
Y708750D02*X239625Y709500D01*
X241125D01*
X241875Y708750D01*
Y707250D01*
X241125Y706500D02*X241875Y707250D01*
X239625Y706500D02*X241125D01*
X238875Y707250D02*X239625Y706500D01*
X243676Y712500D02*Y707250D01*
X244426Y706500D01*
X246678D02*X248928D01*
X245928Y707250D02*X246678Y706500D01*
X245928Y708750D02*Y707250D01*
Y708750D02*X246678Y709500D01*
X248178D01*
X248928Y708750D01*
X245928Y708000D02*X248928D01*
Y708750D02*Y708000D01*
X251479Y706500D02*X253729D01*
X254479Y707250D01*
X253729Y708000D02*X254479Y707250D01*
X251479Y708000D02*X253729D01*
X250729Y708750D02*X251479Y708000D01*
X250729Y708750D02*X251479Y709500D01*
X253729D01*
X254479Y708750D01*
X250729Y707250D02*X251479Y706500D01*
X259731Y712500D02*Y707250D01*
X260481Y706500D01*
X258981Y710250D02*X260481D01*
X261982Y708750D02*Y707250D01*
Y708750D02*X262732Y709500D01*
X264232D01*
X264982Y708750D01*
Y707250D01*
X264232Y706500D02*X264982Y707250D01*
X262732Y706500D02*X264232D01*
X261982Y707250D02*X262732Y706500D01*
X267534Y712500D02*Y707250D01*
X268284Y706500D01*
X266784Y710250D02*X268284D01*
X272035Y709500D02*X272785Y708750D01*
X270535Y709500D02*X272035D01*
X269785Y708750D02*X270535Y709500D01*
X269785Y708750D02*Y707250D01*
X270535Y706500D01*
X272785Y709500D02*Y707250D01*
X273535Y706500D01*
X270535D02*X272035D01*
X272785Y707250D01*
X275337Y712500D02*Y707250D01*
X276087Y706500D01*
G54D12*X0Y534000D02*X948000D01*
X0D02*Y0D01*
X948000Y534000D02*Y0D01*
X0D02*X948000D01*
G54D57*X200000Y547500D02*Y541500D01*
Y547500D02*X202250Y545250D01*
X204500Y547500D01*
Y541500D01*
X208551Y544500D02*X209301Y543750D01*
X207051Y544500D02*X208551D01*
X206301Y543750D02*X207051Y544500D01*
X206301Y543750D02*Y542250D01*
X207051Y541500D01*
X209301Y544500D02*Y542250D01*
X210051Y541500D01*
X207051D02*X208551D01*
X209301Y542250D01*
X211853Y544500D02*X214853Y541500D01*
X211853D02*X214853Y544500D01*
X216654Y546000D02*Y545250D01*
Y543750D02*Y541500D01*
X218906Y543750D02*Y541500D01*
Y543750D02*X219656Y544500D01*
X220406D01*
X221156Y543750D01*
Y541500D01*
Y543750D02*X221906Y544500D01*
X222656D01*
X223406Y543750D01*
Y541500D01*
X218156Y544500D02*X218906Y543750D01*
X225207Y544500D02*Y542250D01*
X225957Y541500D01*
X227457D01*
X228207Y542250D01*
Y544500D02*Y542250D01*
X230759Y543750D02*Y541500D01*
Y543750D02*X231509Y544500D01*
X232259D01*
X233009Y543750D01*
Y541500D01*
Y543750D02*X233759Y544500D01*
X234509D01*
X235259Y543750D01*
Y541500D01*
X230009Y544500D02*X230759Y543750D01*
X240510Y547500D02*Y541500D01*
X242760Y547500D02*X243510Y546750D01*
Y542250D01*
X242760Y541500D02*X243510Y542250D01*
X239760Y541500D02*X242760D01*
X239760Y547500D02*X242760D01*
X245312Y546000D02*Y545250D01*
Y543750D02*Y541500D01*
X247563Y543750D02*Y541500D01*
Y543750D02*X248313Y544500D01*
X249063D01*
X249813Y543750D01*
Y541500D01*
Y543750D02*X250563Y544500D01*
X251313D01*
X252063Y543750D01*
Y541500D01*
X246813Y544500D02*X247563Y543750D01*
X254615Y541500D02*X256865D01*
X253865Y542250D02*X254615Y541500D01*
X253865Y543750D02*Y542250D01*
Y543750D02*X254615Y544500D01*
X256115D01*
X256865Y543750D01*
X253865Y543000D02*X256865D01*
Y543750D02*Y543000D01*
X259416Y543750D02*Y541500D01*
Y543750D02*X260166Y544500D01*
X260916D01*
X261666Y543750D01*
Y541500D01*
X258666Y544500D02*X259416Y543750D01*
X264218Y541500D02*X266468D01*
X267218Y542250D01*
X266468Y543000D02*X267218Y542250D01*
X264218Y543000D02*X266468D01*
X263468Y543750D02*X264218Y543000D01*
X263468Y543750D02*X264218Y544500D01*
X266468D01*
X267218Y543750D01*
X263468Y542250D02*X264218Y541500D01*
X269019Y546000D02*Y545250D01*
Y543750D02*Y541500D01*
X270521Y543750D02*Y542250D01*
Y543750D02*X271271Y544500D01*
X272771D01*
X273521Y543750D01*
Y542250D01*
X272771Y541500D02*X273521Y542250D01*
X271271Y541500D02*X272771D01*
X270521Y542250D02*X271271Y541500D01*
X276072Y543750D02*Y541500D01*
Y543750D02*X276822Y544500D01*
X277572D01*
X278322Y543750D01*
Y541500D01*
X275322Y544500D02*X276072Y543750D01*
X280874Y541500D02*X283124D01*
X283874Y542250D01*
X283124Y543000D02*X283874Y542250D01*
X280874Y543000D02*X283124D01*
X280124Y543750D02*X280874Y543000D01*
X280124Y543750D02*X280874Y544500D01*
X283124D01*
X283874Y543750D01*
X280124Y542250D02*X280874Y541500D01*
X285675Y545250D02*X286425D01*
X285675Y543750D02*X286425D01*
X290927Y541500D02*X293927Y544500D01*
Y546750D02*Y544500D01*
X293177Y547500D02*X293927Y546750D01*
X291677Y547500D02*X293177D01*
X290927Y546750D02*X291677Y547500D01*
X290927Y546750D02*Y545250D01*
X291677Y544500D01*
X293927D01*
X295728D02*X298728Y547500D01*
X295728Y544500D02*X299478D01*
X298728Y547500D02*Y541500D01*
X301280Y542250D02*X302030Y541500D01*
X301280Y543750D02*Y542250D01*
Y543750D02*X302030Y544500D01*
X303530D01*
X304280Y543750D01*
Y542250D01*
X303530Y541500D02*X304280Y542250D01*
X302030Y541500D02*X303530D01*
X301280Y545250D02*X302030Y544500D01*
X301280Y546750D02*Y545250D01*
Y546750D02*X302030Y547500D01*
X303530D01*
X304280Y546750D01*
Y545250D01*
X303530Y544500D02*X304280Y545250D01*
X306081Y542250D02*X306831Y541500D01*
X306081Y546750D02*Y542250D01*
Y546750D02*X306831Y547500D01*
X308331D01*
X309081Y546750D01*
Y542250D01*
X308331Y541500D02*X309081Y542250D01*
X306831Y541500D02*X308331D01*
X306081Y543000D02*X309081Y546000D01*
X314333Y543750D02*Y541500D01*
Y543750D02*X315083Y544500D01*
X315833D01*
X316583Y543750D01*
Y541500D01*
Y543750D02*X317333Y544500D01*
X318083D01*
X318833Y543750D01*
Y541500D01*
X313583Y544500D02*X314333Y543750D01*
X320634Y546000D02*Y545250D01*
Y543750D02*Y541500D01*
X322136Y547500D02*Y542250D01*
X322886Y541500D01*
X325137D02*X327387D01*
X328137Y542250D01*
X327387Y543000D02*X328137Y542250D01*
X325137Y543000D02*X327387D01*
X324387Y543750D02*X325137Y543000D01*
X324387Y543750D02*X325137Y544500D01*
X327387D01*
X328137Y543750D01*
X324387Y542250D02*X325137Y541500D01*
X332639Y544500D02*Y542250D01*
X333389Y541500D01*
X334139D01*
X334889Y542250D01*
Y544500D02*Y542250D01*
X335639Y541500D01*
X336389D01*
X337139Y542250D01*
Y544500D02*Y542250D01*
X338940Y546000D02*Y545250D01*
Y543750D02*Y541500D01*
X343442Y547500D02*Y541500D01*
X342692D02*X343442Y542250D01*
X341192Y541500D02*X342692D01*
X340442Y542250D02*X341192Y541500D01*
X340442Y543750D02*Y542250D01*
Y543750D02*X341192Y544500D01*
X342692D01*
X343442Y543750D01*
X345993Y541500D02*X348243D01*
X345243Y542250D02*X345993Y541500D01*
X345243Y543750D02*Y542250D01*
Y543750D02*X345993Y544500D01*
X347493D01*
X348243Y543750D01*
X345243Y543000D02*X348243D01*
Y543750D02*Y543000D01*
X350045Y540000D02*X351545Y541500D01*
X356046Y547500D02*X359046D01*
X356046D02*Y544500D01*
X356796Y545250D01*
X358296D01*
X359046Y544500D01*
Y542250D01*
X358296Y541500D02*X359046Y542250D01*
X356796Y541500D02*X358296D01*
X356046Y542250D02*X356796Y541500D01*
X360848Y546750D02*X361598Y547500D01*
X363098D01*
X363848Y546750D01*
Y542250D01*
X363098Y541500D02*X363848Y542250D01*
X361598Y541500D02*X363098D01*
X360848Y542250D02*X361598Y541500D01*
Y544500D02*X363848D01*
X365649D02*X368649Y547500D01*
X365649Y544500D02*X369399D01*
X368649Y547500D02*Y541500D01*
X371201Y542250D02*X371951Y541500D01*
X371201Y546750D02*Y542250D01*
Y546750D02*X371951Y547500D01*
X373451D01*
X374201Y546750D01*
Y542250D01*
X373451Y541500D02*X374201Y542250D01*
X371951Y541500D02*X373451D01*
X371201Y543000D02*X374201Y546000D01*
X379452Y543750D02*Y541500D01*
Y543750D02*X380202Y544500D01*
X380952D01*
X381702Y543750D01*
Y541500D01*
Y543750D02*X382452Y544500D01*
X383202D01*
X383952Y543750D01*
Y541500D01*
X378702Y544500D02*X379452Y543750D01*
X385754Y546000D02*Y545250D01*
Y543750D02*Y541500D01*
X387255Y547500D02*Y542250D01*
X388005Y541500D01*
X390257D02*X392507D01*
X393257Y542250D01*
X392507Y543000D02*X393257Y542250D01*
X390257Y543000D02*X392507D01*
X389507Y543750D02*X390257Y543000D01*
X389507Y543750D02*X390257Y544500D01*
X392507D01*
X393257Y543750D01*
X389507Y542250D02*X390257Y541500D01*
X397758Y547500D02*Y541500D01*
Y543750D02*X398508Y544500D01*
X400008D01*
X400758Y543750D01*
Y541500D01*
X402560Y546000D02*Y545250D01*
Y543750D02*Y541500D01*
X406311Y544500D02*X407061Y543750D01*
X404811Y544500D02*X406311D01*
X404061Y543750D02*X404811Y544500D01*
X404061Y543750D02*Y542250D01*
X404811Y541500D01*
X406311D01*
X407061Y542250D01*
X404061Y540000D02*X404811Y539250D01*
X406311D01*
X407061Y540000D01*
Y544500D02*Y540000D01*
X408863Y547500D02*Y541500D01*
Y543750D02*X409613Y544500D01*
X411113D01*
X411863Y543750D01*
Y541500D01*
X315476Y-9500D02*X318476D01*
X319226Y-8750D01*
Y-7250D02*Y-8750D01*
X318476Y-6500D02*X319226Y-7250D01*
X316226Y-6500D02*X318476D01*
X316226Y-3500D02*Y-9500D01*
X315476Y-3500D02*X318476D01*
X319226Y-4250D01*
Y-5750D01*
X318476Y-6500D02*X319226Y-5750D01*
X321027Y-7250D02*Y-8750D01*
Y-7250D02*X321777Y-6500D01*
X323277D01*
X324027Y-7250D01*
Y-8750D01*
X323277Y-9500D02*X324027Y-8750D01*
X321777Y-9500D02*X323277D01*
X321027Y-8750D02*X321777Y-9500D01*
X328079Y-6500D02*X328829Y-7250D01*
X326579Y-6500D02*X328079D01*
X325829Y-7250D02*X326579Y-6500D01*
X325829Y-7250D02*Y-8750D01*
X326579Y-9500D01*
X328829Y-6500D02*Y-8750D01*
X329579Y-9500D01*
X326579D02*X328079D01*
X328829Y-8750D01*
X332130Y-7250D02*Y-9500D01*
Y-7250D02*X332880Y-6500D01*
X334380D01*
X331380D02*X332130Y-7250D01*
X339182Y-3500D02*Y-9500D01*
X338432D02*X339182Y-8750D01*
X336932Y-9500D02*X338432D01*
X336182Y-8750D02*X336932Y-9500D01*
X336182Y-7250D02*Y-8750D01*
Y-7250D02*X336932Y-6500D01*
X338432D01*
X339182Y-7250D01*
X343683D02*Y-8750D01*
Y-7250D02*X344433Y-6500D01*
X345933D01*
X346683Y-7250D01*
Y-8750D01*
X345933Y-9500D02*X346683Y-8750D01*
X344433Y-9500D02*X345933D01*
X343683Y-8750D02*X344433Y-9500D01*
X348485Y-6500D02*Y-8750D01*
X349235Y-9500D01*
X350735D01*
X351485Y-8750D01*
Y-6500D02*Y-8750D01*
X354036Y-3500D02*Y-8750D01*
X354786Y-9500D01*
X353286Y-5750D02*X354786D01*
X356288Y-3500D02*Y-8750D01*
X357038Y-9500D01*
X358539Y-5000D02*Y-5750D01*
Y-7250D02*Y-9500D01*
X360791Y-7250D02*Y-9500D01*
Y-7250D02*X361541Y-6500D01*
X362291D01*
X363041Y-7250D01*
Y-9500D01*
X360041Y-6500D02*X360791Y-7250D01*
X365592Y-9500D02*X367842D01*
X364842Y-8750D02*X365592Y-9500D01*
X364842Y-7250D02*Y-8750D01*
Y-7250D02*X365592Y-6500D01*
X367092D01*
X367842Y-7250D01*
X364842Y-8000D02*X367842D01*
Y-7250D02*Y-8000D01*
X372344Y-5000D02*Y-5750D01*
Y-7250D02*Y-9500D01*
X374595D02*X376845D01*
X377595Y-8750D01*
X376845Y-8000D02*X377595Y-8750D01*
X374595Y-8000D02*X376845D01*
X373845Y-7250D02*X374595Y-8000D01*
X373845Y-7250D02*X374595Y-6500D01*
X376845D01*
X377595Y-7250D01*
X373845Y-8750D02*X374595Y-9500D01*
X382847Y-3500D02*Y-8750D01*
X383597Y-9500D01*
X382097Y-5750D02*X383597D01*
X385098Y-3500D02*Y-9500D01*
Y-7250D02*X385848Y-6500D01*
X387348D01*
X388098Y-7250D01*
Y-9500D01*
X390650D02*X392900D01*
X389900Y-8750D02*X390650Y-9500D01*
X389900Y-7250D02*Y-8750D01*
Y-7250D02*X390650Y-6500D01*
X392150D01*
X392900Y-7250D01*
X389900Y-8000D02*X392900D01*
Y-7250D02*Y-8000D01*
X398151Y-6500D02*X400401D01*
X397401Y-7250D02*X398151Y-6500D01*
X397401Y-7250D02*Y-8750D01*
X398151Y-9500D01*
X400401D01*
X402953D02*X405203D01*
X402203Y-8750D02*X402953Y-9500D01*
X402203Y-7250D02*Y-8750D01*
Y-7250D02*X402953Y-6500D01*
X404453D01*
X405203Y-7250D01*
X402203Y-8000D02*X405203D01*
Y-7250D02*Y-8000D01*
X407754Y-7250D02*Y-9500D01*
Y-7250D02*X408504Y-6500D01*
X409254D01*
X410004Y-7250D01*
Y-9500D01*
X407004Y-6500D02*X407754Y-7250D01*
X412556Y-3500D02*Y-8750D01*
X413306Y-9500D01*
X411806Y-5750D02*X413306D01*
X415557Y-9500D02*X417807D01*
X414807Y-8750D02*X415557Y-9500D01*
X414807Y-7250D02*Y-8750D01*
Y-7250D02*X415557Y-6500D01*
X417057D01*
X417807Y-7250D01*
X414807Y-8000D02*X417807D01*
Y-7250D02*Y-8000D01*
X420359Y-7250D02*Y-9500D01*
Y-7250D02*X421109Y-6500D01*
X422609D01*
X419609D02*X420359Y-7250D01*
X424410Y-3500D02*Y-8750D01*
X425160Y-9500D01*
X426662Y-5000D02*Y-5750D01*
Y-7250D02*Y-9500D01*
X428913Y-7250D02*Y-9500D01*
Y-7250D02*X429663Y-6500D01*
X430413D01*
X431163Y-7250D01*
Y-9500D01*
X428163Y-6500D02*X428913Y-7250D01*
X433715Y-9500D02*X435965D01*
X432965Y-8750D02*X433715Y-9500D01*
X432965Y-7250D02*Y-8750D01*
Y-7250D02*X433715Y-6500D01*
X435215D01*
X435965Y-7250D01*
X432965Y-8000D02*X435965D01*
Y-7250D02*Y-8000D01*
X440466Y-7250D02*Y-8750D01*
Y-7250D02*X441216Y-6500D01*
X442716D01*
X443466Y-7250D01*
Y-8750D01*
X442716Y-9500D02*X443466Y-8750D01*
X441216Y-9500D02*X442716D01*
X440466Y-8750D02*X441216Y-9500D01*
X446018Y-4250D02*Y-9500D01*
Y-4250D02*X446768Y-3500D01*
X447518D01*
X445268Y-6500D02*X446768D01*
X452469Y-3500D02*Y-8750D01*
X453219Y-9500D01*
X451719Y-5750D02*X453219D01*
X454721Y-3500D02*Y-9500D01*
Y-7250D02*X455471Y-6500D01*
X456971D01*
X457721Y-7250D01*
Y-9500D01*
X459522Y-5000D02*Y-5750D01*
Y-7250D02*Y-9500D01*
X461774D02*X464024D01*
X464774Y-8750D01*
X464024Y-8000D02*X464774Y-8750D01*
X461774Y-8000D02*X464024D01*
X461024Y-7250D02*X461774Y-8000D01*
X461024Y-7250D02*X461774Y-6500D01*
X464024D01*
X464774Y-7250D01*
X461024Y-8750D02*X461774Y-9500D01*
X470025D02*X471525D01*
X470775Y-3500D02*Y-9500D01*
X469275Y-5000D02*X470775Y-3500D01*
X473327Y-8750D02*X474077Y-9500D01*
X473327Y-4250D02*Y-8750D01*
Y-4250D02*X474077Y-3500D01*
X475577D01*
X476327Y-4250D01*
Y-8750D01*
X475577Y-9500D02*X476327Y-8750D01*
X474077Y-9500D02*X475577D01*
X473327Y-8000D02*X476327Y-5000D01*
X481578Y-7250D02*Y-9500D01*
Y-7250D02*X482328Y-6500D01*
X483078D01*
X483828Y-7250D01*
Y-9500D01*
Y-7250D02*X484578Y-6500D01*
X485328D01*
X486078Y-7250D01*
Y-9500D01*
X480828Y-6500D02*X481578Y-7250D01*
X487880Y-5000D02*Y-5750D01*
Y-7250D02*Y-9500D01*
X489381Y-3500D02*Y-8750D01*
X490131Y-9500D01*
X495083Y-7250D02*Y-9500D01*
Y-7250D02*X495833Y-6500D01*
X497333D01*
X494333D02*X495083Y-7250D01*
X499884Y-9500D02*X502134D01*
X499134Y-8750D02*X499884Y-9500D01*
X499134Y-7250D02*Y-8750D01*
Y-7250D02*X499884Y-6500D01*
X501384D01*
X502134Y-7250D01*
X499134Y-8000D02*X502134D01*
Y-7250D02*Y-8000D01*
X504686Y-6500D02*X506936D01*
X503936Y-7250D02*X504686Y-6500D01*
X503936Y-7250D02*Y-8750D01*
X504686Y-9500D01*
X506936D01*
X509487Y-3500D02*Y-8750D01*
X510237Y-9500D01*
X508737Y-5750D02*X510237D01*
X513989Y-6500D02*X514739Y-7250D01*
X512489Y-6500D02*X513989D01*
X511739Y-7250D02*X512489Y-6500D01*
X511739Y-7250D02*Y-8750D01*
X512489Y-9500D01*
X514739Y-6500D02*Y-8750D01*
X515489Y-9500D01*
X512489D02*X513989D01*
X514739Y-8750D01*
X518040Y-7250D02*Y-9500D01*
Y-7250D02*X518790Y-6500D01*
X519540D01*
X520290Y-7250D01*
Y-9500D01*
X517290Y-6500D02*X518040Y-7250D01*
X524342Y-6500D02*X525092Y-7250D01*
X522842Y-6500D02*X524342D01*
X522092Y-7250D02*X522842Y-6500D01*
X522092Y-7250D02*Y-8750D01*
X522842Y-9500D01*
X524342D01*
X525092Y-8750D01*
X522092Y-11000D02*X522842Y-11750D01*
X524342D01*
X525092Y-11000D01*
Y-6500D02*Y-11000D01*
X526893Y-3500D02*Y-8750D01*
X527643Y-9500D01*
X529895D02*X532145D01*
X529145Y-8750D02*X529895Y-9500D01*
X529145Y-7250D02*Y-8750D01*
Y-7250D02*X529895Y-6500D01*
X531395D01*
X532145Y-7250D01*
X529145Y-8000D02*X532145D01*
Y-7250D02*Y-8000D01*
X536646Y-6500D02*X539646D01*
X544148Y-8750D02*X544898Y-9500D01*
X544148Y-4250D02*Y-8750D01*
Y-4250D02*X544898Y-3500D01*
X546398D01*
X547148Y-4250D01*
Y-8750D01*
X546398Y-9500D02*X547148Y-8750D01*
X544898Y-9500D02*X546398D01*
X544148Y-8000D02*X547148Y-5000D01*
X548949Y-11000D02*X550449Y-9500D01*
X552251Y-8750D02*X553001Y-9500D01*
X552251Y-4250D02*Y-8750D01*
Y-4250D02*X553001Y-3500D01*
X554501D01*
X555251Y-4250D01*
Y-8750D01*
X554501Y-9500D02*X555251Y-8750D01*
X553001Y-9500D02*X554501D01*
X552251Y-8000D02*X555251Y-5000D01*
X560502Y-3500D02*Y-8750D01*
X561252Y-9500D01*
X559752Y-5750D02*X561252D01*
X562754Y-7250D02*Y-8750D01*
Y-7250D02*X563504Y-6500D01*
X565004D01*
X565754Y-7250D01*
Y-8750D01*
X565004Y-9500D02*X565754Y-8750D01*
X563504Y-9500D02*X565004D01*
X562754Y-8750D02*X563504Y-9500D01*
X570255D02*X573255Y-6500D01*
Y-4250D02*Y-6500D01*
X572505Y-3500D02*X573255Y-4250D01*
X571005Y-3500D02*X572505D01*
X570255Y-4250D02*X571005Y-3500D01*
X570255Y-4250D02*Y-5750D01*
X571005Y-6500D01*
X573255D01*
X575057D02*X578057Y-3500D01*
X575057Y-6500D02*X578807D01*
X578057Y-3500D02*Y-9500D01*
X580608Y-8750D02*X581358Y-9500D01*
X580608Y-7250D02*Y-8750D01*
Y-7250D02*X581358Y-6500D01*
X582858D01*
X583608Y-7250D01*
Y-8750D01*
X582858Y-9500D02*X583608Y-8750D01*
X581358Y-9500D02*X582858D01*
X580608Y-5750D02*X581358Y-6500D01*
X580608Y-4250D02*Y-5750D01*
Y-4250D02*X581358Y-3500D01*
X582858D01*
X583608Y-4250D01*
Y-5750D01*
X582858Y-6500D02*X583608Y-5750D01*
X585410Y-8750D02*X586160Y-9500D01*
X585410Y-4250D02*Y-8750D01*
Y-4250D02*X586160Y-3500D01*
X587660D01*
X588410Y-4250D01*
Y-8750D01*
X587660Y-9500D02*X588410Y-8750D01*
X586160Y-9500D02*X587660D01*
X585410Y-8000D02*X588410Y-5000D01*
X590211Y-11000D02*X591711Y-9500D01*
X593513Y-3500D02*X596513D01*
X593513D02*Y-6500D01*
X594263Y-5750D01*
X595763D01*
X596513Y-6500D01*
Y-8750D01*
X595763Y-9500D02*X596513Y-8750D01*
X594263Y-9500D02*X595763D01*
X593513Y-8750D02*X594263Y-9500D01*
X598314Y-4250D02*X599064Y-3500D01*
X600564D01*
X601314Y-4250D01*
Y-8750D01*
X600564Y-9500D02*X601314Y-8750D01*
X599064Y-9500D02*X600564D01*
X598314Y-8750D02*X599064Y-9500D01*
Y-6500D02*X601314D01*
X603116D02*X606116Y-3500D01*
X603116Y-6500D02*X606866D01*
X606116Y-3500D02*Y-9500D01*
X608667Y-8750D02*X609417Y-9500D01*
X608667Y-4250D02*Y-8750D01*
Y-4250D02*X609417Y-3500D01*
X610917D01*
X611667Y-4250D01*
Y-8750D01*
X610917Y-9500D02*X611667Y-8750D01*
X609417Y-9500D02*X610917D01*
X608667Y-8000D02*X611667Y-5000D01*
X616919Y-7250D02*Y-9500D01*
Y-7250D02*X617669Y-6500D01*
X618419D01*
X619169Y-7250D01*
Y-9500D01*
Y-7250D02*X619919Y-6500D01*
X620669D01*
X621419Y-7250D01*
Y-9500D01*
X616169Y-6500D02*X616919Y-7250D01*
X623220Y-5000D02*Y-5750D01*
Y-7250D02*Y-9500D01*
X624722Y-3500D02*Y-8750D01*
X625472Y-9500D01*
X627723D02*X629973D01*
X630723Y-8750D01*
X629973Y-8000D02*X630723Y-8750D01*
X627723Y-8000D02*X629973D01*
X626973Y-7250D02*X627723Y-8000D01*
X626973Y-7250D02*X627723Y-6500D01*
X629973D01*
X630723Y-7250D01*
X626973Y-8750D02*X627723Y-9500D01*
X200750Y562500D02*Y556500D01*
X203000Y562500D02*X203750Y561750D01*
Y557250D01*
X203000Y556500D02*X203750Y557250D01*
X200000Y556500D02*X203000D01*
X200000Y562500D02*X203000D01*
X207801Y559500D02*X208551Y558750D01*
X206301Y559500D02*X207801D01*
X205551Y558750D02*X206301Y559500D01*
X205551Y558750D02*Y557250D01*
X206301Y556500D01*
X208551Y559500D02*Y557250D01*
X209301Y556500D01*
X206301D02*X207801D01*
X208551Y557250D01*
X211853Y562500D02*Y557250D01*
X212603Y556500D01*
X211103Y560250D02*X212603D01*
X214854Y556500D02*X217104D01*
X214104Y557250D02*X214854Y556500D01*
X214104Y558750D02*Y557250D01*
Y558750D02*X214854Y559500D01*
X216354D01*
X217104Y558750D01*
X214104Y558000D02*X217104D01*
Y558750D02*Y558000D01*
X218906Y560250D02*X219656D01*
X218906Y558750D02*X219656D01*
G54D11*G36*
X224157Y564000D02*Y554249D01*
X231659D01*
Y564000D01*
X224157D01*
G37*
G36*
X233159D02*Y554249D01*
X240660D01*
Y564000D01*
X233159D01*
G37*
G36*
X242160D02*Y554249D01*
X249662D01*
Y564000D01*
X242160D01*
G37*
G36*
X251162D02*Y554249D01*
X258663D01*
Y564000D01*
X251162D01*
G37*
G36*
X260163D02*Y554249D01*
X267665D01*
Y564000D01*
X260163D01*
G37*
G36*
X269165D02*Y554249D01*
X276666D01*
Y564000D01*
X269165D01*
G37*
G54D57*X280866Y557250D02*X281616Y556500D01*
X280866Y561750D02*Y557250D01*
Y561750D02*X281616Y562500D01*
X283116D01*
X283866Y561750D01*
Y557250D01*
X283116Y556500D02*X283866Y557250D01*
X281616Y556500D02*X283116D01*
X280866Y558000D02*X283866Y561000D01*
X285668Y562500D02*X288668D01*
X285668D02*Y559500D01*
X286418Y560250D01*
X287918D01*
X288668Y559500D01*
Y557250D01*
X287918Y556500D02*X288668Y557250D01*
X286418Y556500D02*X287918D01*
X285668Y557250D02*X286418Y556500D01*
G54D11*G36*
X293169Y564000D02*Y554249D01*
X300671D01*
Y564000D01*
X293169D01*
G37*
G36*
X302171D02*Y554249D01*
X309672D01*
Y564000D01*
X302171D01*
G37*
G36*
X311172D02*Y554249D01*
X318674D01*
Y564000D01*
X311172D01*
G37*
G36*
X320174D02*Y554249D01*
X327675D01*
Y564000D01*
X320174D01*
G37*
G36*
X329175D02*Y554249D01*
X336677D01*
Y564000D01*
X329175D01*
G37*
G36*
X338177D02*Y554249D01*
X345678D01*
Y564000D01*
X338177D01*
G37*
G54D57*X349878Y561750D02*X350628Y562500D01*
X352878D01*
X353628Y561750D01*
Y560250D01*
X349878Y556500D02*X353628Y560250D01*
X349878Y556500D02*X353628D01*
X355430Y557250D02*X356180Y556500D01*
X355430Y561750D02*Y557250D01*
Y561750D02*X356180Y562500D01*
X357680D01*
X358430Y561750D01*
Y557250D01*
X357680Y556500D02*X358430Y557250D01*
X356180Y556500D02*X357680D01*
X355430Y558000D02*X358430Y561000D01*
X360981Y556500D02*X362481D01*
X361731Y562500D02*Y556500D01*
X360231Y561000D02*X361731Y562500D01*
X364283Y561750D02*X365033Y562500D01*
X367283D01*
X368033Y561750D01*
Y560250D01*
X364283Y556500D02*X368033Y560250D01*
X364283Y556500D02*X368033D01*
X372534Y557250D02*X373284Y556500D01*
X372534Y561750D02*Y557250D01*
Y561750D02*X373284Y562500D01*
X374784D01*
X375534Y561750D01*
Y557250D01*
X374784Y556500D02*X375534Y557250D01*
X373284Y556500D02*X374784D01*
X372534Y558000D02*X375534Y561000D01*
X377336Y556500D02*X380336Y559500D01*
Y561750D02*Y559500D01*
X379586Y562500D02*X380336Y561750D01*
X378086Y562500D02*X379586D01*
X377336Y561750D02*X378086Y562500D01*
X377336Y561750D02*Y560250D01*
X378086Y559500D01*
X380336D01*
X382137Y560250D02*X382887D01*
X382137Y558750D02*X382887D01*
X384689Y559500D02*X387689Y562500D01*
X384689Y559500D02*X388439D01*
X387689Y562500D02*Y556500D01*
X390990D02*X392490D01*
X391740Y562500D02*Y556500D01*
X390240Y561000D02*X391740Y562500D01*
X394292Y560250D02*X395042D01*
X394292Y558750D02*X395042D01*
X397593Y556500D02*X399093D01*
X398343Y562500D02*Y556500D01*
X396843Y561000D02*X398343Y562500D01*
X400895Y561750D02*X401645Y562500D01*
X403895D01*
X404645Y561750D01*
Y560250D01*
X400895Y556500D02*X404645Y560250D01*
X400895Y556500D02*X404645D01*
X409146Y562500D02*Y557250D01*
X409896Y556500D01*
X411396D01*
X412146Y557250D01*
Y562500D02*Y557250D01*
X413948Y562500D02*X416948D01*
X415448D02*Y556500D01*
X419499D02*X421749D01*
X418749Y557250D02*X419499Y556500D01*
X418749Y561750D02*Y557250D01*
Y561750D02*X419499Y562500D01*
X421749D01*
X200000Y576750D02*Y571500D01*
Y576750D02*X200750Y577500D01*
X203000D01*
X203750Y576750D01*
Y571500D01*
X200000Y574500D02*X203750D01*
X205551D02*Y572250D01*
X206301Y571500D01*
X207801D01*
X208551Y572250D01*
Y574500D02*Y572250D01*
X211103Y577500D02*Y572250D01*
X211853Y571500D01*
X210353Y575250D02*X211853D01*
X213354Y577500D02*Y571500D01*
Y573750D02*X214104Y574500D01*
X215604D01*
X216354Y573750D01*
Y571500D01*
X218156Y573750D02*Y572250D01*
Y573750D02*X218906Y574500D01*
X220406D01*
X221156Y573750D01*
Y572250D01*
X220406Y571500D02*X221156Y572250D01*
X218906Y571500D02*X220406D01*
X218156Y572250D02*X218906Y571500D01*
X223707Y573750D02*Y571500D01*
Y573750D02*X224457Y574500D01*
X225957D01*
X222957D02*X223707Y573750D01*
X227759Y575250D02*X228509D01*
X227759Y573750D02*X228509D01*
X233010Y576750D02*Y571500D01*
Y576750D02*X233760Y577500D01*
X236010D01*
X236760Y576750D01*
Y571500D01*
X233010Y574500D02*X236760D01*
X238562Y577500D02*Y572250D01*
X239312Y571500D01*
X241563D02*X243813D01*
X240813Y572250D02*X241563Y571500D01*
X240813Y573750D02*Y572250D01*
Y573750D02*X241563Y574500D01*
X243063D01*
X243813Y573750D01*
X240813Y573000D02*X243813D01*
Y573750D02*Y573000D01*
X245615Y574500D02*X248615Y571500D01*
X245615D02*X248615Y574500D01*
X252666D02*X253416Y573750D01*
X251166Y574500D02*X252666D01*
X250416Y573750D02*X251166Y574500D01*
X250416Y573750D02*Y572250D01*
X251166Y571500D01*
X253416Y574500D02*Y572250D01*
X254166Y571500D01*
X251166D02*X252666D01*
X253416Y572250D01*
X256718Y573750D02*Y571500D01*
Y573750D02*X257468Y574500D01*
X258218D01*
X258968Y573750D01*
Y571500D01*
X255968Y574500D02*X256718Y573750D01*
X263769Y577500D02*Y571500D01*
X263019D02*X263769Y572250D01*
X261519Y571500D02*X263019D01*
X260769Y572250D02*X261519Y571500D01*
X260769Y573750D02*Y572250D01*
Y573750D02*X261519Y574500D01*
X263019D01*
X263769Y573750D01*
X266321Y571500D02*X268571D01*
X265571Y572250D02*X266321Y571500D01*
X265571Y573750D02*Y572250D01*
Y573750D02*X266321Y574500D01*
X267821D01*
X268571Y573750D01*
X265571Y573000D02*X268571D01*
Y573750D02*Y573000D01*
X271122Y573750D02*Y571500D01*
Y573750D02*X271872Y574500D01*
X273372D01*
X270372D02*X271122Y573750D01*
X277874Y577500D02*Y571500D01*
X280874D01*
X282675Y573750D02*Y572250D01*
Y573750D02*X283425Y574500D01*
X284925D01*
X285675Y573750D01*
Y572250D01*
X284925Y571500D02*X285675Y572250D01*
X283425Y571500D02*X284925D01*
X282675Y572250D02*X283425Y571500D01*
X287477Y574500D02*Y572250D01*
X288227Y571500D01*
X289727D01*
X290477Y572250D01*
Y574500D02*Y572250D01*
X293028Y573750D02*Y571500D01*
Y573750D02*X293778Y574500D01*
X295278D01*
X292278D02*X293028Y573750D01*
X297080Y576000D02*Y575250D01*
Y573750D02*Y571500D01*
X299331D02*X301581D01*
X298581Y572250D02*X299331Y571500D01*
X298581Y573750D02*Y572250D01*
Y573750D02*X299331Y574500D01*
X300831D01*
X301581Y573750D01*
X298581Y573000D02*X301581D01*
Y573750D02*Y573000D01*
X304133Y573750D02*Y571500D01*
Y573750D02*X304883Y574500D01*
X306383D01*
X303383D02*X304133Y573750D01*
X200000Y592500D02*X203000D01*
X201500D02*Y586500D01*
X204801Y591000D02*Y590250D01*
Y588750D02*Y586500D01*
X207053Y592500D02*Y587250D01*
X207803Y586500D01*
X206303Y590250D02*X207803D01*
X209304Y592500D02*Y587250D01*
X210054Y586500D01*
X212306D02*X214556D01*
X211556Y587250D02*X212306Y586500D01*
X211556Y588750D02*Y587250D01*
Y588750D02*X212306Y589500D01*
X213806D01*
X214556Y588750D01*
X211556Y588000D02*X214556D01*
Y588750D02*Y588000D01*
X216357Y590250D02*X217107D01*
X216357Y588750D02*X217107D01*
X221609Y587250D02*X222359Y586500D01*
X221609Y591750D02*X222359Y592500D01*
X221609Y591750D02*Y587250D01*
X224160Y589500D02*Y587250D01*
X224910Y586500D01*
X226410D01*
X227160Y587250D01*
Y589500D02*Y587250D01*
X229712Y588750D02*Y586500D01*
Y588750D02*X230462Y589500D01*
X231212D01*
X231962Y588750D01*
Y586500D01*
X228962Y589500D02*X229712Y588750D01*
X233763Y592500D02*Y586500D01*
Y588750D02*X236013Y586500D01*
X233763Y588750D02*X235263Y590250D01*
X238565Y588750D02*Y586500D01*
Y588750D02*X239315Y589500D01*
X240065D01*
X240815Y588750D01*
Y586500D01*
X237815Y589500D02*X238565Y588750D01*
X242616D02*Y587250D01*
Y588750D02*X243366Y589500D01*
X244866D01*
X245616Y588750D01*
Y587250D01*
X244866Y586500D02*X245616Y587250D01*
X243366Y586500D02*X244866D01*
X242616Y587250D02*X243366Y586500D01*
X247418Y589500D02*Y587250D01*
X248168Y586500D01*
X248918D01*
X249668Y587250D01*
Y589500D02*Y587250D01*
X250418Y586500D01*
X251168D01*
X251918Y587250D01*
Y589500D02*Y587250D01*
X254469Y588750D02*Y586500D01*
Y588750D02*X255219Y589500D01*
X255969D01*
X256719Y588750D01*
Y586500D01*
X253719Y589500D02*X254469Y588750D01*
X258521Y592500D02*X259271Y591750D01*
Y587250D01*
X258521Y586500D02*X259271Y587250D01*
X263772Y589500D02*X266772D01*
X271274Y592500D02*Y586500D01*
Y592500D02*X274274D01*
X271274Y589500D02*X273524D01*
X278325D02*X279075Y588750D01*
X276825Y589500D02*X278325D01*
X276075Y588750D02*X276825Y589500D01*
X276075Y588750D02*Y587250D01*
X276825Y586500D01*
X279075Y589500D02*Y587250D01*
X279825Y586500D01*
X276825D02*X278325D01*
X279075Y587250D01*
X281627Y592500D02*Y586500D01*
Y587250D02*X282377Y586500D01*
X283877D01*
X284627Y587250D01*
Y588750D02*Y587250D01*
X283877Y589500D02*X284627Y588750D01*
X282377Y589500D02*X283877D01*
X281627Y588750D02*X282377Y589500D01*
X287178Y588750D02*Y586500D01*
Y588750D02*X287928Y589500D01*
X289428D01*
X286428D02*X287178Y588750D01*
X291230Y591000D02*Y590250D01*
Y588750D02*Y586500D01*
X293481Y589500D02*X295731D01*
X292731Y588750D02*X293481Y589500D01*
X292731Y588750D02*Y587250D01*
X293481Y586500D01*
X295731D01*
X299783Y589500D02*X300533Y588750D01*
X298283Y589500D02*X299783D01*
X297533Y588750D02*X298283Y589500D01*
X297533Y588750D02*Y587250D01*
X298283Y586500D01*
X300533Y589500D02*Y587250D01*
X301283Y586500D01*
X298283D02*X299783D01*
X300533Y587250D01*
X303834Y592500D02*Y587250D01*
X304584Y586500D01*
X303084Y590250D02*X304584D01*
X306086Y591000D02*Y590250D01*
Y588750D02*Y586500D01*
X307587Y588750D02*Y587250D01*
Y588750D02*X308337Y589500D01*
X309837D01*
X310587Y588750D01*
Y587250D01*
X309837Y586500D02*X310587Y587250D01*
X308337Y586500D02*X309837D01*
X307587Y587250D02*X308337Y586500D01*
X313139Y588750D02*Y586500D01*
Y588750D02*X313889Y589500D01*
X314639D01*
X315389Y588750D01*
Y586500D01*
X312389Y589500D02*X313139Y588750D01*
X320640Y592500D02*Y586500D01*
X322890Y592500D02*X323640Y591750D01*
Y587250D01*
X322890Y586500D02*X323640Y587250D01*
X319890Y586500D02*X322890D01*
X319890Y592500D02*X322890D01*
X326192Y588750D02*Y586500D01*
Y588750D02*X326942Y589500D01*
X328442D01*
X325442D02*X326192Y588750D01*
X332493Y589500D02*X333243Y588750D01*
X330993Y589500D02*X332493D01*
X330243Y588750D02*X330993Y589500D01*
X330243Y588750D02*Y587250D01*
X330993Y586500D01*
X333243Y589500D02*Y587250D01*
X333993Y586500D01*
X330993D02*X332493D01*
X333243Y587250D01*
X335795Y589500D02*Y587250D01*
X336545Y586500D01*
X337295D01*
X338045Y587250D01*
Y589500D02*Y587250D01*
X338795Y586500D01*
X339545D01*
X340295Y587250D01*
Y589500D02*Y587250D01*
X342096Y591000D02*Y590250D01*
Y588750D02*Y586500D01*
X344348Y588750D02*Y586500D01*
Y588750D02*X345098Y589500D01*
X345848D01*
X346598Y588750D01*
Y586500D01*
X343598Y589500D02*X344348Y588750D01*
X350649Y589500D02*X351399Y588750D01*
X349149Y589500D02*X350649D01*
X348399Y588750D02*X349149Y589500D01*
X348399Y588750D02*Y587250D01*
X349149Y586500D01*
X350649D01*
X351399Y587250D01*
X348399Y585000D02*X349149Y584250D01*
X350649D01*
X351399Y585000D01*
Y589500D02*Y585000D01*
M02*
