M48
INCH
T11C0.020
T15C0.060
T30C0.028
T31C0.030
T32C0.038
T33C0.050
T34C0.035
T35C0.125
T36C0.045
%
T11
X003100Y046930
X003100Y045930
X003100Y043680
X003100Y042680
X003100Y041680
X003100Y040680
X003100Y039680
X003100Y038680
X003100Y037680
X033700Y046930
X033700Y045930
X033700Y043680
X033700Y042680
X033700Y041680
X033700Y040680
X033700Y039680
X033700Y038680
X033700Y037680
X064300Y037680
X064300Y039680
X064300Y038680
X064300Y046930
X064300Y045930
X064300Y043680
X064300Y042680
X064300Y041680
X064300Y040680
X033700Y020880
X033700Y022880
X033700Y021880
X064300Y020880
X064300Y022880
X064300Y021880
X033700Y030130
X033700Y029130
X033700Y026880
X033700Y025880
X033700Y024880
X033700Y023880
X064300Y030130
X064300Y029130
X064300Y026880
X064300Y025880
X064300Y024880
X064300Y023880
X003100Y030130
X003100Y029130
X003100Y026880
X003100Y025880
X003100Y024880
X003100Y023880
X003100Y022880
X003100Y021880
X003100Y020880
X003100Y013330
X003100Y012330
X003100Y010080
X003100Y009080
X003100Y008080
X003100Y007080
X003100Y006080
X003100Y005080
X003100Y004080
X032950Y012331
X032950Y011331
X032950Y009081
X032950Y008081
X032950Y007081
X032950Y006081
X032950Y005081
X032950Y004081
X032950Y003081
X063550Y012331
X063550Y011331
X063550Y009081
X063550Y008081
X063550Y007081
X063550Y006081
X063550Y005081
X063550Y004081
X063550Y003081
X045600Y046330
X054150Y045930
X053350Y045830
X052750Y045880
X052600Y045130
X052200Y045630
X049700Y045830
X049000Y044280
X050700Y043730
X051700Y043730
X050700Y044830
X051300Y044830
X057300Y044930
X056800Y046130
X059400Y049030
X057000Y048530
X055400Y048530
X058000Y049630
X056950Y049630
X055100Y049130
X076200Y046330
X080300Y045830
X079600Y044280
X087900Y044930
X087400Y046130
X087600Y048530
X087550Y049630
X086000Y048530
X085700Y049130
X081300Y043730
X082300Y043730
X081300Y044830
X081900Y044830
X084750Y045930
X083200Y045130
X083950Y045830
X083350Y045880
X082800Y045630
X090000Y049030
X088600Y049630
X076200Y029530
X080300Y029030
X087900Y028130
X087400Y029330
X079600Y027480
X081300Y026930
X082300Y026930
X081300Y028030
X081900Y028030
X087600Y031730
X090000Y032230
X088600Y032830
X087550Y032830
X086000Y031730
X085700Y032330
X084750Y029130
X083200Y028330
X083950Y029030
X083350Y029080
X082800Y028830
X015000Y046330
X019100Y045830
X018400Y044280
X026700Y044930
X026200Y046130
X026400Y048530
X026350Y049630
X020100Y043730
X021100Y043730
X020100Y044830
X020700Y044830
X023550Y045930
X022000Y045130
X022750Y045830
X022150Y045880
X021600Y045630
X028800Y049030
X027400Y049630
X024800Y048530
X024500Y049130
X015000Y029530
X019100Y029030
X018400Y027480
X020100Y026930
X021100Y026930
X020100Y028030
X020700Y028030
X026400Y031730
X028800Y032230
X027400Y032830
X026350Y032830
X023550Y029130
X022000Y028330
X022750Y029030
X022150Y029080
X021600Y028830
X026700Y028130
X026200Y029330
X024800Y031730
X024500Y032330
X057000Y031730
X055400Y031730
X055100Y032330
X045600Y029530
X054150Y029130
X049700Y029030
X056800Y029330
X053350Y029030
X052750Y029080
X052200Y028830
X057300Y028130
X052600Y028330
X049000Y027480
X050700Y026930
X051700Y026930
X050700Y028030
X051300Y028030
X059400Y032230
X058000Y032830
X056950Y032830
X015000Y012730
X019100Y012230
X018400Y010680
X020100Y010130
X020100Y011230
X020700Y011230
X026700Y011330
X026200Y012530
X026400Y014930
X028800Y015430
X027400Y016030
X026350Y016030
X021100Y010130
X023550Y012330
X022000Y011530
X022750Y012230
X024800Y014930
X022150Y012280
X024500Y015530
X021600Y012030
X036650Y013500
X041050Y015500
X041050Y011950
X038600Y009700
X044450Y012500
X046450Y015700
X049800Y013950
X053200Y015150
X052250Y015200
X046650Y014700
X047600Y015700
X055550Y012500
X045450Y013500
X042800Y013450
X067250Y013500
X053200Y009550
X083800Y009550
X071650Y015500
X071650Y011950
X069200Y009700
X077050Y015700
X080400Y013950
X083800Y015150
X082850Y015200
X077250Y014700
X078200Y015700
X086150Y012500
X075050Y012500
X076050Y013500
X073400Y013450
T30
X015150Y042980
X014150Y042980
X013150Y042980
X012150Y042980
X015650Y050380
X015650Y049380
X015650Y048380
X008450Y050580
X011450Y050580
X008450Y049580
X011450Y049580
X008450Y048580
X008450Y047580
X011450Y047580
X011450Y048580
X021850Y047330
X018650Y047380
X018650Y048380
X018650Y049380
X022850Y047330
X023850Y047330
X024850Y047330
X025850Y047330
X025850Y050330
X024850Y050330
X023850Y050330
X022850Y050330
X021850Y050330
X018650Y050380
X011150Y042980
X010150Y042980
X009150Y042980
X015650Y047380
X026850Y047330
X027850Y047330
X028850Y047330
X028850Y050330
X027850Y050330
X026850Y050330
X011450Y033780
X009150Y038980
X010150Y038980
X011150Y038980
X012150Y038980
X013150Y038980
X014150Y038980
X015150Y038980
X025850Y033530
X024850Y033530
X023850Y033530
X022850Y033530
X021850Y033530
X016150Y038980
X017150Y038980
X018150Y038980
X015650Y033580
X018650Y033580
X022150Y042980
X021150Y042980
X020150Y042980
X019150Y042980
X018150Y042980
X017150Y042980
X016150Y042980
X019150Y038980
X020150Y038980
X021150Y038980
X022150Y038980
X028850Y033530
X027850Y033530
X026850Y033530
X039750Y038980
X040750Y038980
X041750Y038980
X042750Y038980
X043750Y038980
X044750Y038980
X045750Y038980
X046750Y038980
X047750Y038980
X048750Y038980
X049750Y038980
X050750Y038980
X051750Y038980
X052750Y038980
X045750Y042980
X044750Y042980
X043750Y042980
X042750Y042980
X041750Y042980
X040750Y042980
X039750Y042980
X052750Y042980
X051750Y042980
X050750Y042980
X052450Y047330
X053450Y047330
X054450Y047330
X055450Y047330
X056450Y047330
X056450Y050330
X055450Y050330
X054450Y050330
X053450Y050330
X052450Y050330
X057450Y047330
X057450Y050330
X058450Y047330
X059450Y047330
X059450Y050330
X058450Y050330
X049750Y042980
X048750Y042980
X047750Y042980
X046750Y042980
X049250Y047380
X049250Y048380
X049250Y049380
X049250Y050380
X046250Y050380
X046250Y049380
X046250Y048380
X046250Y047380
X039050Y050580
X039050Y049580
X039050Y048580
X039050Y047580
X042050Y047580
X042050Y048580
X042050Y049580
X042050Y050580
X070350Y038980
X071350Y038980
X072350Y038980
X073350Y038980
X074350Y038980
X075350Y038980
X076350Y038980
X077350Y038980
X078350Y038980
X079350Y038980
X080350Y038980
X081350Y038980
X082350Y038980
X083350Y038980
X083350Y042980
X082350Y042980
X081350Y042980
X083050Y047330
X084050Y047330
X085050Y047330
X086050Y047330
X087050Y047330
X087050Y050330
X086050Y050330
X085050Y050330
X084050Y050330
X083050Y050330
X088050Y047330
X088050Y050330
X089050Y047330
X090050Y047330
X090050Y050330
X089050Y050330
X077350Y042980
X076350Y042980
X075350Y042980
X074350Y042980
X073350Y042980
X080350Y042980
X079350Y042980
X078350Y042980
X076850Y050380
X076850Y049380
X076850Y048380
X076850Y047380
X079850Y047380
X079850Y048380
X079850Y049380
X079850Y050380
X072350Y042980
X071350Y042980
X070350Y042980
X069650Y050580
X069650Y049580
X069650Y048580
X069650Y047580
X072650Y047580
X072650Y048580
X072650Y049580
X072650Y050580
X039750Y022180
X040750Y022180
X041750Y022180
X046750Y022180
X047750Y022180
X048750Y022180
X049750Y022180
X050750Y022180
X051750Y022180
X052750Y022180
X042750Y022180
X043750Y022180
X044750Y022180
X045750Y022180
X070350Y022180
X071350Y022180
X072350Y022180
X073350Y022180
X074350Y022180
X075350Y022180
X076350Y022180
X077350Y022180
X078350Y022180
X079350Y022180
X080350Y022180
X081350Y022180
X082350Y022180
X083350Y022180
X046750Y026180
X045750Y026180
X046250Y033580
X046250Y032580
X046250Y031580
X042050Y030780
X042050Y031780
X042050Y032780
X042050Y033780
X052750Y026180
X051750Y026180
X050750Y026180
X049750Y026180
X048750Y026180
X047750Y026180
X052450Y030530
X053450Y030530
X049250Y030580
X049250Y031580
X049250Y032580
X054450Y030530
X055450Y030530
X056450Y030530
X057450Y030530
X058450Y030530
X059450Y030530
X059450Y033530
X058450Y033530
X057450Y033530
X056450Y033530
X055450Y033530
X054450Y033530
X053450Y033530
X052450Y033530
X049250Y033580
X044750Y026180
X043750Y026180
X042750Y026180
X041750Y026180
X040750Y026180
X046250Y030580
X039050Y030780
X039750Y026180
X039050Y033780
X039050Y032780
X039050Y031780
X076350Y026180
X075350Y026180
X074350Y026180
X073350Y026180
X072350Y026180
X071350Y026180
X070350Y026180
X083350Y026180
X082350Y026180
X081350Y026180
X083050Y030530
X084050Y030530
X085050Y030530
X086050Y030530
X087050Y030530
X087050Y033530
X086050Y033530
X085050Y033530
X084050Y033530
X083050Y033530
X088050Y030530
X088050Y033530
X089050Y030530
X090050Y030530
X090050Y033530
X089050Y033530
X080350Y026180
X079350Y026180
X078350Y026180
X077350Y026180
X076850Y033580
X076850Y032580
X076850Y031580
X076850Y030580
X072650Y030780
X072650Y031780
X072650Y032780
X072650Y033780
X079850Y030580
X079850Y031580
X079850Y032580
X079850Y033580
X069650Y033780
X069650Y032780
X069650Y031780
X069650Y030780
X015650Y016780
X018650Y016780
X015650Y015780
X015650Y014780
X015650Y013780
X018650Y013780
X018650Y014780
X018650Y015780
X022150Y026180
X021150Y026180
X020150Y026180
X019150Y026180
X018150Y026180
X017150Y026180
X016150Y026180
X015150Y026180
X021850Y030530
X018650Y030580
X018650Y031580
X018650Y032580
X022850Y030530
X023850Y030530
X024850Y030530
X025850Y030530
X026850Y030530
X027850Y030530
X028850Y030530
X015150Y022180
X016150Y022180
X017150Y022180
X018150Y022180
X019150Y022180
X020150Y022180
X021150Y022180
X022150Y022180
X014150Y026180
X013150Y026180
X012150Y026180
X011150Y026180
X010150Y026180
X009150Y026180
X011450Y015980
X011450Y016980
X015650Y032580
X015650Y031580
X015650Y030580
X008450Y033780
X008450Y032780
X008450Y031780
X008450Y030780
X011450Y030780
X011450Y031780
X011450Y032780
X022150Y009380
X021150Y009380
X020150Y009380
X019150Y009380
X018150Y009380
X017150Y009380
X016150Y005380
X017150Y005380
X018150Y005380
X019150Y005380
X020150Y005380
X021150Y005380
X022150Y005380
X016150Y009380
X015150Y009380
X014150Y009380
X013150Y009380
X012150Y009380
X011150Y009380
X010150Y009380
X009150Y009380
X009150Y005380
X010150Y005380
X011150Y005380
X012150Y005380
X013150Y005380
X014150Y005380
X015150Y005380
X009150Y022180
X010150Y022180
X011150Y022180
X012150Y022180
X013150Y022180
X014150Y022180
X011450Y013980
X011450Y014980
X008450Y016980
X008450Y015980
X008450Y014980
X008450Y013980
X021850Y013730
X022850Y013730
X023850Y013730
X024850Y013730
X025850Y013730
X026850Y013730
X027850Y013730
X028850Y013730
X028850Y016730
X027850Y016730
X026850Y016730
X025850Y016730
X024850Y016730
X023850Y016730
X022850Y016730
X021850Y016730
X039350Y016950
X039350Y015950
X039350Y014950
X039350Y013950
X039350Y012950
X039350Y011950
X039350Y010950
X039350Y009950
X039350Y008950
X039350Y007950
X039350Y006950
X039350Y005950
X039350Y004950
X039350Y003950
X049300Y010550
X049300Y009550
X052300Y009550
X052300Y010550
X052300Y011550
X052300Y012550
X049300Y012550
X049300Y011550
X054050Y011500
X043350Y003950
X043350Y004950
X043350Y005950
X043350Y006950
X043350Y007950
X043350Y008950
X043350Y009950
X043350Y010950
X043350Y011950
X043350Y012950
X043350Y013950
X043350Y014950
X043350Y015950
X043350Y016950
X058050Y014500
X073950Y013950
X069950Y013950
X073950Y011950
X073950Y012950
X073950Y014950
X069950Y014950
X069950Y012950
X069950Y011950
X073950Y015950
X073950Y016950
X069950Y016950
X069950Y015950
X082900Y011550
X082900Y012550
X079900Y012550
X079900Y011550
X084650Y011500
X085650Y011500
X086650Y011500
X087650Y011500
X087650Y014500
X086650Y014500
X085650Y014500
X084650Y014500
X088650Y011500
X088650Y014500
X089650Y011500
X089650Y014500
X090650Y011500
X091650Y011500
X091650Y014500
X090650Y014500
X055050Y011500
X056050Y011500
X057050Y011500
X058050Y011500
X059050Y011500
X060050Y011500
X061050Y011500
X061050Y014500
X060050Y014500
X059050Y014500
X057050Y014500
X056050Y014500
X055050Y014500
X054050Y014500
X073950Y007950
X069950Y007950
X073950Y008950
X069950Y008950
X082900Y009550
X082900Y010550
X079900Y010550
X079900Y009550
X073950Y009950
X073950Y010950
X069950Y010950
X069950Y009950
X073950Y005950
X073950Y006950
X069950Y006950
X069950Y005950
X069950Y004950
X069950Y003950
X073950Y003950
X073950Y004950
T31
X011350Y044380
X014350Y044380
X009100Y045230
X010100Y045230
X041950Y044380
X039700Y045230
X040700Y045230
X044950Y044380
X072550Y044380
X075550Y044380
X070300Y045230
X071300Y045230
X041950Y027580
X044950Y027580
X039700Y028430
X040700Y028430
X072550Y027580
X070300Y028430
X071300Y028430
X075550Y027580
X014350Y027580
X011350Y027580
X009100Y028430
X010100Y028430
X011350Y010780
X009100Y011630
X010100Y011630
X014350Y010780
X046950Y007650
X048286Y005350
X047286Y005350
X046950Y010650
X077550Y007650
X077550Y010650
X078886Y005350
X077886Y005350
X056100Y041330
X086700Y041330
X086700Y024530
X025500Y041330
X025500Y024530
X056100Y024530
X025500Y007730
T34
X053430Y005910
X053970Y004790
X054510Y005910
X055050Y004790
X056130Y004790
X057210Y004790
X055590Y005910
X056670Y005910
X057750Y005910
X084570Y004790
X085650Y004790
X086730Y004790
X087810Y004790
X084030Y005910
X085110Y005910
X086190Y005910
X087270Y005910
X088350Y005910
X058600Y040030
X075600Y049030
X068400Y038730
X065400Y047480
X089200Y040030
X068400Y037530
X068400Y020730
X068400Y021930
X065400Y030680
X075600Y032230
X089200Y023230
X014400Y049030
X007200Y038730
X004200Y047480
X028000Y040030
X007200Y037530
X007200Y020730
X007200Y021930
X004200Y030680
X004200Y013880
X007200Y003930
X007200Y005130
X045000Y049030
X037800Y037530
X037800Y038730
X034800Y047480
X014400Y032230
X028000Y023230
X045000Y032230
X034800Y030680
X037800Y020730
X037800Y021930
X058600Y023230
X014400Y015430
X028000Y006430
T32
X013300Y048530
X013300Y047530
X011200Y036830
X010200Y036830
X009200Y036830
X015500Y037030
X022900Y037430
X022900Y036430
X023900Y037430
X023900Y036430
X024900Y037430
X024900Y036430
X020500Y037030
X019500Y037030
X018500Y037030
X017500Y037030
X016500Y037030
X025900Y037430
X026900Y037430
X027900Y037430
X028900Y037430
X029900Y037430
X025900Y036430
X026900Y036430
X027900Y036430
X028900Y036430
X029900Y036430
X041800Y036830
X040800Y036830
X039800Y036830
X053500Y037430
X053500Y036430
X054500Y037430
X054500Y036430
X055500Y037430
X055500Y036430
X056500Y037430
X057500Y037430
X058500Y037430
X059500Y037430
X060500Y037430
X056500Y036430
X057500Y036430
X058500Y036430
X059500Y036430
X060500Y036430
X051100Y037030
X050100Y037030
X049100Y037030
X048100Y037030
X047100Y037030
X046100Y037030
X043900Y048530
X043900Y047530
X072400Y036830
X071400Y036830
X070400Y036830
X084100Y036430
X085100Y037430
X086100Y037430
X087100Y037430
X085100Y036430
X086100Y036430
X087100Y036430
X088100Y036430
X089100Y036430
X090100Y036430
X088100Y037430
X089100Y037430
X090100Y037430
X091100Y037430
X091100Y036430
X084100Y037430
X081700Y037030
X080700Y037030
X079700Y037030
X078700Y037030
X077700Y037030
X076700Y037030
X074500Y048530
X074500Y047530
X027900Y020630
X028900Y020630
X029900Y020630
X053500Y020630
X041800Y020030
X040800Y020030
X039800Y020030
X054500Y020630
X054500Y019630
X055500Y020630
X056500Y020630
X057500Y020630
X058500Y020630
X059500Y020630
X060500Y020630
X055500Y019630
X056500Y019630
X057500Y019630
X058500Y019630
X059500Y019630
X060500Y019630
X053500Y019630
X051100Y020230
X050100Y020230
X049100Y020230
X048100Y020230
X047100Y020230
X046100Y020230
X072400Y020030
X071400Y020030
X070400Y020030
X084100Y020630
X084100Y019630
X085100Y020630
X085100Y019630
X086100Y020630
X086100Y019630
X087100Y020630
X088100Y020630
X089100Y020630
X090100Y020630
X091100Y020630
X087100Y019630
X088100Y019630
X089100Y019630
X090100Y019630
X091100Y019630
X081700Y020230
X080700Y020230
X079700Y020230
X078700Y020230
X077700Y020230
X076700Y020230
X043900Y031730
X043900Y030730
X074500Y031730
X074500Y030730
X020500Y020230
X019500Y020230
X018500Y020230
X017500Y020230
X016500Y020230
X015500Y020230
X013300Y031730
X013300Y030730
X011200Y003230
X010200Y003230
X009200Y003230
X022900Y003830
X022900Y002830
X023900Y003830
X023900Y002830
X024900Y003830
X024900Y002830
X025900Y003830
X025900Y002830
X026900Y002830
X027900Y002830
X028900Y002830
X029900Y002830
X026900Y003830
X027900Y003830
X028900Y003830
X029900Y003830
X020500Y003430
X019500Y003430
X018500Y003430
X017500Y003430
X016500Y003430
X015500Y003430
X011200Y020030
X010200Y020030
X009200Y020030
X013300Y014930
X013300Y013930
X022900Y020630
X022900Y019630
X023900Y020630
X023900Y019630
X024900Y020630
X024900Y019630
X025900Y020630
X025900Y019630
X026900Y020630
X026900Y019630
X027900Y019630
X028900Y019630
X029900Y019630
X037419Y017319
X037419Y016319
X037419Y015319
X039300Y002700
X050231Y007873
X051231Y007873
X052050Y013750
X051050Y013750
X044300Y002700
X043300Y002700
X042300Y002700
X041300Y002700
X040300Y002700
X082650Y013750
X081650Y013750
X068019Y017319
X068019Y016319
X068019Y015319
X084200Y016500
X084200Y017500
X083200Y016500
X083200Y017500
X082200Y017500
X081200Y017500
X080200Y017500
X079200Y017500
X082200Y016500
X081200Y016500
X080200Y016500
X079200Y016500
X078200Y016500
X077200Y016500
X053600Y016500
X053600Y017500
X052600Y017500
X051600Y017500
X078200Y017500
X077200Y017500
X052600Y016500
X051600Y016500
X050600Y016500
X049600Y016500
X048600Y016500
X047600Y016500
X050600Y017500
X049600Y017500
X048600Y017500
X047600Y017500
X046600Y016500
X046600Y017500
X080831Y007873
X081831Y007873
X074900Y002700
X073900Y002700
X072900Y002700
X071900Y002700
X070900Y002700
X069900Y002700
T36
X060500Y051330
X091100Y051330
X091100Y034530
X029900Y051330
X029900Y017730
X029900Y034530
X060500Y034530
T33
X005200Y050530
X035800Y050530
X066400Y050530
X035800Y033730
X066400Y033730
X005200Y033730
X005200Y016930
X034200Y016700
X064800Y016700
T15
X004200Y051530
X006200Y051530
X006200Y049530
X004200Y049530
X034800Y051530
X036800Y051530
X036800Y049530
X034800Y049530
X065400Y051530
X065400Y049530
X067400Y049530
X067400Y051530
X034800Y034730
X034800Y032730
X036800Y034730
X036800Y032730
X065400Y032730
X065400Y034730
X067400Y032730
X067400Y034730
X004200Y032730
X004200Y017930
X004200Y034730
X006200Y032730
X006200Y034730
X006200Y015930
X004200Y015930
X006200Y017930
X033200Y017700
X035200Y015700
X033200Y015700
X035200Y017700
X063800Y017700
X065800Y015700
X063800Y015700
X065800Y017700
T35
X050730Y005350
X060450Y005350
X081330Y005350
X091050Y005350
M30
